SplineFontDB: 3.0
FontName: aqtrmns
FullName: AqTrmns
FamilyName: Trmns
Weight: Medium
Copyright: Copyright (C) 2016 Dimitar Toshkov Zhekov; Copyright (c) 2017 Anonrate

StartChar: exclam
Encoding: 33 33 4
Width: 1024
VWidth: 0
Flags: MW
LayerCount: 4
Back
Fore
SplineSet
576 1248 m 2,0,-1
 576 480 l 2,1,2
 576 448 576 448 544 448 c 2,3,-1
 480 448 l 2,4,5
 448 448 448 448 448 480 c 2,6,-1
 448 1248 l 2,7,8
 448 1280 448 1280 480 1280 c 2,9,-1
 544 1280 l 2,10,11
 576 1280 576 1280 576 1248 c 2,0,-1
576 224 m 6,12,-1
 576 32 l 6,13,14
 576 0 576 0 544 0 c 6,15,-1
 480 0 l 6,16,17
 448 0 448 0 448 32 c 6,18,-1
 448 224 l 6,19,20
 448 256 448 256 480 256 c 6,21,-1
 544 256 l 6,22,23
 576 256 576 256 576 224 c 6,12,-1
EndSplineSet
Validated: 3073
Layer: 2
SplineSet
510 340 m 25,0,-1
 510 0 l 25,1,-1
 340 0 l 25,2,-1
 340 340 l 25,3,-1
 510 340 l 25,0,-1
340 1360 m 29,4,-1
 510 1360 l 25,5,-1
 510 510 l 25,6,-1
 340 510 l 29,7,-1
 340 1360 l 29,4,-1
EndSplineSet
Validated: 1
Layer: 3
SplineSet
448 256 m 29,0,-1
 576 256 l 29,1,-1
 576 0 l 29,2,-1
 448 0 l 29,3,-1
 448 256 l 29,0,-1
448 1280 m 25,4,-1
 576 1280 l 25,5,-1
 576 448 l 25,6,-1
 448 448 l 25,7,-1
 448 1280 l 25,4,-1
EndSplineSet
Validated: 3073
Comment: "Starting to think I may use the 32 pixel spacing rather than the 64 because it matches what I have doing for the rest of the puncuation..  Equals, Greater Than etc..  That is considered punctuation, no?"
EndChar

StartChar: quotedbl
Encoding: 34 34 5
Width: 1024
VWidth: 0
Flags: MW
LayerCount: 4
Back
Fore
SplineSet
768 1344 m 6,0,-1
 768 1024 l 6,1,2
 768 992 768 992 736 992 c 6,3,-1
 672 992 l 6,4,5
 640 992 640 992 640 1024 c 6,6,-1
 640 1344 l 6,7,8
 640 1376 640 1376 672 1376 c 6,9,-1
 736 1376 l 6,10,11
 768 1376 768 1376 768 1344 c 6,0,-1
384 1344 m 2,12,-1
 384 1024 l 2,13,14
 384 992 384 992 352 992 c 2,15,-1
 288 992 l 2,16,17
 256 992 256 992 256 1024 c 2,18,-1
 256 1344 l 2,19,20
 256 1376 256 1376 288 1376 c 2,21,-1
 352 1376 l 2,22,23
 384 1376 384 1376 384 1344 c 2,12,-1
EndSplineSet
Validated: 3073
Layer: 2
SplineSet
680 1530 m 25,0,-1
 680 1020 l 29,1,-1
 510 1020 l 29,2,-1
 510 1530 l 25,3,-1
 680 1530 l 25,0,-1
340 1530 m 25,4,-1
 340 1020 l 25,5,-1
 170 1020 l 25,6,-1
 170 1530 l 25,7,-1
 340 1530 l 25,4,-1
EndSplineSet
Validated: 1
Layer: 3
SplineSet
640 1376 m 29,0,-1
 768 1376 l 29,1,-1
 768 992 l 29,2,-1
 640 992 l 29,3,-1
 640 1376 l 29,0,-1
256 1376 m 25,4,-1
 384 1376 l 25,5,-1
 384 992 l 25,6,-1
 256 992 l 25,7,-1
 256 1376 l 25,4,-1
EndSplineSet
Validated: 3073
EndChar

StartChar: numbersign
Encoding: 35 35 6
Width: 1024
VWidth: 0
Flags: MW
LayerCount: 4
Back
Fore
SplineSet
384 800 m 6,0,-1
 384 480 l 2,1,2
 384 448 384 448 416 448 c 2,3,-1
 608 448 l 2,4,5
 640 448 640 448 640 480 c 2,6,-1
 640 800 l 2,7,8
 640 832 640 832 608 832 c 2,9,-1
 416 832 l 2,10,11
 384 832 384 832 384 800 c 6,0,-1
288 1280 m 6,12,-1
 352 1280 l 2,13,14
 384 1280 384 1280 384 1248 c 2,15,-1
 384 992 l 2,16,17
 384 960 384 960 416 960 c 2,18,-1
 608 960 l 2,19,20
 640 960 640 960 640 992 c 2,21,-1
 640 1248 l 2,22,23
 640 1280 640 1280 672 1280 c 2,24,-1
 736 1280 l 2,25,26
 768 1280 768 1280 768 1248 c 2,27,-1
 768 992 l 2,28,29
 768 960 768 960 800 960 c 2,30,-1
 864 960 l 2,31,32
 896 960 896 960 896 928 c 2,33,-1
 896 864 l 2,34,35
 896 832 896 832 864 832 c 2,36,-1
 800 832 l 2,37,38
 768 832 768 832 768 800 c 2,39,-1
 768 480 l 2,40,41
 768 448 768 448 800 448 c 2,42,-1
 864 448 l 2,43,44
 896 448 896 448 896 416 c 2,45,-1
 896 352 l 2,46,47
 896 320 896 320 864 320 c 2,48,-1
 800 320 l 2,49,50
 768 320 768 320 768 288 c 2,51,-1
 768 32 l 2,52,53
 768 0 768 0 736 0 c 2,54,-1
 672 0 l 2,55,56
 640 0 640 0 640 32 c 2,57,-1
 640 288 l 2,58,59
 640 320 640 320 608 320 c 2,60,-1
 416 320 l 2,61,62
 384 320 384 320 384 288 c 2,63,-1
 384 32 l 2,64,65
 384 0 384 0 352 0 c 2,66,-1
 288 0 l 2,67,68
 256 0 256 0 256 32 c 2,69,-1
 256 288 l 2,70,71
 256 320 256 320 224 320 c 2,72,-1
 160 320 l 2,73,74
 128 320 128 320 128 352 c 2,75,-1
 128 416 l 2,76,77
 128 448 128 448 160 448 c 2,78,-1
 224 448 l 2,79,80
 256 448 256 448 256 480 c 2,81,-1
 256 800 l 2,82,83
 256 832 256 832 224 832 c 2,84,-1
 160 832 l 2,85,86
 128 832 128 832 128 864 c 2,87,-1
 128 928 l 2,88,89
 128 960 128 960 160 960 c 2,90,-1
 224 960 l 2,91,92
 256 960 256 960 256 992 c 2,93,-1
 256 1248 l 2,94,95
 256 1280 256 1280 288 1280 c 6,12,-1
EndSplineSet
Validated: 3073
Layer: 2
SplineSet
340 850 m 29,0,-1
 340 510 l 29,1,-1
 510 510 l 29,2,-1
 510 850 l 29,3,-1
 340 850 l 29,0,-1
0 1020 m 29,4,-1
 170 1020 l 29,5,-1
 170 1360 l 29,6,-1
 340 1360 l 29,7,-1
 340 1020 l 29,8,-1
 510 1020 l 29,9,-1
 510 1360 l 29,10,-1
 680 1360 l 29,11,-1
 680 1020 l 29,12,-1
 850 1020 l 29,13,-1
 850 850 l 29,14,-1
 680 850 l 29,15,-1
 680 510 l 29,16,-1
 850 510 l 29,17,-1
 850 340 l 29,18,-1
 680 340 l 29,19,-1
 680 0 l 29,20,-1
 510 0 l 29,21,-1
 510 340 l 29,22,-1
 340 340 l 29,23,-1
 340 0 l 29,24,-1
 170 0 l 29,25,-1
 170 340 l 29,26,-1
 0 340 l 29,27,-1
 0 510 l 29,28,-1
 170 510 l 29,29,-1
 170 850 l 29,30,-1
 0 850 l 29,31,-1
 0 1020 l 29,4,-1
EndSplineSet
Validated: 1
Layer: 3
SplineSet
384 832 m 29,0,-1
 384 448 l 29,1,-1
 640 448 l 29,2,-1
 640 832 l 29,3,-1
 384 832 l 29,0,-1
256 1280 m 29,4,-1
 384 1280 l 29,5,-1
 384 960 l 29,6,-1
 640 960 l 29,7,-1
 640 1280 l 29,8,-1
 768 1280 l 29,9,-1
 768 960 l 29,10,-1
 896 960 l 29,11,-1
 896 832 l 29,12,-1
 768 832 l 29,13,-1
 768 448 l 29,14,-1
 896 448 l 29,15,-1
 896 320 l 29,16,-1
 768 320 l 29,17,-1
 768 0 l 29,18,-1
 640 0 l 29,19,-1
 640 320 l 29,20,-1
 384 320 l 29,21,-1
 384 0 l 29,22,-1
 256 0 l 29,23,-1
 256 320 l 29,24,-1
 128 320 l 29,25,-1
 128 448 l 29,26,-1
 256 448 l 29,27,-1
 256 832 l 29,28,-1
 128 832 l 29,29,-1
 128 960 l 29,30,-1
 256 960 l 29,31,-1
 256 1280 l 29,4,-1
EndSplineSet
Validated: 3073
EndChar

StartChar: dollar
Encoding: 36 36 7
Width: 1024
VWidth: 0
Flags: MWO
LayerCount: 4
Back
Fore
SplineSet
576 704 m 9,0,-1
 576 320 l 17,1,-1
 704 320 l 1,2,-1
 768 384 l 9,3,-1
 768 640 l 17,4,-1
 704 704 l 1,5,-1
 576 704 l 9,0,-1
448 1216 m 25,6,-1
 320 1216 l 17,7,-1
 256 1152 l 1,8,-1
 256 896 l 1,9,-1
 320 832 l 9,10,-1
 448 832 l 25,11,-1
 448 1216 l 25,6,-1
480 1536 m 2,12,-1
 544 1536 l 2,13,14
 576 1536 576 1536 576 1504 c 2,15,-1
 576 1376 l 2,16,17
 576 1344 576 1344 608 1344 c 2,18,-1
 736 1344 l 2,19,20
 768 1344 768 1344 800 1312 c 2,21,-1
 864 1248 l 2,22,23
 896 1216 896 1216 896 1184 c 2,24,-1
 896 1120 l 2,25,26
 896 1088 896 1088 864 1088 c 2,27,-1
 800 1088 l 2,28,29
 768 1088 768 1088 768 1120 c 2,30,-1
 768 1152 l 1,31,-1
 736 1184 l 2,32,33
 704 1216 704 1216 672 1216 c 2,34,-1
 608 1216 l 2,35,36
 576 1216 576 1216 576 1184 c 6,37,-1
 576 832 l 1,38,-1
 768 832 l 1,39,-1
 896 704 l 9,40,-1
 896 320 l 17,41,-1
 768 192 l 1,42,-1
 576 192 l 9,43,-1
 576 0 l 25,44,-1
 448 0 l 25,45,-1
 448 192 l 25,46,-1
 256 192 l 17,47,-1
 128 320 l 1,48,-1
 128 448 l 9,49,-1
 256 448 l 17,50,-1
 256 384 l 1,51,-1
 320 320 l 9,52,-1
 448 320 l 25,53,-1
 448 704 l 17,54,-1
 256 704 l 1,55,-1
 128 832 l 1,56,-1
 128 1184 l 2,57,58
 128 1216 128 1216 160 1248 c 2,59,-1
 224 1312 l 2,60,61
 256 1344 256 1344 288 1344 c 2,62,-1
 416 1344 l 2,63,64
 448 1344 448 1344 448 1376 c 2,65,-1
 448 1504 l 2,66,67
 448 1536 448 1536 480 1536 c 2,12,-1
EndSplineSet
Layer: 2
SplineSet
680 425 m 25,0,-1
 680 595 l 25,1,-1
 595 680 l 25,2,-1
 510 680 l 25,3,-1
 510 340 l 25,4,-1
 595 340 l 25,5,-1
 680 425 l 25,0,-1
172 1111 m 25,6,-1
 172 941 l 25,7,-1
 257 856 l 25,8,-1
 342 856 l 25,9,-1
 342 1196 l 25,10,-1
 257 1196 l 25,11,-1
 172 1111 l 25,6,-1
340 1530 m 25,12,-1
 510 1530 l 25,13,-1
 510 1360 l 25,14,-1
 680 1360 l 25,15,-1
 850 1190 l 25,16,-1
 850 1020 l 25,17,-1
 680 1020 l 25,18,-1
 680 1105 l 25,19,-1
 595 1190 l 25,20,-1
 510 1190 l 25,21,-1
 510 850 l 25,22,-1
 680 850 l 25,23,-1
 850 680 l 25,24,-1
 850 340 l 29,25,-1
 680 170 l 25,26,-1
 510 170 l 25,27,-1
 510 0 l 25,28,-1
 340 0 l 25,29,-1
 340 170 l 25,30,-1
 170 170 l 25,31,-1
 0 340 l 25,32,-1
 0 510 l 25,33,-1
 170 510 l 25,34,-1
 170 425 l 25,35,-1
 255 340 l 25,36,-1
 340 340 l 25,37,-1
 340 680 l 25,38,-1
 170 680 l 25,39,-1
 0 850 l 25,40,-1
 0 1190 l 25,41,-1
 170 1360 l 25,42,-1
 340 1360 l 25,43,-1
 340 1530 l 25,12,-1
EndSplineSet
Validated: 1
Layer: 3
SplineSet
576 320 m 29,0,-1
 704 320 l 25,1,-1
 768 384 l 25,2,-1
 768 640 l 25,3,-1
 704 704 l 25,4,-1
 576 704 l 25,5,-1
 576 320 l 29,0,-1
448 1216 m 25,6,-1
 320 1216 l 25,7,-1
 256 1152 l 25,8,-1
 256 896 l 25,9,-1
 320 832 l 25,10,-1
 448 832 l 25,11,-1
 448 1216 l 25,6,-1
448 1536 m 25,12,-1
 576 1536 l 25,13,-1
 576 1344 l 25,14,-1
 768 1344 l 25,15,-1
 896 1216 l 25,16,-1
 896 1088 l 25,17,-1
 768 1088 l 25,18,-1
 768 1152 l 25,19,-1
 704 1216 l 25,20,-1
 576 1216 l 25,21,-1
 576 832 l 25,22,-1
 768 832 l 25,23,-1
 896 704 l 25,24,-1
 896 320 l 25,25,-1
 768 192 l 25,26,-1
 576 192 l 25,27,-1
 576 0 l 25,28,-1
 448 0 l 25,29,-1
 448 192 l 25,30,-1
 256 192 l 25,31,-1
 128 320 l 25,32,-1
 128 448 l 25,33,-1
 256 448 l 25,34,-1
 256 384 l 25,35,-1
 320 320 l 25,36,-1
 448 320 l 25,37,-1
 448 704 l 25,38,-1
 256 704 l 25,39,-1
 128 832 l 25,40,-1
 128 1216 l 25,41,-1
 256 1344 l 25,42,-1
 448 1344 l 25,43,-1
 448 1536 l 25,12,-1
EndSplineSet
EndChar

StartChar: percent
Encoding: 37 37 8
Width: 1024
VWidth: 0
Flags: MW
LayerCount: 4
Back
Fore
SplineSet
576 224 m 6,0,-1
 576 160 l 6,1,2
 576 128 576 128 608 128 c 6,3,-1
 672 128 l 6,4,5
 704 128 704 128 704 160 c 6,6,-1
 704 224 l 6,7,8
 704 256 704 256 672 256 c 6,9,-1
 608 256 l 6,10,11
 576 256 576 256 576 224 c 6,0,-1
544 384 m 6,12,-1
 736 384 l 6,13,14
 768 384 768 384 800 352 c 132,-1,15
 832 320 832 320 832 288 c 6,16,-1
 832 96 l 6,17,18
 832 64 832 64 800 32 c 132,-1,19
 768 0 768 0 736 0 c 6,20,-1
 544 0 l 6,21,22
 511 0 511 0 480 32 c 4,23,24
 448 64 448 64 448 96 c 6,25,-1
 448 288 l 6,26,27
 448 320 448 320 480 352 c 132,-1,28
 512 384 512 384 544 384 c 6,12,-1
256 1120 m 2,29,-1
 256 1056 l 2,30,31
 256 1024 256 1024 288 1024 c 2,32,-1
 352 1024 l 2,33,34
 384 1024 384 1024 384 1056 c 2,35,-1
 384 1120 l 2,36,37
 384 1152 384 1152 352 1152 c 2,38,-1
 288 1152 l 2,39,40
 256 1152 256 1152 256 1120 c 2,29,-1
224 1280 m 2,41,-1
 416 1280 l 2,42,43
 448 1280 448 1280 480 1248 c 128,-1,44
 512 1216 512 1216 512 1184 c 2,45,-1
 512 992 l 2,46,47
 512 960 512 960 480 928 c 128,-1,48
 448 896 448 896 416 896 c 2,49,-1
 224 896 l 2,50,51
 191 896 191 896 160 928 c 0,52,53
 128 960 128 960 128 992 c 2,54,-1
 128 1184 l 2,55,56
 128 1216 128 1216 160 1248 c 128,-1,57
 192 1280 192 1280 224 1280 c 2,41,-1
817.6 1248 m 2,58,-1
 270.4 32 l 2,59,60
 256 0 256 0 224 0 c 2,61,-1
 160 0 l 2,62,63
 128 0 128 0 142.4 32 c 2,64,-1
 689.6 1248 l 2,65,66
 704 1280 704 1280 736 1280 c 2,67,-1
 800 1280 l 2,68,69
 832 1280 832 1280 817.6 1248 c 2,58,-1
EndSplineSet
Validated: 3073
Layer: 2
SplineSet
680 255 m 25,0,-1
 765 170 l 25,1,-1
 850 255 l 25,2,-1
 765 340 l 25,3,-1
 680 255 l 25,0,-1
510 340 m 25,4,-1
 680 510 l 25,5,-1
 850 510 l 25,6,-1
 1020 340 l 25,7,-1
 1020 170 l 25,8,-1
 850 0 l 25,9,-1
 680 0 l 25,10,-1
 510 170 l 25,11,-1
 510 340 l 25,4,-1
170 1105 m 25,12,-1
 255 1020 l 25,13,-1
 340 1105 l 25,14,-1
 255 1190 l 25,15,-1
 170 1105 l 25,12,-1
0 1190 m 25,16,-1
 170 1360 l 25,17,-1
 340 1360 l 25,18,-1
 510 1190 l 25,19,-1
 510 1020 l 25,20,-1
 340 850 l 25,21,-1
 170 850 l 25,22,-1
 0 1020 l 25,23,-1
 0 1190 l 25,16,-1
680 1360 m 29,24,-1
 850 1360 l 29,25,-1
 340 0 l 29,26,-1
 170 0 l 29,27,-1
 680 1360 l 29,24,-1
EndSplineSet
Validated: 1
Layer: 3
SplineSet
256 0 m 29,0,-1
 832 1280 l 29,1,-1
 704 1280 l 29,2,-1
 128 0 l 29,3,-1
 256 0 l 29,0,-1
576 256 m 25,4,-1
 576 128 l 25,5,-1
 704 128 l 25,6,-1
 704 256 l 25,7,-1
 576 256 l 25,4,-1
448 320 m 25,8,-1
 512 384 l 25,9,-1
 768 384 l 25,10,-1
 832 320 l 25,11,-1
 832 64 l 25,12,-1
 768 0 l 25,13,-1
 512 0 l 25,14,-1
 448 64 l 25,15,-1
 448 320 l 25,8,-1
256 1152 m 25,16,-1
 256 1024 l 25,17,-1
 384 1024 l 25,18,-1
 384 1152 l 25,19,-1
 256 1152 l 25,16,-1
128 1216 m 25,20,-1
 192 1280 l 25,21,-1
 448 1280 l 25,22,-1
 512 1216 l 25,23,-1
 512 960 l 25,24,-1
 448 896 l 25,25,-1
 192 896 l 25,26,-1
 128 960 l 25,27,-1
 128 1216 l 25,20,-1
EndSplineSet
Validated: 3081
EndChar

StartChar: ampersand
Encoding: 38 38 9
Width: 1024
VWidth: 0
Flags: MW
LayerCount: 4
Back
Fore
SplineSet
288 128 m 2,0,-1
 448 128 l 2,1,2
 512 128 512 128 576 192 c 128,-1,3
 640 256 640 256 640 320 c 128,-1,4
 640 384 640 384 576 448 c 2,5,-1
 480 544 l 1,6,7
 448 576 448 576 416 576 c 2,8,-1
 352 576 l 2,9,10
 320 576 320 576 288 544 c 2,11,-1
 224 480 l 2,12,13
 192 448 192 448 192 416 c 2,14,-1
 192 224 l 2,15,16
 192 192 192 192 224 160 c 128,-1,17
 256 128 256 128 288 128 c 2,0,-1
256 1056 m 2,18,-1
 256 960 l 2,19,20
 256 896 256 896 320 832 c 2,21,-1
 352 800 l 2,22,23
 384 768 384 768 416 768 c 128,-1,24
 448 768 448 768 480 800 c 2,25,-1
 512 832 l 2,26,27
 576 896 576 896 576 960 c 2,28,-1
 576 1056 l 2,29,30
 576 1088 576 1088 544 1120 c 128,-1,31
 512 1152 512 1152 480 1152 c 2,32,-1
 352 1152 l 2,33,34
 320 1152 320 1152 288 1120 c 128,-1,35
 256 1088 256 1088 256 1056 c 2,18,-1
320 1280 m 2,36,-1
 512 1280 l 2,37,38
 576 1280 576 1280 640 1216 c 128,-1,39
 704 1152 704 1152 704 1088 c 2,40,-1
 704 896 l 2,41,42
 704 832 704 832 640 768 c 2,43,-1
 576 704 l 2,44,45
 544 672 544 672 576 640 c 2,46,-1
 672 544 l 2,47,48
 704 512 704 512 736 544 c 2,49,-1
 800 608 l 2,50,51
 832 640 832 640 864 640 c 128,-1,52
 896 640 896 640 896 608 c 2,53,-1
 896 544 l 2,54,55
 896 512 896 512 864 480 c 2,56,-1
 800 416 l 2,57,58
 768 384 768 384 768 352 c 2,59,-1
 768 288 l 2,60,61
 768 256 768 256 800 224 c 2,62,-1
 864 160 l 2,63,64
 896 128 896 128 896 96 c 2,65,-1
 896 32 l 2,66,67
 896 0 896 0 864 0 c 128,-1,68
 832 0 832 0 800 32 c 2,69,-1
 768 64 l 26,70,71
 704 128 704 128 640 64 c 128,-1,72
 576 0 576 0 512 0 c 6,73,-1
 256 0 l 2,74,75
 192 0 192 0 128 64 c 128,-1,76
 64 128 64 128 64 192 c 2,77,-1
 64 448 l 2,78,79
 64 512 64 512 128 576 c 2,80,-1
 192 640 l 26,81,82
 256 704 256 704 192 768 c 128,-1,83
 128 832 128 832 128 896 c 2,84,-1
 128 1088 l 2,85,86
 128 1152 128 1152 192 1216 c 128,-1,87
 256 1280 256 1280 320 1280 c 2,36,-1
EndSplineSet
Validated: 3105
Layer: 2
SplineSet
425 170 m 25,0,-1
 510 255 l 25,1,-1
 510 425 l 25,2,-1
 425 510 l 25,3,-1
 255 510 l 25,4,-1
 170 425 l 1,5,-1
 170 255 l 25,6,-1
 255 170 l 1,7,-1
 425 170 l 25,0,-1
340 1105 m 25,8,-1
 340 935 l 25,9,-1
 425 850 l 25,10,-1
 510 935 l 25,11,-1
 510 1105 l 25,12,-1
 425 1190 l 29,13,-1
 340 1105 l 25,8,-1
340 1360 m 25,14,-1
 510 1360 l 25,15,-1
 680 1190 l 25,16,-1
 680 850 l 25,17,-1
 510 680 l 25,18,-1
 680 510 l 25,19,-1
 680 680 l 25,20,-1
 850 680 l 25,21,-1
 850 510 l 25,22,-1
 680 340 l 25,23,-1
 850 170 l 25,24,-1
 850 0 l 25,25,-1
 680 0 l 25,26,-1
 680 170 l 25,27,-1
 510 0 l 25,28,-1
 170 0 l 25,29,-1
 0 170 l 25,30,-1
 0 510 l 25,31,-1
 170 680 l 25,32,-1
 340 680 l 25,33,-1
 170 850 l 25,34,-1
 170 1190 l 25,35,-1
 340 1360 l 25,14,-1
EndSplineSet
Validated: 1
Layer: 3
SplineSet
320 576 m 29,0,-1
 192 448 l 29,1,-1
 192 192 l 29,2,-1
 256 128 l 29,3,-1
 512 128 l 29,4,-1
 640 256 l 29,5,-1
 640 384 l 29,6,-1
 448 576 l 29,7,-1
 320 576 l 29,0,-1
512 1152 m 25,8,-1
 320 1152 l 25,9,-1
 256 1088 l 25,10,-1
 256 896 l 25,11,-1
 384 768 l 25,12,-1
 448 768 l 25,13,-1
 576 896 l 25,14,-1
 576 1088 l 25,15,-1
 512 1152 l 25,8,-1
128 1152 m 29,16,-1
 256 1280 l 29,17,-1
 576 1280 l 29,18,-1
 704 1152 l 29,19,-1
 704 832 l 29,20,-1
 544 672 l 29,21,-1
 704 512 l 29,22,-1
 832 640 l 29,23,-1
 896 640 l 29,24,-1
 896 512 l 29,25,-1
 768 384 l 29,26,-1
 768 256 l 29,27,-1
 896 128 l 29,28,-1
 896 0 l 29,29,-1
 832 0 l 29,30,-1
 704 128 l 29,31,-1
 576 0 l 29,32,-1
 192 0 l 29,33,-1
 64 128 l 29,34,-1
 64 512 l 29,35,-1
 192 640 l 29,36,-1
 256 640 l 29,37,-1
 256 704 l 29,38,-1
 128 832 l 29,39,-1
 128 1152 l 29,16,-1
EndSplineSet
Comment: "This one needs to be prettyfied.  I was having issues with it, so I'm going to come back to it."
EndChar

StartChar: quotesingle
Encoding: 39 39 10
Width: 1024
VWidth: 0
Flags: MW
LayerCount: 4
Back
Fore
SplineSet
545 1376 m 6,0,1
 577 1376 577 1376 577 1344 c 30,2,-1
 577 1024 l 6,3,4
 577 992 577 992 545 992 c 6,5,-1
 481 992 l 6,6,7
 449 992 449 992 449 1024 c 30,8,-1
 449 1344 l 6,9,10
 449 1376 449 1376 481 1376 c 30,11,-1
 545 1376 l 6,0,1
EndSplineSet
Validated: 3073
Layer: 2
SplineSet
510 1530 m 29,0,-1
 510 1020 l 25,1,-1
 340 1020 l 25,2,-1
 340 1530 l 29,3,-1
 510 1530 l 29,0,-1
EndSplineSet
Validated: 1
Layer: 3
SplineSet
448 1376 m 29,0,-1
 576 1376 l 29,1,-1
 576 992 l 29,2,-1
 448 992 l 29,3,-1
 448 1376 l 29,0,-1
EndSplineSet
Validated: 3073
EndChar

StartChar: parenleft
Encoding: 40 40 11
Width: 1024
VWidth: 0
Flags: MW
LayerCount: 4
Back
Fore
SplineSet
705 1248 m 156,-1,1
 705 1216 705 1216 673 1184 c 6,2,-1
 545 1056 l 30,3,4
 513 1024 513 1024 497 992 c 6,5,-1
 465 928 l 6,6,7
 449 896 449 896 449 864 c 6,8,-1
 449 416 l 6,9,10
 449 384 449 384 465 352 c 6,11,-1
 497 288 l 6,12,13
 513 256 513 256 545 224 c 30,14,-1
 673 96 l 30,15,16
 705 64 705 64 705 32 c 156,-1,17
 705 0 705 0 673 0 c 156,-1,18
 641 0 641 0 609 32 c 30,19,-1
 481 160 l 30,20,21
 449 192 449 192 432.75 224 c 6,22,-1
 400.25 288 l 6,23,24
 384 320 384 320 377.7 352 c 6,25,-1
 327.3 608 l 6,26,27
 321 640 321 640 327.3 672 c 6,28,-1
 377.7 928 l 6,29,30
 384 960 384 960 400.25 992 c 6,31,-1
 432.75 1056 l 6,32,33
 449 1088 449 1088 481 1120 c 30,34,-1
 609 1248 l 30,35,36
 641 1280 641 1280 673 1280 c 156,-1,0
 705 1280 705 1280 705 1248 c 156,-1,1
EndSplineSet
Validated: 3073
Layer: 2
SplineSet
680 1360 m 25,0,-1
 340 1020 l 25,1,-1
 340 340 l 25,2,-1
 680 0 l 25,3,-1
 510 0 l 25,4,-1
 255 255 l 29,5,-1
 255 1105 l 25,6,-1
 510 1360 l 25,7,-1
 680 1360 l 25,0,-1
EndSplineSet
Validated: 1
Layer: 3
SplineSet
608 0 m 29,0,-1
 352 320 l 29,1,-1
 352 960 l 29,2,-1
 608 1280 l 29,3,-1
 704 1184 l 29,4,-1
 480 896 l 29,5,-1
 480 384 l 29,6,-1
 704 64 l 29,7,-1
 608 0 l 29,0,-1
EndSplineSet
Comment: "Needs to be less Fucky.."
EndChar

StartChar: parenright
Encoding: 41 41 12
Width: 1024
VWidth: 0
Flags: MW
LayerCount: 4
Back
Fore
SplineSet
327 32 m 156,-1,1
 327 64 327 64 359 96 c 6,2,-1
 487 224 l 30,3,4
 519 256 519 256 535 288 c 6,5,-1
 567 352 l 6,6,7
 583 384 583 384 583 416 c 6,8,-1
 583 864 l 6,9,10
 583 896 583 896 567 928 c 6,11,-1
 535 992 l 6,12,13
 519 1024 519 1024 487 1056 c 30,14,-1
 359 1184 l 30,15,16
 327 1216 327 1216 327 1248 c 156,-1,17
 327 1280 327 1280 359 1280 c 156,-1,18
 391 1280 391 1280 423 1248 c 30,19,-1
 551 1120 l 30,20,21
 583 1088 583 1088 600 1056 c 6,22,-1
 632 992 l 6,23,24
 648 960 648 960 655 928 c 6,25,-1
 705 672 l 6,26,27
 711 640 711 640 705 608 c 6,28,-1
 655 352 l 6,29,30
 649 320 649 320 632 288 c 6,31,-1
 600 224 l 6,32,33
 584 192 584 192 551 160 c 30,34,-1
 423 32 l 30,35,36
 391 0 391 0 359 0 c 156,-1,0
 327 0 327 0 327 32 c 156,-1,1
EndSplineSet
Validated: 3073
Layer: 2
SplineSet
255 0 m 29,0,-1
 595 340 l 25,1,-1
 595 1020 l 25,2,-1
 255 1360 l 25,3,-1
 425 1360 l 25,4,-1
 680 1105 l 25,5,-1
 680 255 l 25,6,-1
 425 0 l 25,7,-1
 255 0 l 29,0,-1
EndSplineSet
Validated: 1
Layer: 3
SplineSet
448 1280 m 29,0,-1
 704 960 l 29,1,-1
 704 320 l 29,2,-1
 448 0 l 29,3,-1
 352 96 l 29,4,-1
 576 384 l 29,5,-1
 576 896 l 29,6,-1
 352 1216 l 29,7,-1
 448 1280 l 29,0,-1
EndSplineSet
Comment: "Needs to be less Fucky.."
EndChar

StartChar: asterisk
Encoding: 42 42 13
Width: 1024
VWidth: 0
Flags: MW
LayerCount: 4
Back
Fore
SplineSet
824 224 m 25,0,-1
 939 352 l 25,1,-1
 702 561 l 25,2,-1
 1024 576 l 25,3,-1
 994 800 l 25,4,-1
 858 768 l 1053,5,-1
1005 607 m 2,6,7
 1005 575 1005 575 973 575 c 26,8,-1
 53 575 l 2,9,10
 21 575 21 575 21 607 c 2,11,-1
 21 671 l 2,12,13
 21 703 21 703 53 703 c 26,14,-1
 973 703 l 2,15,16
 1005 703 1005 703 1005 671 c 26,17,-1
 1005 607 l 2,6,7
884 964 m 2,18,19
 907 941 907 941 884 919 c 18,20,-1
 515 550 l 1,21,-1
 233 268 l 2,22,23
 210 245 210 245 188 268 c 2,24,-1
 142 314 l 2,25,26
 119 337 119 337 142 359 c 26,27,-1
 793 1010 l 2,28,29
 816 1033 816 1033 838 1010 c 26,30,-1
 884 964 l 2,18,19
188 1010 m 2,31,32
 211 1033 211 1033 233 1010 c 26,33,-1
 884 359 l 2,34,35
 907 336 907 336 884 314 c 2,36,-1
 838 268 l 2,37,38
 815 245 815 245 793 268 c 26,39,-1
 142 919 l 2,40,41
 119 942 119 942 142 964 c 26,42,-1
 188 1010 l 2,31,32
EndSplineSet
Validated: 3083
Layer: 2
SplineSet
346 680 m 25,0,-1
 176 850 l 25,1,-1
 346 850 l 25,2,-1
 516 680 l 29,3,-1
 686 850 l 25,4,-1
 856 850 l 25,5,-1
 686 680 l 25,6,-1
 856 680 l 25,7,-1
 856 510 l 25,8,-1
 686 510 l 25,9,-1
 856 340 l 25,10,-1
 686 340 l 25,11,-1
 516 510 l 25,12,-1
 346 340 l 25,13,-1
 176 340 l 25,14,-1
 346 510 l 25,15,-1
 176 510 l 25,16,-1
 176 680 l 25,17,-1
 346 680 l 25,0,-1
EndSplineSet
Validated: 1
Layer: 3
SplineSet
416 704 m 25,0,-1
 160 1024 l 25,1,-1
 352 1024 l 25,2,-1
 512 800 l 25,3,-1
 672 1024 l 25,4,-1
 864 1024 l 25,5,-1
 608 704 l 25,6,-1
 928 704 l 25,7,-1
 928 576 l 25,8,-1
 608 576 l 25,9,-1
 864 256 l 25,10,-1
 672 256 l 25,11,-1
 512 480 l 29,12,-1
 352 256 l 25,13,-1
 160 256 l 25,14,-1
 416 576 l 25,15,-1
 96 576 l 25,16,-1
 96 704 l 25,17,-1
 416 704 l 25,0,-1
EndSplineSet
Comment: "Needs to be more +ACIA-Pointy+ACIA in the center."
EndChar

StartChar: plus
Encoding: 43 43 14
Width: 1024
VWidth: 0
Flags: MW
LayerCount: 4
Back
Fore
SplineSet
449 992 m 6,0,1
 449 1024 449 1024 481 1024 c 30,2,3
 545 1024 l 6,4,5
 577 1024 577 1024 577 992 c 30,6,-1
 577 736 l 6,7,8
 577 704 577 704 609 704 c 30,9,10
 865 704 l 6,11,12
 897 704 897 704 897 672 c 30,13,14
 897 608 l 6,15,16
 897 576 897 576 865 576 c 30,17,-1
 609 576 l 6,18,19
 577 576 577 576 577 544 c 30,20,-1
 577 288 l 6,21,22
 577 256 577 256 545 256 c 30,23,24
 481 256 l 6,25,26
 449 256 449 256 449 288 c 30,27,-1
 449 544 l 6,28,29
 449 576 449 576 416 576 c 30,30,-1
 160 576 l 6,31,32
 128 576 128 576 128 608 c 30,33,34
 128 672 l 6,35,36
 128 704 128 704 160 704 c 30,37,-1
 416 704 l 6,38,39
 449 704 449 704 449 736 c 30,40,-1
 449 992 l 6,0,1
EndSplineSet
Validated: 3073
Layer: 2
SplineSet
340 1020 m 25,0,-1
 510 1020 l 25,1,-1
 510 680 l 25,2,-1
 850 680 l 25,3,-1
 850 510 l 29,4,-1
 510 510 l 25,5,-1
 510 170 l 25,6,-1
 340 170 l 25,7,-1
 340 510 l 25,8,-1
 0 510 l 25,9,-1
 0 680 l 25,10,-1
 340 680 l 25,11,-1
 340 1020 l 25,0,-1
EndSplineSet
Validated: 1
Layer: 3
SplineSet
448 1024 m 29,0,-1
 576 1024 l 25,1,-1
 576 704 l 25,2,-1
 896 704 l 25,3,-1
 896 576 l 25,4,-1
 576 576 l 25,5,-1
 576 256 l 25,6,-1
 448 256 l 25,7,-1
 448 576 l 25,8,-1
 128 576 l 25,9,-1
 128 704 l 25,10,-1
 448 704 l 25,11,-1
 448 1024 l 29,0,-1
EndSplineSet
Validated: 3073
EndChar

StartChar: comma
Encoding: 44 44 15
Width: 1024
VWidth: 0
Flags: MW
LayerCount: 4
Back
Fore
SplineSet
545 256 m 2,0,1
 577 256 577 256 577 224 c 2,2,-1
 577 64 l 2,3,4
 577 32 577 32 545 0 c 2,5,-1
 449 -96 l 2,6,7
 417 -128 417 -128 384 -128 c 2,8,-1
 352 -128 l 2,9,10
 320 -128 320 -128 352 -96 c 128,-1,11
 384 -64 384 -64 400.25 -32 c 2,12,-1
 432.75 32 l 2,13,14
 449 64 449 64 449 96 c 6,15,-1
 449 224 l 2,16,17
 449 256 449 256 481 256 c 2,18,-1
 545 256 l 2,0,1
EndSplineSet
Validated: 3073
Layer: 2
SplineSet
340 340 m 25,0,-1
 510 340 l 25,1,-1
 510 0 l 25,2,-1
 340 -170 l 29,3,-1
 170 -170 l 25,4,-1
 340 85 l 25,5,-1
 340 340 l 25,0,-1
EndSplineSet
Validated: 1
Layer: 3
SplineSet
576 256 m 29,0,-1
 576 0 l 29,1,-1
 448 -128 l 29,2,-1
 320 -128 l 29,3,-1
 320 -64 l 29,4,-1
 448 64 l 29,5,-1
 448 256 l 29,6,-1
 576 256 l 29,0,-1
EndSplineSet
Validated: 3073
Comment: "Meh.."
EndChar

StartChar: hyphen
Encoding: 45 45 16
Width: 1024
VWidth: 0
Flags: MW
LayerCount: 4
Back
Fore
SplineSet
160 704 m 30,0,1
 865 704 l 30,2,3
 897 704 897 704 897 672 c 30,4,-1
 897 608 l 30,5,6
 897 576 897 576 865 576 c 30,7,8
 160 576 l 30,9,10
 128 576 128 576 128 608 c 30,11,-1
 128 672 l 30,12,13
 128 704 128 704 160 704 c 30,0,1
EndSplineSet
Validated: 3073
Layer: 2
SplineSet
0 680 m 29,0,-1
 850 680 l 25,1,-1
 850 510 l 25,2,-1
 0 510 l 25,3,-1
 0 680 l 29,0,-1
EndSplineSet
Validated: 1
Layer: 3
SplineSet
128 704 m 29,0,-1
 896 704 l 29,1,-1
 896 576 l 29,2,-1
 128 576 l 29,3,-1
 128 704 l 29,0,-1
EndSplineSet
Validated: 3073
EndChar

StartChar: period
Encoding: 46 46 17
Width: 1024
VWidth: 0
Flags: MW
LayerCount: 4
Back
Fore
SplineSet
512 127 m 28,0,1
 575 63.5 l 28,2,-1
 512 0 l 28,3,-1
 449 63.5 l 28,4,-1
 512 127 l 28,0,1
EndSplineSet
Validated: 3073
Layer: 2
SplineSet
510 340 m 29,0,-1
 510 0 l 29,1,-1
 340 0 l 29,2,-1
 340 340 l 29,3,-1
 510 340 l 29,0,-1
EndSplineSet
Validated: 1
Layer: 3
SplineSet
448 256 m 29,0,-1
 576 256 l 29,1,-1
 576 0 l 25,2,-1
 448 0 l 25,3,-1
 448 256 l 29,0,-1
EndSplineSet
Validated: 3073
Comment: "When I think of a +ACIA-Period+ACIA, I think of it as being a dot, and when I say +ACIA-Dot+ACIA I mean as a square.  The default style of the period in Terminus is more so like a rectangle rather than a square.  So with that being said I have modified the period to look more +ACIA-Period+ACIA like and transformed it into a square.+AAoACgAA-There also appears to be a problem with this character.  Apparently the +ACIA-Advanced Width+ACIA needs to be 500 if I remember what it said correctly.+AAoACgAA-Actually apparently they all have that problem.  (I'm assuming just because I checked the previous one.  Makes sence though)"
Colour: ff8000
EndChar

StartChar: slash
Encoding: 47 47 18
Width: 1024
VWidth: 0
Flags: MW
LayerCount: 4
Back
Fore
SplineSet
833 1280 m 6,0,1
 864.394736842 1280 864.394736842 1280 850 1248 c 6,2,-1
 303 32 l 6,3,4
 289 0 289 0 256 0 c 6,5,-1
 192 0 l 6,6,7
 160 0 160 0 174 32 c 6,8,-1
 721 1248 l 6,9,10
 735 1280 735 1280 769 1280 c 6,11,-1
 833 1280 l 6,0,1
EndSplineSet
Validated: 3073
Layer: 2
SplineSet
680 1360 m 29,0,-1
 850 1360 l 29,1,-1
 340 0 l 29,2,-1
 170 0 l 29,3,-1
 680 1360 l 29,0,-1
EndSplineSet
Validated: 1
Layer: 3
SplineSet
256 0 m 29,0,-1
 832 1280 l 29,1,-1
 704 1280 l 29,2,-1
 128 0 l 29,3,-1
 256 0 l 29,0,-1
EndSplineSet
Validated: 3081
Comment: "Mostly happy with the results."
EndChar

StartChar: zero
Encoding: 48 48 19
Width: 1024
VWidth: 0
Flags: MW
LayerCount: 4
Back
Fore
SplineSet
769 192 m 26,0,-1
 769 736 l 2,1,2
 769 768 769 768 737 740.054580897 c 2,3,-1
 288 347.945419103 l 2,4,5
 256 320 256 320 256 288 c 2,6,-1
 256 192 l 26,7,8
 256 128 256 128 320 128 c 28,9,10
 705 128 l 28,11,12
 769 128 769 128 769 192 c 26,0,-1
256 1088 m 26,13,-1
 256 544 l 2,14,15
 256 512 256 512 288 539.945419103 c 2,16,-1
 737 932.054580897 l 2,17,18
 769 960 769 960 769 992 c 2,19,-1
 769 1088 l 26,20,21
 769 1152 769 1152 705 1152 c 28,22,23
 320 1152 l 28,24,25
 256 1152 256 1152 256 1088 c 26,13,-1
128 1152 m 26,26,27
 128 1280 128 1280 256 1280 c 28,28,29
 769 1280 l 28,30,31
 897 1280 897 1280 897 1152 c 26,32,-1
 897 128 l 26,33,34
 897 0 897 0 769 0 c 28,35,36
 256 0 l 28,37,38
 128 0 128 0 128 128 c 26,39,-1
 128 1152 l 26,26,27
EndSplineSet
Validated: 3073
Layer: 2
SplineSet
680 255 m 25,0,-1
 680 765 l 29,1,-1
 170 340 l 25,2,-1
 170 255 l 25,3,-1
 255 170 l 25,4,-1
 595 170 l 25,5,-1
 680 255 l 25,0,-1
170 1105 m 25,6,-1
 170 595 l 25,7,-1
 680 1020 l 25,8,-1
 680 1105 l 25,9,-1
 595 1190 l 25,10,-1
 255 1190 l 25,11,-1
 170 1105 l 25,6,-1
0 1190 m 25,12,-1
 170 1360 l 25,13,-1
 680 1360 l 25,14,-1
 850 1190 l 25,15,-1
 850 170 l 25,16,-1
 680 0 l 25,17,-1
 170 0 l 25,18,-1
 0 170 l 25,19,-1
 0 1190 l 25,12,-1
EndSplineSet
Validated: 1
Layer: 3
SplineSet
768 192 m 29,0,-1
 768 768 l 29,1,-1
 256 320 l 29,2,-1
 256 192 l 29,3,-1
 320 128 l 29,4,-1
 704 128 l 29,5,-1
 768 192 l 29,0,-1
256 1088 m 29,6,-1
 256 512 l 29,7,-1
 768 960 l 29,8,-1
 768 1088 l 29,9,-1
 704 1152 l 29,10,-1
 320 1152 l 29,11,-1
 256 1088 l 29,6,-1
128 1152 m 29,12,-1
 256 1280 l 29,13,-1
 768 1280 l 29,14,-1
 896 1152 l 29,15,-1
 896 128 l 29,16,-1
 768 0 l 29,17,-1
 256 0 l 29,18,-1
 128 128 l 29,19,-1
 128 1152 l 29,12,-1
EndSplineSet
Comment: "Does it look stupid in middle?"
EndChar

StartChar: one
Encoding: 49 49 20
Width: 1024
VWidth: 0
Flags: MW
LayerCount: 4
Back
Fore
SplineSet
449 1280 m 25,0,-1
 577 1280 l 25,1,-1
 577 128 l 25,2,-1
 769 128 l 25,3,-1
 769 0 l 29,4,-1
 256 0 l 25,5,-1
 256 128 l 25,6,-1
 449 128 l 25,7,-1
 449 1024 l 25,8,-1
 384 960 l 25,9,-1
 256 960 l 25,10,-1
 449 1280 l 25,0,-1
EndSplineSet
Validated: 3073
Layer: 2
SplineSet
170 1190 m 25,0,-1
 340 1360 l 25,1,-1
 510 1360 l 25,2,-1
 510 170 l 25,3,-1
 680 170 l 29,4,-1
 680 0 l 25,5,-1
 170 0 l 25,6,-1
 170 170 l 25,7,-1
 340 170 l 25,8,-1
 340 1020 l 25,9,-1
 170 1020 l 25,10,-1
 170 1190 l 25,0,-1
EndSplineSet
Validated: 1
Layer: 3
SplineSet
576 1280 m 9,0,-1
 576 128 l 25,1,-1
 768 128 l 25,2,-1
 768 0 l 25,3,-1
 256 0 l 25,4,-1
 256 128 l 25,5,-1
 448 128 l 1,6,-1
 448 1024 l 1,7,-1
 416 1024 l 1,8,-1
 352 960 l 1,9,-1
 256 960 l 5,10,-1
 256 1056 l 1,11,-1
 448 1248 l 1,12,-1
 448 1280 l 1,13,-1
 576 1280 l 9,0,-1
EndSplineSet
EndChar

StartChar: two
Encoding: 50 50 21
Width: 1024
VWidth: 0
Flags: MW
LayerCount: 4
Back
Fore
SplineSet
128 1280 m 1,0,1
 897 1280 l 25,2,-1
 897 704 l 29,3,-1
 320 128 l 25,4,-1
 897 128 l 25,5,-1
 897 0 l 25,6,-1
 128 0 l 1,7,-1
 128 192 l 25,8,-1
 769 768 l 25,9,-1
 769 1152 l 25,10,-1
 256 1152 l 1,11,-1
 256 832 l 1,12,-1
 128 832 l 1,13,-1
 128 1280 l 1,0,1
EndSplineSet
Validated: 3073
Layer: 2
SplineSet
0 1190 m 25,0,-1
 170 1360 l 25,1,-1
 680 1360 l 25,2,-1
 850 1190 l 29,3,-1
 850 765 l 17,4,-1
 255 170 l 9,5,-1
 850 170 l 25,6,-1
 850 0 l 25,7,-1
 0 0 l 25,8,-1
 0 170 l 25,9,-1
 680 850 l 25,10,-1
 680 1105 l 25,11,-1
 595 1190 l 25,12,-1
 255 1190 l 25,13,-1
 170 1105 l 25,14,-1
 170 850 l 25,15,-1
 0 850 l 25,16,-1
 0 1190 l 25,0,-1
EndSplineSet
Validated: 1
Layer: 3
SplineSet
896 128 m 25,0,-1
 896 0 l 25,1,-1
 128 0 l 25,2,-1
 128 160 l 29,3,-1
 768 800 l 25,4,-1
 768 1088 l 25,5,-1
 704 1152 l 25,6,-1
 320 1152 l 25,7,-1
 256 1088 l 25,8,-1
 256 832 l 25,9,-1
 128 832 l 25,10,-1
 128 1152 l 25,11,-1
 256 1280 l 25,12,-1
 768 1280 l 25,13,-1
 896 1152 l 25,14,-1
 896 736 l 25,15,-1
 288 128 l 25,16,-1
 896 128 l 25,0,-1
EndSplineSet
Comment: "Not liking how the one bottom curve is coming out.  If you can't see it, then it doesn't bother you.  :)"
EndChar

StartChar: three
Encoding: 51 51 22
Width: 1024
VWidth: 0
Flags: MW
LayerCount: 4
Back
Fore
SplineSet
128 960 m 1,0,-1
 128 1280 l 25,1,2
 897 1280 l 5,3,-1
 897 0 l 1,4,-1
 128 0 l 1,5,-1
 128 320 l 1,6,-1
 256 320 l 1,7,-1
 256 128 l 1,8,-1
 769 128 l 1,9,-1
 769 576 l 1,10,-1
 320 576 l 1,11,-1
 320 704 l 1,12,-1
 769 704 l 1,13,-1
 769 1152 l 1,14,-1
 256 1152 l 25,15,-1
 256 960 l 1,16,-1
 128 960 l 1,0,-1
EndSplineSet
Validated: 3073
Layer: 2
SplineSet
0 1190 m 25,0,-1
 170 1360 l 25,1,-1
 680 1360 l 25,2,-1
 850 1190 l 25,3,-1
 850 850 l 25,4,-1
 765 850 l 25,5,-1
 765 680 l 25,6,-1
 850 680 l 25,7,-1
 850 170 l 25,8,-1
 680 0 l 25,9,-1
 170 0 l 25,10,-1
 0 170 l 25,11,-1
 0 340 l 25,12,-1
 170 340 l 29,13,-1
 170 255 l 29,14,-1
 255 170 l 25,15,-1
 595 170 l 25,16,-1
 680 255 l 25,17,-1
 680 595 l 25,18,-1
 595 680 l 25,19,-1
 340 680 l 25,20,-1
 340 850 l 25,21,-1
 595 850 l 25,22,-1
 680 935 l 25,23,-1
 680 1105 l 25,24,-1
 595 1190 l 25,25,-1
 255 1190 l 25,26,-1
 170 1105 l 25,27,-1
 170 1020 l 25,28,-1
 0 1020 l 25,29,-1
 0 1190 l 25,0,-1
EndSplineSet
Validated: 1
Layer: 3
SplineSet
704 576 m 25,0,-1
 768 512 l 1,1,-1
 768 192 l 25,2,-1
 704 128 l 25,3,-1
 320 128 l 25,4,-1
 256 192 l 25,5,-1
 256 320 l 25,6,-1
 128 320 l 1,7,-1
 128 128 l 1,8,-1
 256 0 l 25,9,-1
 768 0 l 25,10,-1
 896 128 l 17,11,-1
 896 576 l 1,12,-1
 832 576 l 5,13,-1
 832 704 l 1,14,-1
 896 704 l 1,15,-1
 896 1152 l 9,16,-1
 768 1280 l 25,17,-1
 256 1280 l 25,18,-1
 128 1152 l 1,19,-1
 128 960 l 1,20,-1
 256 960 l 1,21,-1
 256 1088 l 1,22,-1
 320 1152 l 25,23,-1
 704 1152 l 25,24,-1
 768 1088 l 1,25,-1
 768 768 l 1,26,-1
 703 704 l 1,27,-1
 320 704 l 9,28,-1
 320 576 l 25,29,-1
 704 576 l 25,0,-1
EndSplineSet
EndChar

StartChar: four
Encoding: 52 52 23
Width: 1024
VWidth: 0
Flags: MW
LayerCount: 4
Back
Fore
SplineSet
769 448 m 1,0,-1
 769 1024 l 1,1,-1
 256 576 l 5,2,-1
 256 448 l 1,3,-1
 769 448 l 1,0,-1
897 0 m 1,4,-1
 769 0 l 1,5,-1
 769 320 l 1,6,-1
 128 320 l 1,7,-1
 128 640 l 1,8,-1
 769 1280 l 1,9,-1
 897 1280 l 25,10,-1
 897 0 l 1,4,-1
EndSplineSet
Validated: 3073
Layer: 2
SplineSet
680 1020 m 25,0,-1
 170 510 l 29,1,-1
 680 510 l 25,2,-1
 680 1020 l 25,0,-1
850 1360 m 25,3,-1
 850 0 l 25,4,-1
 680 0 l 25,5,-1
 680 340 l 25,6,-1
 0 340 l 25,7,-1
 0 510 l 25,8,-1
 680 1190 l 25,9,-1
 680 1360 l 25,10,-1
 850 1360 l 25,3,-1
EndSplineSet
Validated: 1
Layer: 3
SplineSet
768 448 m 25,0,-1
 256 448 l 25,1,-1
 256 576 l 25,2,-1
 768 1088 l 29,3,-1
 768 448 l 25,0,-1
896 0 m 25,4,-1
 896 1280 l 25,5,-1
 768 1280 l 25,6,-1
 128 640 l 25,7,-1
 128 320 l 25,8,-1
 768 320 l 25,9,-1
 768 0 l 25,10,-1
 896 0 l 25,4,-1
EndSplineSet
EndChar

StartChar: five
Encoding: 53 53 24
Width: 1024
VWidth: 0
Flags: MW
LayerCount: 4
Back
Fore
SplineSet
128 1280 m 1,0,-1
 897 1280 l 1,1,-1
 897 1152 l 1,2,-1
 256 1152 l 1,3,-1
 256 768 l 1,4,-1
 897 768 l 25,5,-1
 897 0 l 1,6,-1
 128 0 l 1,7,-1
 128 256 l 29,8,-1
 256 256 l 1,9,-1
 256 128 l 1,10,-1
 769 128 l 1,11,-1
 769 640 l 1,12,-1
 128 640 l 1,13,-1
 128 1280 l 1,0,-1
EndSplineSet
Validated: 3073
Layer: 2
SplineSet
0 1360 m 25,0,-1
 850 1360 l 25,1,-1
 850 1190 l 25,2,-1
 170 1190 l 25,3,-1
 170 850 l 25,4,-1
 680 850 l 25,5,-1
 850 680 l 25,6,-1
 850 170 l 25,7,-1
 680 0 l 25,8,-1
 170 0 l 25,9,-1
 0 170 l 25,10,-1
 0 340 l 25,11,-1
 170 340 l 25,12,-1
 170 255 l 25,13,-1
 170 170 l 25,14,-1
 595 170 l 25,15,-1
 680 255 l 25,16,-1
 680 595 l 25,17,-1
 595 680 l 25,18,-1
 0 680 l 29,19,-1
 0 1360 l 25,0,-1
EndSplineSet
Validated: 1
Layer: 3
SplineSet
896 1280 m 29,0,-1
 896 1152 l 25,1,-1
 256 1152 l 25,2,-1
 256 768 l 25,3,-1
 768 768 l 25,4,-1
 896 640 l 25,5,-1
 896 128 l 25,6,-1
 768 0 l 25,7,-1
 256 0 l 25,8,-1
 128 128 l 25,9,-1
 128 256 l 25,10,-1
 256 256 l 25,11,-1
 256 192 l 25,12,-1
 320 128 l 25,13,-1
 736 128 l 25,14,-1
 768 160 l 25,15,-1
 768 576 l 25,16,-1
 704 640 l 25,17,-1
 128 640 l 25,18,-1
 128 1280 l 25,19,-1
 896 1280 l 29,0,-1
EndSplineSet
Comment: "The bottom left of the five looks a bit fat to me.  Notice how that some of the curves are 32 pixels apart and others 64.  I'm comfidient with my decision in have it be 32 pixels for all cases such as the top right of the 5, but for the top left, I'm not sure if I'm confidient in choosing 32 or 64.  I looked at the previous numbers as a reference, but none have really been like this.  But when I think about it the bottom on the number two may help with my final decision..  Yes both the two and one use 32 pixels so that is my final decision."
EndChar

StartChar: six
Encoding: 54 54 25
Width: 1024
VWidth: 0
Flags: MW
LayerCount: 4
Back
Fore
SplineSet
256 128 m 5,0,-1
 769 128 l 5,1,-1
 769 640 l 29,2,-1
 256 640 l 5,3,-1
 256 128 l 5,0,-1
833 1280 m 5,4,-1
 833 1152 l 29,5,-1
 256 1152 l 5,6,-1
 256 768 l 5,7,-1
 897 768 l 29,8,-1
 897 0 l 5,9,-1
 128 0 l 5,10,-1
 128 1280 l 5,11,-1
 833 1280 l 5,4,-1
EndSplineSet
Validated: 3073
Layer: 2
SplineSet
680 255 m 29,0,-1
 680 595 l 29,1,-1
 595 680 l 29,2,-1
 170 680 l 29,3,-1
 170 255 l 29,4,-1
 255 170 l 29,5,-1
 595 170 l 29,6,-1
 680 255 l 29,0,-1
850 170 m 29,7,-1
 680 0 l 29,8,-1
 170 0 l 29,9,-1
 0 170 l 29,10,-1
 0 1190 l 29,11,-1
 170 1360 l 29,12,-1
 680 1360 l 29,13,-1
 680 1190 l 29,14,-1
 255 1190 l 29,15,-1
 170 1105 l 29,16,-1
 170 850 l 29,17,-1
 680 850 l 29,18,-1
 850 680 l 29,19,-1
 850 170 l 29,7,-1
EndSplineSet
Validated: 1
Layer: 3
SplineSet
768 0 m 29,0,-1
 256 0 l 29,1,-1
 128 128 l 29,2,-1
 128 1152 l 29,3,-1
 256 1280 l 29,4,-1
 832 1280 l 29,5,-1
 832 1152 l 29,6,-1
 320 1152 l 29,7,-1
 256 1088 l 29,8,-1
 256 768 l 29,9,-1
 768 768 l 29,10,-1
 896 640 l 29,11,-1
 896 128 l 29,12,-1
 768 0 l 29,0,-1
256 640 m 29,13,-1
 256 192 l 29,14,-1
 320 128 l 29,15,-1
 704 128 l 29,16,-1
 768 192 l 29,17,-1
 768 576 l 29,18,-1
 704 640 l 29,19,-1
 256 640 l 29,13,-1
EndSplineSet
EndChar

StartChar: seven
Encoding: 55 55 26
Width: 1024
VWidth: 0
Flags: MW
LayerCount: 4
Back
Fore
SplineSet
897 1280 m 17,0,-1
 897 960 l 5,1,-1
 577 448 l 9,2,-1
 577 0 l 25,3,-1
 449 0 l 25,4,-1
 449 448 l 25,5,-1
 769 960 l 25,6,-1
 769 1152 l 25,7,-1
 256 1152 l 25,8,-1
 256 896 l 25,9,-1
 128 896 l 25,10,-1
 128 1280 l 25,11,-1
 897 1280 l 17,0,-1
EndSplineSet
Validated: 3073
Layer: 2
SplineSet
0 1360 m 25,0,-1
 850 1360 l 25,1,-1
 850 850 l 25,2,-1
 510 510 l 25,3,-1
 510 0 l 25,4,-1
 340 0 l 25,5,-1
 340 510 l 25,6,-1
 680 850 l 25,7,-1
 680 1190 l 25,8,-1
 0 1190 l 29,9,-1
 0 1360 l 25,0,-1
EndSplineSet
Validated: 1
Layer: 3
SplineSet
256 896 m 25,0,-1
 256 1152 l 25,1,-1
 768 1152 l 25,2,-1
 768 960 l 29,3,-1
 448 448 l 25,4,-1
 448 0 l 25,5,-1
 576 0 l 25,6,-1
 576 448 l 25,7,-1
 896 960 l 25,8,-1
 896 1280 l 25,9,-1
 128 1280 l 25,10,-1
 128 896 l 25,11,-1
 256 896 l 25,0,-1
EndSplineSet
EndChar

StartChar: eight
Encoding: 56 56 27
Width: 1024
VWidth: 0
Flags: MW
LayerCount: 4
Back
Fore
SplineSet
255.5 576 m 1,0,1
 255.5 128 l 25,2,-1
 768.5 128 l 1,3,-1
 768.5 576 l 1,4,-1
 255.5 576 l 1,0,1
255.5 1152 m 1,5,-1
 255.5 704 l 1,6,-1
 768.5 704 l 1,7,-1
 768.5 1152 l 1,8,-1
 255.5 1152 l 1,5,-1
127.5 1280 m 25,9,-1
 896.5 1280 l 1,10,-1
 896.5 1152 l 1,11,-1
 896.5 0 l 29,12,-1
 127.5 0 l 25,13,-1
 127.5 1152 l 1,14,-1
 127.5 1280 l 25,9,-1
EndSplineSet
Layer: 2
SplineSet
169.5 680 m 25,0,-1
 169.5 255 l 25,1,-1
 254.5 170 l 25,2,-1
 594.5 170 l 25,3,-1
 679.5 255 l 25,4,-1
 679.5 680 l 25,5,-1
 169.5 680 l 25,0,-1
169.5 1105 m 25,6,-1
 169.5 850 l 25,7,-1
 679.5 850 l 25,8,-1
 679.5 1105 l 29,9,-1
 594.5 1190 l 25,10,-1
 254.5 1190 l 25,11,-1
 169.5 1105 l 25,6,-1
-0.5 1190 m 25,12,-1
 169.5 1360 l 25,13,-1
 679.5 1360 l 25,14,-1
 849.5 1190 l 25,15,-1
 849.5 850 l 25,16,-1
 764.5 850 l 25,17,-1
 764.5 680 l 25,18,-1
 849.5 680 l 25,19,-1
 849.5 170 l 25,20,-1
 679.5 0 l 25,21,-1
 169.5 0 l 25,22,-1
 -0.5 170 l 25,23,-1
 -0.5 680 l 25,24,-1
 84.5 680 l 25,25,-1
 84.5 850 l 25,26,-1
 -0.5 850 l 25,27,-1
 -0.5 1190 l 25,12,-1
EndSplineSet
Validated: 1
Layer: 3
SplineSet
256 1088 m 25,0,-1
 256 768 l 25,1,-1
 320 704 l 25,2,-1
 704 704 l 25,3,-1
 768 768 l 25,4,-1
 768 1088 l 25,5,-1
 704 1152 l 25,6,-1
 320 1152 l 25,7,-1
 256 1088 l 25,0,-1
256 512 m 25,8,-1
 256 192 l 25,9,-1
 320 128 l 25,10,-1
 704 128 l 25,11,-1
 768 192 l 25,12,-1
 768 512 l 25,13,-1
 704 576 l 25,14,-1
 320 576 l 25,15,-1
 256 512 l 25,8,-1
128 1152 m 9,16,-1
 256 1280 l 25,17,-1
 768 1280 l 25,18,-1
 896 1152 l 17,19,-1
 896 704 l 1,20,-1
 832 704 l 1,21,-1
 832 576 l 1,22,-1
 896 576 l 1,23,-1
 896 128 l 9,24,-1
 768 0 l 25,25,-1
 256 0 l 25,26,-1
 128 128 l 17,27,-1
 128 576 l 1,28,-1
 192 576 l 1,29,-1
 192 704 l 5,30,-1
 128 704 l 1,31,-1
 128 1152 l 9,16,-1
EndSplineSet
EndChar

StartChar: nine
Encoding: 57 57 28
Width: 1024
VWidth: 0
Flags: MW
LayerCount: 4
Back
Fore
SplineSet
769 1152 m 5,0,-1
 256 1152 l 5,1,-1
 256 640 l 29,2,-1
 769 640 l 5,3,-1
 769 1152 l 5,0,-1
192 0 m 5,4,-1
 192 128 l 29,5,-1
 769 128 l 5,6,-1
 769 512 l 5,7,-1
 128 512 l 29,8,-1
 128 1280 l 5,9,-1
 897 1280 l 5,10,-1
 897 0 l 5,11,-1
 192 0 l 5,4,-1
EndSplineSet
Validated: 3073
Layer: 2
SplineSet
255 1105 m 29,0,-1
 255 765 l 29,1,-1
 340 680 l 29,2,-1
 765 680 l 29,3,-1
 765 1105 l 29,4,-1
 680 1190 l 29,5,-1
 340 1190 l 29,6,-1
 255 1105 l 29,0,-1
85 1190 m 29,7,-1
 255 1360 l 29,8,-1
 765 1360 l 29,9,-1
 935 1190 l 29,10,-1
 935 170 l 29,11,-1
 765 0 l 29,12,-1
 255 0 l 29,13,-1
 255 170 l 29,14,-1
 680 170 l 29,15,-1
 765 255 l 29,16,-1
 765 510 l 29,17,-1
 255 510 l 29,18,-1
 85 680 l 29,19,-1
 85 1190 l 29,7,-1
EndSplineSet
Validated: 1
Layer: 3
SplineSet
256 1280 m 29,0,-1
 768 1280 l 29,1,-1
 896 1152 l 29,2,-1
 896 128 l 29,3,-1
 768 0 l 29,4,-1
 192 0 l 29,5,-1
 192 128 l 29,6,-1
 704 128 l 29,7,-1
 768 192 l 29,8,-1
 768 512 l 29,9,-1
 256 512 l 29,10,-1
 128 640 l 29,11,-1
 128 1152 l 29,12,-1
 256 1280 l 29,0,-1
768 640 m 29,13,-1
 768 1088 l 29,14,-1
 704 1152 l 29,15,-1
 320 1152 l 29,16,-1
 256 1088 l 29,17,-1
 256 704 l 29,18,-1
 320 640 l 29,19,-1
 768 640 l 29,13,-1
EndSplineSet
EndChar

StartChar: colon
Encoding: 58 58 29
Width: 1024
VWidth: 0
Flags: MW
LayerCount: 4
Back
Fore
Validated: 1
Layer: 2
SplineSet
510 340 m 25,0,-1
 510 0 l 25,1,-1
 340 0 l 25,2,-1
 340 340 l 25,3,-1
 510 340 l 25,0,-1
510 1020 m 25,4,-1
 510 680 l 25,5,-1
 340 680 l 25,6,-1
 340 1020 l 29,7,-1
 510 1020 l 25,4,-1
EndSplineSet
Validated: 1
Layer: 3
SplineSet
448 896 m 29,0,-1
 576 896 l 29,1,-1
 576 640 l 29,2,-1
 448 640 l 29,3,-1
 448 896 l 29,0,-1
448 256 m 25,4,-1
 576 256 l 25,5,-1
 576 0 l 25,6,-1
 448 0 l 25,7,-1
 448 256 l 25,4,-1
EndSplineSet
Validated: 3073
EndChar

StartChar: semicolon
Encoding: 59 59 30
Width: 1024
VWidth: 0
Flags: MW
LayerCount: 4
Back
Fore
SplineSet
576.5 256 m 152,-1,1
 641 256 641 256 641 193 c 26,2,-1
 641 33 l 26,3,4
 641 0 641 0 608 -33 c 24,5,6
 545 -96 l 24,7,8
 512 -127 512 -127 480.5 -127 c 152,-1,9
 449 -127 449 -127 416 -127 c 152,-1,10
 383 -127 383 -127 383 -96 c 24,11,12
 383 -63 383 -63 416 -63 c 152,-1,13
 449 -63 449 -63 464 -31.5 c 152,-1,14
 479 0 479 0 495.5 31.5 c 152,-1,15
 512 63 512 63 512 96 c 26,16,-1
 512 193 l 26,17,0
 512 256 512 256 576.5 256 c 152,-1,1
EndSplineSet
Validated: 3073
Layer: 2
SplineSet
340 340 m 25,0,-1
 510 340 l 25,1,-1
 510 0 l 25,2,-1
 340 -170 l 29,3,-1
 170 -170 l 25,4,-1
 340 85 l 25,5,-1
 340 340 l 25,0,-1
510 1020 m 25,6,-1
 510 680 l 25,7,-1
 340 680 l 25,8,-1
 340 1020 l 25,9,-1
 510 1020 l 25,6,-1
EndSplineSet
Validated: 1
Layer: 3
SplineSet
576 256 m 29,0,-1
 576 0 l 29,1,-1
 448 -128 l 29,2,-1
 320 -128 l 29,3,-1
 320 -64 l 29,4,-1
 448 64 l 29,5,-1
 448 256 l 29,6,-1
 576 256 l 29,0,-1
448 896 m 25,7,-1
 576 896 l 25,8,-1
 576 640 l 25,9,-1
 448 640 l 25,10,-1
 448 896 l 25,7,-1
EndSplineSet
Validated: 3073
EndChar

StartChar: less
Encoding: 60 60 31
Width: 1024
VWidth: 0
Flags: MW
LayerCount: 4
Back
Fore
SplineSet
152 672 m 24,0,1
 441 961 441 961 727 1247 c 24,2,3
 760 1280 760 1280 791.5 1280 c 152,-1,4
 823 1280 823 1280 855 1280 c 152,-1,5
 887 1280 887 1280 887 1248.5 c 152,-1,6
 887 1217 887 1217 856 1184 c 24,7,8
 600 928 600 928 344 672 c 24,9,10
 311 639 311 639 344 608 c 24,11,12
 600 352 600 352 856 96 c 24,13,14
 889 63 889 63 889 31.5 c 144,-1,15
 889 0 889 0 856 0 c 152,-1,16
 823 0 823 0 791.5 0 c 152,-1,17
 760 0 760 0 727 33 c 24,18,19
 438 322 438 322 152 608 c 24,20,21
 119 639 119 639 152 672 c 24,0,1
EndSplineSet
Validated: 1
Layer: 2
SplineSet
701 1190 m 29,0,-1
 106 595 l 29,1,-1
 701 0 l 29,2,-1
 871 0 l 29,3,-1
 276 595 l 29,4,-1
 871 1190 l 29,5,-1
 701 1190 l 29,0,-1
EndSplineSet
Validated: 9
Layer: 3
SplineSet
736 1280 m 21,0,-1
 128 672 l 5,1,-1
 128 608 l 13,2,-1
 736 0 l 29,3,-1
 928 0 l 29,4,-1
 256 640 l 29,5,-1
 928 1280 l 29,6,-1
 736 1280 l 21,0,-1
EndSplineSet
Validated: 3081
Comment: "Don't think I'm liking the right where the angle to the middle start..  (That probably didn't make sence...)"
EndChar

StartChar: equal
Encoding: 61 61 32
Width: 1024
VWidth: 0
Flags: MW
LayerCount: 4
Back
Fore
SplineSet
160 512 m 24,0,1
 512 512 512 512 864 512 c 24,2,3
 895 512 895 512 895 481 c 26,4,-1
 895 416 l 18,5,6
 895 385 895 385 864 385 c 24,7,8
 512 385 512 385 160 385 c 24,9,10
 129 385 129 385 129 416 c 26,11,-1
 129 481 l 26,12,13
 129 512 129 512 160 512 c 24,0,1
160 897 m 24,14,15
 512 897 512 897 864 897 c 24,16,17
 895 897 895 897 895 866 c 26,18,-1
 895 801 l 26,19,20
 895 768 895 768 864 768 c 24,21,22
 512 768 512 768 160 768 c 24,23,24
 129 768 129 768 129 801 c 26,25,-1
 129 866 l 26,26,27
 129 897 129 897 160 897 c 24,14,15
EndSplineSet
Validated: 1
Layer: 2
SplineSet
0 510 m 29,0,-1
 850 510 l 25,1,-1
 850 340 l 25,2,-1
 0 340 l 25,3,-1
 0 510 l 29,0,-1
0 1020 m 25,4,-1
 850 1020 l 25,5,-1
 850 850 l 25,6,-1
 0 850 l 25,7,-1
 0 1020 l 25,4,-1
EndSplineSet
Validated: 1
Layer: 3
SplineSet
128 512 m 29,0,-1
 896 512 l 29,1,-1
 896 384 l 29,2,-1
 128 384 l 29,3,-1
 128 512 l 29,0,-1
128 896 m 25,4,-1
 896 896 l 25,5,-1
 896 768 l 25,6,-1
 128 768 l 25,7,-1
 128 896 l 25,4,-1
EndSplineSet
Validated: 3073
EndChar

StartChar: greater
Encoding: 62 62 33
Width: 1024
VWidth: 0
Flags: MW
LayerCount: 4
Back
Fore
SplineSet
872 608 m 24,0,1
 583 319 583 319 295 33 c 24,2,3
 262 0 262 0 230.5 0 c 152,-1,4
 199 0 199 0 167 0 c 152,-1,5
 135 0 135 0 135 31.5 c 152,-1,6
 135 63 135 63 168 96 c 24,7,8
 424 352 424 352 680 608 c 24,9,10
 713 641 713 641 680 672 c 24,11,12
 422 924 422 924 168 1184 c 0,13,14
 136 1217 136 1217 136 1248.5 c 152,-1,15
 136 1280 136 1280 167.5 1280 c 152,-1,16
 199 1280 199 1280 231.5 1280 c 152,-1,17
 264 1280 264 1280 295 1247 c 24,18,19
 584 958 584 958 872 672 c 24,20,21
 905 641 905 641 872 608 c 24,0,1
EndSplineSet
Validated: 1
Layer: 2
SplineSet
255 0 m 29,0,-1
 850 595 l 29,1,-1
 255 1190 l 29,2,-1
 85 1190 l 29,3,-1
 680 595 l 29,4,-1
 85 0 l 29,5,-1
 255 0 l 29,0,-1
EndSplineSet
Validated: 9
Layer: 3
SplineSet
288 1280 m 21,0,-1
 896 672 l 5,1,-1
 896 608 l 13,2,-1
 288 0 l 29,3,-1
 96 0 l 29,4,-1
 768 640 l 29,5,-1
 96 1280 l 29,6,-1
 288 1280 l 21,0,-1
EndSplineSet
Validated: 3073
Comment: "Don't think I'm liking the left where the angle to the middle start..  (That probably didn't make sence...)"
EndChar

StartChar: question
Encoding: 63 63 34
Width: 1024
VWidth: 0
Flags: MW
LayerCount: 4
Back
Fore
SplineSet
512 256 m 152,-1,1
 575 256 575 256 575 193 c 26,2,-1
 575 63 l 26,3,4
 575 0 575 0 512 0 c 152,-1,5
 449 0 449 0 449 63 c 26,6,-1
 449 193 l 26,7,0
 449 256 449 256 512 256 c 152,-1,1
129 864 m 26,8,-1
 129 1153 l 18,9,10
 129 1280 129 1280 256 1280 c 24,11,12
 512 1280 512 1280 768 1280 c 24,13,14
 895 1280 895 1280 895 1153 c 26,15,-1
 895 801 l 26,16,17
 895 768 895 768 864 735 c 24,18,19
 735 606 735 606 608 479 c 24,20,21
 575 446 575 446 575 415.5 c 152,-1,22
 575 385 575 385 543.5 385 c 152,-1,23
 512 385 512 385 480.5 385 c 152,-1,24
 449 385 449 385 449 416 c 26,25,-1
 449 479 l 26,26,27
 449 512 449 512 479 545 c 24,28,29
 608 674 608 674 735 801 c 24,30,31
 768 834 768 834 768 864 c 26,32,-1
 768 1087 l 26,33,34
 768 1153 768 1153 705 1153 c 24,35,36
 512 1153 512 1153 319 1153 c 24,37,38
 256 1153 256 1153 256 1087 c 26,39,-1
 256 864 l 26,40,41
 256 831 256 831 224.5 831 c 152,-1,42
 193 831 193 831 161 831 c 152,-1,43
 129 831 129 831 129 864 c 26,8,-1
EndSplineSet
Validated: 1
Layer: 2
SplineSet
340 510 m 17,0,-1
 340 680 l 1,1,-1
 680 1020 l 13,2,-1
 680 1105 l 25,3,-1
 595 1190 l 25,4,-1
 255 1190 l 25,5,-1
 170 1105 l 25,6,-1
 170 850 l 25,7,-1
 0 850 l 25,8,-1
 0 1190 l 25,9,-1
 170 1360 l 25,10,-1
 680 1360 l 25,11,-1
 850 1190 l 25,12,-1
 850 935 l 17,13,-1
 510 595 l 1,14,-1
 510 510 l 9,15,-1
 340 510 l 17,0,-1
510 340 m 25,16,-1
 510 0 l 25,17,-1
 340 0 l 25,18,-1
 340 340 l 25,19,-1
 510 340 l 25,16,-1
EndSplineSet
Validated: 1
Layer: 3
SplineSet
576 384 m 29,0,-1
 576 512 l 25,1,-1
 896 832 l 25,2,-1
 896 1152 l 25,3,-1
 768 1280 l 25,4,-1
 256 1280 l 25,5,-1
 128 1152 l 25,6,-1
 128 832 l 25,7,-1
 256 832 l 25,8,-1
 256 1088 l 25,9,-1
 320 1152 l 25,10,-1
 704 1152 l 25,11,-1
 768 1088 l 25,12,-1
 768 896 l 25,13,-1
 448 576 l 25,14,-1
 448 384 l 25,15,-1
 576 384 l 29,0,-1
448 256 m 25,16,-1
 576 256 l 25,17,-1
 576 0 l 25,18,-1
 448 0 l 25,19,-1
 448 256 l 25,16,-1
EndSplineSet
Validated: 3081
Comment: "The +ACIA-Dot+ACIA should be 32 pixels spaced rather than 64.  Characters that are 64 pixels spaced, are punctuation."
EndChar

StartChar: at
Encoding: 64 64 35
Width: 1024
VWidth: 0
Flags: MW
LayerCount: 4
Back
Fore
SplineSet
768 897 m 24,0,1
 655 897 655 897 545 897 c 24,2,3
 479 897 479 897 479 831 c 25,4,-1
 479 449 l 18,5,6
 479 386 479 386 543 385 c 0,7,8
 545 385 l 8,9,10
 639 385 639 385 735 385 c 24,11,12
 801 385 801 385 801 449 c 25,13,-1
 801 864 l 26,14,15
 801 897 801 897 768 897 c 24,0,1
96 1153 m 18,16,17
 96 1280 96 1280 223 1280 c 24,18,19
 512 1280 512 1280 801 1280 c 0,20,21
 928 1280 928 1280 928 1153 c 26,22,-1
 928 289 l 26,23,24
 928 256 928 256 896 256 c 152,-1,25
 864 256 864 256 832.5 256 c 152,-1,26
 801 256 801 256 801 287.5 c 152,-1,27
 801 319 801 319 768 319 c 152,-1,28
 735 319 735 319 735 287.5 c 152,-1,29
 735 256 735 256 705 256 c 24,30,31
 594 256 594 256 479 256 c 16,32,33
 352 256 352 256 352 383 c 0,34,35
 352 385 l 10,36,-1
 352 897 l 18,37,38
 352 1024 352 1024 479 1024 c 24,39,40
 622 1024 622 1024 768 1024 c 24,41,42
 801 1024 801 1024 801 1057 c 26,43,-1
 801 1087 l 26,44,45
 801 1153 801 1153 735 1153 c 24,46,47
 512 1153 512 1153 289 1153 c 24,48,49
 223 1153 223 1153 223 1087 c 25,50,-1
 223 193 l 18,51,52
 223 130 223 130 289 129 c 24,53,54
 594 129 594 129 895 129 c 24,55,56
 928 129 928 129 928 96 c 26,57,-1
 928 33 l 26,58,59
 928 0 928 0 895 0 c 24,60,61
 559 0 559 0 223 0 c 0,62,63
 96 0 96 0 96 129 c 26,64,-1
 96 1153 l 18,16,17
EndSplineSet
Validated: 1
Layer: 2
SplineSet
680 850 m 29,0,-1
 595 850 l 29,1,-1
 510 765 l 29,2,-1
 510 595 l 29,3,-1
 595 510 l 29,4,-1
 680 510 l 29,5,-1
 680 850 l 29,0,-1
850 170 m 29,6,-1
 850 0 l 29,7,-1
 170 0 l 29,8,-1
 0 170 l 29,9,-1
 0 1190 l 29,10,-1
 170 1360 l 29,11,-1
 680 1360 l 29,12,-1
 850 1190 l 29,13,-1
 850 340 l 29,14,-1
 510 340 l 29,15,-1
 340 510 l 29,16,-1
 340 850 l 29,17,-1
 510 1020 l 29,18,-1
 680 1020 l 29,19,-1
 680 1105 l 29,20,-1
 595 1190 l 29,21,-1
 255 1190 l 29,22,-1
 170 1105 l 29,23,-1
 170 255 l 29,24,-1
 255 170 l 29,25,-1
 850 170 l 29,6,-1
EndSplineSet
Validated: 1
Layer: 3
SplineSet
768 896 m 29,0,-1
 512 896 l 29,1,-1
 448 832 l 29,2,-1
 448 448 l 29,3,-1
 512 384 l 29,4,-1
 704 384 l 29,5,-1
 768 448 l 29,6,-1
 768 896 l 29,0,-1
896 128 m 29,7,-1
 896 0 l 29,8,-1
 192 0 l 29,9,-1
 64 128 l 29,10,-1
 64 1152 l 29,11,-1
 192 1280 l 29,12,-1
 768 1280 l 29,13,-1
 896 1152 l 29,14,-1
 896 256 l 29,15,-1
 768 256 l 29,16,-1
 768 320 l 29,17,-1
 704 320 l 29,18,-1
 704 256 l 29,19,-1
 448 256 l 29,20,-1
 320 384 l 29,21,-1
 320 896 l 29,22,-1
 448 1024 l 29,23,-1
 768 1024 l 29,24,-1
 768 1088 l 29,25,-1
 704 1152 l 29,26,-1
 256 1152 l 29,27,-1
 192 1088 l 29,28,-1
 192 192 l 29,29,-1
 256 128 l 29,30,-1
 896 128 l 29,7,-1
EndSplineSet
Validated: 3073
EndChar

StartChar: A
Encoding: 65 65 36
Width: 1024
VWidth: 0
Flags: MW
LayerCount: 4
Back
Fore
SplineSet
256 1087 m 26,0,1
 256 672 l 18,2,3
 256 641 256 641 289 641 c 24,4,5
 512 641 512 641 735 641 c 24,6,7
 768 641 768 641 768 672 c 26,8,-1
 768 1087 l 26,9,10
 768 1153 768 1153 705 1153 c 24,11,12
 512 1153 512 1153 319 1153 c 24,13,14
 256 1153 256 1153 256 1087 c 26,0,1
161 0 m 152,-1,16
 129 0 129 0 129 33 c 26,17,-1
 129 1153 l 18,18,19
 129 1280 129 1280 256 1280 c 24,20,21
 512 1280 512 1280 768 1280 c 24,22,23
 895 1280 895 1280 895 1153 c 26,24,-1
 895 33 l 26,25,26
 895 0 895 0 863 0 c 152,-1,27
 831 0 831 0 799.5 0 c 152,-1,28
 768 0 768 0 768 33 c 26,29,-1
 768 479 l 26,30,31
 768 512 768 512 735 512 c 24,32,33
 512 512 512 512 289 512 c 24,34,35
 256 512 256 512 256 479 c 26,36,-1
 256 33 l 26,37,38
 256 0 256 0 224.5 0 c 152,-1,15
 193 0 193 0 161 0 c 152,-1,16
EndSplineSet
Validated: 1
Layer: 2
SplineSet
255 1190 m 29,0,-1
 170 1105 l 29,1,-1
 170 680 l 29,2,-1
 680 680 l 29,3,-1
 680 1105 l 29,4,-1
 595 1190 l 29,5,-1
 255 1190 l 29,0,-1
680 1360 m 29,6,-1
 850 1190 l 29,7,-1
 850 0 l 29,8,-1
 680 0 l 29,9,-1
 680 510 l 29,10,-1
 170 510 l 29,11,-1
 170 0 l 29,12,-1
 0 0 l 29,13,-1
 0 1190 l 29,14,-1
 170 1360 l 29,15,-1
 680 1360 l 29,6,-1
EndSplineSet
Validated: 1
Layer: 3
SplineSet
256 1088 m 29,0,-1
 256 640 l 29,1,-1
 768 640 l 29,2,-1
 768 1088 l 29,3,-1
 704 1152 l 29,4,-1
 320 1152 l 29,5,-1
 256 1088 l 29,0,-1
128 1152 m 29,6,-1
 256 1280 l 29,7,-1
 768 1280 l 29,8,-1
 896 1152 l 29,9,-1
 896 0 l 29,10,-1
 768 0 l 29,11,-1
 768 512 l 29,12,-1
 256 512 l 29,13,-1
 256 0 l 29,14,-1
 128 0 l 29,15,-1
 128 1152 l 29,6,-1
EndSplineSet
EndChar

StartChar: B
Encoding: 66 66 37
Width: 1024
VWidth: 0
Flags: MW
LayerCount: 4
Back
Fore
SplineSet
256 1120 m 26,0,-1
 256 801 l 26,1,2
 256 768 256 768 289 768 c 24,3,4
 465 768 465 768 641 768 c 0,5,6
 704 768 704 768 705 831 c 26,7,-1
 705 1087 l 18,8,9
 705 1090 l 0,10,11
 705 1092 705 1092 705 1093 c 128,-1,12
 705 1094 705 1094 705 1095 c 128,-1,13
 705 1096 705 1096 705 1098 c 0,14,-1
 705 1098 l 0,15,16
 705 1153 705 1153 641 1153 c 8,17,18
 465 1153 465 1153 289 1153 c 24,19,20
 256 1153 256 1153 256 1120 c 26,0,-1
256 608 m 26,21,-1
 256 160 l 18,22,23
 256 129 256 129 289 129 c 24,24,25
 496 129 496 129 705 129 c 24,26,27
 768 129 768 129 768 193 c 26,28,-1
 768 512 l 18,29,30
 768 641 768 641 641 641 c 24,31,32
 465 641 465 641 289 641 c 24,33,34
 256 641 256 641 256 608 c 26,21,-1
160 1280 m 24,35,36
 432 1280 432 1280 705 1280 c 24,37,38
 832 1280 832 1280 831 1153 c 25,39,-1
 831 768 l 26,40,41
 831 705 831 705 768 705 c 25,42,43
 895 705 895 705 895 575 c 26,44,-1
 895 129 l 26,45,46
 895 0 895 0 768 0 c 24,47,48
 463 0 463 0 160 0 c 24,49,50
 129 0 129 0 129 33 c 26,51,-1
 129 1247 l 26,52,53
 129 1280 129 1280 160 1280 c 24,35,36
EndSplineSet
Validated: 37
Layer: 2
SplineSet
170 680 m 9,0,-1
 170 170 l 25,1,-1
 595 170 l 25,2,-1
 680 255 l 25,3,-1
 680 510 l 21,4,-1
 510 680 l 1,5,-1
 170 680 l 9,0,-1
170 1190 m 25,6,-1
 170 850 l 25,7,-1
 510 850 l 25,8,-1
 595 935 l 25,9,-1
 595 1105 l 25,10,-1
 510 1190 l 25,11,-1
 170 1190 l 25,6,-1
0 1360 m 9,12,-1
 595 1360 l 25,13,-1
 765 1190 l 17,14,-1
 765 850 l 1,15,-1
 680 765 l 25,16,-1
 850 595 l 25,17,-1
 850 170 l 25,18,-1
 680 0 l 25,19,-1
 0 0 l 17,20,-1
 0 1205 l 25,21,-1
 0 1360 l 9,12,-1
EndSplineSet
Validated: 1
Layer: 3
SplineSet
256 640 m 25,0,-1
 256 128 l 25,1,-1
 704 128 l 25,2,-1
 768 192 l 25,3,-1
 768 512 l 25,4,-1
 640 640 l 25,5,-1
 256 640 l 25,0,-1
256 1152 m 25,6,-1
 256 768 l 25,7,-1
 640 768 l 29,8,-1
 768 896 l 25,9,-1
 768 1088 l 25,10,-1
 704 1152 l 25,11,-1
 256 1152 l 25,6,-1
128 1280 m 25,12,-1
 768 1280 l 25,13,-1
 896 1152 l 25,14,-1
 896 832 l 25,15,-1
 768 704 l 25,16,-1
 896 576 l 25,17,-1
 896 128 l 25,18,-1
 768 0 l 25,19,-1
 128 0 l 25,20,-1
 128 1280 l 25,12,-1
EndSplineSet
Comment: "Before the 'B' was kind of hard to dis distinguis from the number '8'.  Well it's not anymore.  I have modified it a bit, mainly because I couldn't get it to come out the iriginal way.."
Colour: ff8000
EndChar

StartChar: C
Encoding: 67 67 38
Width: 1024
VWidth: 0
Flags: MW
LayerCount: 4
Back
Fore
SplineSet
129 1153 m 18,0,1
 129 1280 129 1280 256 1280 c 24,2,3
 512 1280 512 1280 768 1280 c 24,4,5
 895 1280 895 1280 895 1153 c 26,6,-1
 895 991 l 26,7,8
 895 959 895 959 863 959.5 c 152,-1,9
 831 960 831 960 799.5 960 c 152,-1,10
 768 960 768 960 768 991 c 26,11,-1
 768 1087 l 26,12,13
 768 1153 768 1153 705 1153 c 24,14,15
 512 1153 512 1153 319 1153 c 24,16,17
 256 1153 256 1153 256 1087 c 26,18,-1
 256 193 l 18,19,20
 256 130 256 130 319 129 c 24,21,22
 512 129 512 129 705 129 c 24,23,24
 768 129 768 129 768 193 c 26,25,-1
 768 289 l 26,26,27
 768 321 768 321 799.5 320.5 c 152,-1,28
 831 320 831 320 863 320 c 152,-1,29
 895 320 895 320 895 289 c 26,30,-1
 895 129 l 26,31,32
 895 0 895 0 768 0 c 24,33,34
 512 0 512 0 256 0 c 24,35,36
 129 0 129 0 129 129 c 26,37,-1
 129 1153 l 18,0,1
EndSplineSet
Validated: 1
Layer: 2
SplineSet
0 1190 m 29,0,-1
 170 1360 l 25,1,-1
 680 1360 l 25,2,-1
 850 1190 l 25,3,-1
 850 1020 l 25,4,-1
 680 1020 l 25,5,-1
 680 1105 l 25,6,-1
 595 1190 l 25,7,-1
 255 1190 l 25,8,-1
 170 1105 l 25,9,-1
 170 255 l 25,10,-1
 255 170 l 25,11,-1
 595 170 l 25,12,-1
 680 255 l 25,13,-1
 680 340 l 25,14,-1
 850 340 l 25,15,-1
 850 170 l 25,16,-1
 680 0 l 25,17,-1
 170 0 l 25,18,-1
 0 170 l 25,19,-1
 0 1190 l 29,0,-1
EndSplineSet
Validated: 1
Layer: 3
SplineSet
256 1280 m 25,0,-1
 768 1280 l 25,1,-1
 896 1152 l 25,2,-1
 896 960 l 25,3,-1
 768 960 l 25,4,-1
 768 1088 l 25,5,-1
 704 1152 l 25,6,-1
 320 1152 l 25,7,-1
 256 1088 l 25,8,-1
 256 192 l 25,9,-1
 320 128 l 25,10,-1
 704 128 l 25,11,-1
 768 192 l 25,12,-1
 768 320 l 29,13,-1
 896 320 l 29,14,-1
 896 128 l 25,15,-1
 768 0 l 25,16,-1
 256 0 l 25,17,-1
 128 128 l 25,18,-1
 128 1152 l 25,19,-1
 256 1280 l 25,0,-1
EndSplineSet
EndChar

StartChar: D
Encoding: 68 68 39
Width: 1024
VWidth: 0
Flags: MW
LayerCount: 4
Back
Fore
SplineSet
256 1120 m 26,0,-1
 256 160 l 26,1,2
 256 129 256 129 289 129 c 24,3,4
 465 129 465 129 641 129 c 24,5,6
 768 129 768 129 768 256 c 25,7,-1
 768 1024 l 25,8,9
 768 1153 768 1153 641 1153 c 24,10,11
 465 1153 465 1153 289 1153 c 24,12,13
 256 1153 256 1153 256 1120 c 26,0,-1
160 1280 m 24,14,15
 402 1280 402 1280 641 1280 c 24,16,17
 895 1280 895 1280 895 1024 c 25,18,-1
 895 256 l 26,19,20
 895 0 895 0 641 0 c 24,21,22
 401 0 401 0 160 0 c 24,23,24
 129 0 129 0 129 33 c 26,25,-1
 129 1247 l 26,26,27
 129 1280 129 1280 160 1280 c 24,14,15
EndSplineSet
Validated: 1
Layer: 2
SplineSet
170 1190 m 29,0,-1
 170 170 l 29,1,-1
 425 170 l 29,2,-1
 680 425 l 29,3,-1
 680 935 l 29,4,-1
 425 1190 l 29,5,-1
 170 1190 l 29,0,-1
0 1360 m 29,6,-1
 510 1360 l 29,7,-1
 850 1020 l 29,8,-1
 850 340 l 29,9,-1
 510 0 l 29,10,-1
 0 0 l 29,11,-1
 0 1360 l 29,6,-1
EndSplineSet
Validated: 1
Layer: 3
SplineSet
256 128 m 25,0,-1
 608 128 l 25,1,-1
 768 288 l 25,2,-1
 768 992 l 29,3,-1
 608 1152 l 25,4,-1
 256 1152 l 25,5,-1
 256 128 l 25,0,-1
128 1280 m 25,6,-1
 672 1280 l 25,7,-1
 896 1056 l 25,8,-1
 896 224 l 25,9,-1
 672 0 l 25,10,-1
 128 0 l 25,11,-1
 128 1280 l 25,6,-1
EndSplineSet
EndChar

StartChar: E
Encoding: 69 69 40
Width: 1024
VWidth: 0
Flags: MW
LayerCount: 4
Back
Fore
SplineSet
160 1280 m 24,0,1
 512 1280 512 1280 864 1280 c 24,2,3
 895 1280 895 1280 895 1247 c 26,4,-1
 895 1184 l 26,5,6
 895 1153 895 1153 864 1153 c 24,7,8
 575 1153 575 1153 289 1153 c 24,9,10
 256 1153 256 1153 256 1120 c 26,11,-1
 256 735 l 26,12,13
 256 704 256 704 289 705 c 24,14,15
 482 705 482 705 672 705 c 24,16,17
 705 705 705 705 705 672 c 26,18,-1
 705 608 l 26,19,20
 705 575 705 575 672 575 c 24,21,22
 479 575 479 575 289 575 c 24,23,24
 256 575 256 575 256 545 c 26,25,-1
 256 160 l 26,26,27
 256 129 256 129 289 129 c 24,28,29
 578 129 578 129 864 129 c 24,30,31
 895 129 895 129 895 96 c 26,32,-1
 895 33 l 26,33,34
 895 0 895 0 864 0 c 24,35,36
 512 0 512 0 160 0 c 24,37,38
 129 0 129 0 129 33 c 26,39,-1
 129 1247 l 26,40,41
 129 1280 129 1280 160 1280 c 24,0,1
EndSplineSet
Validated: 1
Layer: 2
SplineSet
0 1360 m 29,0,-1
 850 1360 l 29,1,-1
 850 1190 l 29,2,-1
 170 1190 l 29,3,-1
 170 850 l 29,4,-1
 680 850 l 29,5,-1
 680 680 l 29,6,-1
 170 680 l 29,7,-1
 170 170 l 29,8,-1
 850 170 l 29,9,-1
 850 0 l 29,10,-1
 0 0 l 29,11,-1
 0 1360 l 29,0,-1
EndSplineSet
Validated: 1
Layer: 3
SplineSet
128 1280 m 25,0,-1
 896 1280 l 25,1,-1
 896 1152 l 25,2,-1
 256 1152 l 25,3,-1
 256 704 l 25,4,-1
 704 704 l 25,5,-1
 704 576 l 25,6,-1
 256 576 l 17,7,-1
 256 128 l 1,8,-1
 896 128 l 5,9,-1
 896 0 l 1,10,-1
 256 0 l 9,11,-1
 128 0 l 25,12,-1
 128 1280 l 25,0,-1
EndSplineSet
EndChar

StartChar: F
Encoding: 70 70 41
Width: 1024
VWidth: 0
Flags: MW
LayerCount: 4
Back
Fore
SplineSet
160 1280 m 24,0,1
 512 1280 512 1280 864 1280 c 24,2,3
 895 1280 895 1280 895 1247 c 26,4,-1
 895 1184 l 26,5,6
 895 1153 895 1153 864 1153 c 24,7,8
 575 1153 575 1153 289 1153 c 24,9,10
 256 1153 256 1153 256 1120 c 26,11,-1
 256 735 l 26,12,13
 256 704 256 704 289 705 c 24,14,15
 482 705 482 705 672 705 c 24,16,17
 705 705 705 705 705 672 c 26,18,-1
 705 608 l 26,19,20
 705 575 705 575 672 575 c 24,21,22
 479 575 479 575 289 575 c 24,23,24
 256 575 256 575 256 545 c 26,25,-1
 256 33 l 26,26,27
 256 0 256 0 224.5 0 c 152,-1,28
 193 0 193 0 161 0 c 152,-1,29
 129 0 129 0 129 33 c 26,30,-1
 129 1247 l 26,31,32
 129 1280 129 1280 160 1280 c 24,0,1
EndSplineSet
Validated: 1
Layer: 2
SplineSet
0 1360 m 25,0,-1
 850 1360 l 25,1,-1
 850 1190 l 25,2,-1
 170 1190 l 25,3,-1
 170 850 l 25,4,-1
 680 850 l 25,5,-1
 680 680 l 25,6,-1
 170 680 l 25,7,-1
 170 0 l 29,8,-1
 0 0 l 25,9,-1
 0 1360 l 25,0,-1
EndSplineSet
Validated: 1
Layer: 3
SplineSet
128 1280 m 29,0,-1
 896 1280 l 29,1,-1
 896 1152 l 29,2,-1
 256 1152 l 29,3,-1
 256 704 l 29,4,-1
 704 704 l 29,5,-1
 704 576 l 29,6,-1
 256 576 l 29,7,-1
 256 0 l 29,8,-1
 128 0 l 29,9,-1
 128 1280 l 29,0,-1
EndSplineSet
EndChar

StartChar: G
Encoding: 71 71 42
Width: 1024
VWidth: 0
Flags: MW
LayerCount: 4
Back
Fore
SplineSet
129 1153 m 26,0,1
 129 1280 129 1280 256 1280 c 24,2,3
 512 1280 512 1280 768 1280 c 24,4,5
 895 1280 895 1280 895 1153 c 26,6,-1
 895 991 l 26,7,8
 895 959 895 959 863 959.5 c 152,-1,9
 831 960 831 960 799.5 960 c 152,-1,10
 768 960 768 960 768 991 c 26,11,-1
 768 1087 l 26,12,13
 768 1153 768 1153 705 1153 c 24,14,15
 512 1153 512 1153 319 1153 c 24,16,17
 256 1153 256 1153 256 1087 c 26,18,-1
 256 193 l 26,19,20
 256 130 256 130 319 129 c 24,21,22
 512 129 512 129 705 129 c 24,23,24
 768 129 768 129 768 193 c 26,25,-1
 768 545 l 26,26,27
 768 576 768 576 735 575 c 24,28,29
 639 575 639 575 545 575 c 24,30,31
 512 575 512 575 512 608 c 26,32,-1
 512 672 l 26,33,34
 512 705 512 705 545 705 c 24,35,36
 705 705 705 705 864 705 c 24,37,38
 895 705 895 705 895 672 c 26,39,-1
 895 129 l 26,40,41
 895 0 895 0 768 0 c 24,42,43
 512 0 512 0 256 0 c 24,44,45
 129 0 129 0 129 129 c 26,46,-1
 129 1153 l 26,0,1
EndSplineSet
Validated: 1
Layer: 2
SplineSet
0 1190 m 29,0,-1
 170 1360 l 25,1,-1
 680 1360 l 25,2,-1
 850 1190 l 25,3,-1
 850 1020 l 25,4,-1
 680 1020 l 25,5,-1
 680 1105 l 25,6,-1
 595 1190 l 25,7,-1
 255 1190 l 25,8,-1
 170 1105 l 25,9,-1
 170 255 l 25,10,-1
 255 170 l 25,11,-1
 595 170 l 25,12,-1
 680 255 l 25,13,-1
 680 510 l 25,14,-1
 340 510 l 25,15,-1
 340 680 l 25,16,-1
 850 680 l 25,17,-1
 850 170 l 25,18,-1
 680 0 l 25,19,-1
 170 0 l 25,20,-1
 0 170 l 25,21,-1
 0 1190 l 29,0,-1
EndSplineSet
Validated: 1
Layer: 3
SplineSet
128 1152 m 29,0,-1
 256 1280 l 25,1,-1
 768 1280 l 25,2,-1
 896 1152 l 25,3,-1
 896 960 l 25,4,-1
 768 960 l 25,5,-1
 768 1088 l 25,6,-1
 704 1152 l 25,7,-1
 320 1152 l 25,8,-1
 256 1088 l 25,9,-1
 256 192 l 25,10,-1
 320 128 l 25,11,-1
 704 128 l 25,12,-1
 768 192 l 25,13,-1
 768 576 l 25,14,-1
 512 576 l 25,15,-1
 512 704 l 25,16,-1
 896 704 l 25,17,-1
 896 128 l 25,18,-1
 768 0 l 25,19,-1
 256 0 l 25,20,-1
 128 128 l 25,21,-1
 128 1152 l 29,0,-1
EndSplineSet
EndChar

StartChar: H
Encoding: 72 72 43
Width: 1024
VWidth: 0
Flags: MW
LayerCount: 4
Back
Fore
SplineSet
161 1280 m 152,-1,1
 193 1280 193 1280 224.5 1280 c 152,-1,2
 256 1280 256 1280 256 1247 c 26,3,-1
 256 735 l 26,4,5
 256 704 256 704 289 705 c 24,6,7
 512 705 512 705 735 705 c 24,8,9
 768 705 768 705 768 735 c 26,10,-1
 768 1247 l 26,11,12
 768 1280 768 1280 799.5 1280 c 152,-1,13
 831 1280 831 1280 863 1280 c 152,-1,14
 895 1280 895 1280 895 1247 c 26,15,-1
 895 33 l 26,16,17
 895 0 895 0 863 0 c 152,-1,18
 831 0 831 0 799.5 0 c 152,-1,19
 768 0 768 0 768 33 c 26,20,-1
 768 545 l 26,21,22
 768 576 768 576 735 575 c 24,23,24
 512 575 512 575 289 575 c 24,25,26
 256 575 256 575 256 545 c 26,27,-1
 256 33 l 26,28,29
 256 0 256 0 224.5 0 c 152,-1,30
 193 0 193 0 161 0 c 152,-1,31
 129 0 129 0 129 33 c 26,32,-1
 129 1247 l 26,33,0
 129 1280 129 1280 161 1280 c 152,-1,1
EndSplineSet
Validated: 1
Layer: 2
SplineSet
0 1360 m 29,0,-1
 170 1360 l 25,1,-1
 170 850 l 25,2,-1
 680 850 l 25,3,-1
 680 1360 l 25,4,-1
 850 1360 l 25,5,-1
 850 0 l 25,6,-1
 680 0 l 25,7,-1
 680 680 l 25,8,-1
 170 680 l 25,9,-1
 170 0 l 25,10,-1
 0 0 l 25,11,-1
 0 1360 l 29,0,-1
EndSplineSet
Validated: 1
Layer: 3
SplineSet
128 1280 m 29,0,-1
 256 1280 l 25,1,-1
 256 704 l 25,2,-1
 768 704 l 25,3,-1
 768 1280 l 25,4,-1
 896 1280 l 25,5,-1
 896 0 l 25,6,-1
 768 0 l 25,7,-1
 768 576 l 25,8,-1
 256 576 l 25,9,-1
 256 0 l 25,10,-1
 128 0 l 25,11,-1
 128 1280 l 29,0,-1
EndSplineSet
EndChar

StartChar: I
Encoding: 73 73 44
Width: 1024
VWidth: 0
Flags: MW
LayerCount: 4
Back
Fore
SplineSet
352 1280 m 24,0,1
 512 1280 512 1280 672 1280 c 24,2,3
 705 1280 705 1280 705 1247 c 26,4,-1
 705 1184 l 26,5,6
 705 1153 705 1153 672 1153 c 152,-1,7
 639 1153 639 1153 607 1153 c 152,-1,8
 575 1153 575 1153 575 1120 c 26,9,-1
 575 160 l 26,10,11
 575 129 575 129 608 129 c 152,-1,12
 641 129 641 129 673 129 c 152,-1,13
 705 129 705 129 705 96 c 26,14,-1
 705 33 l 26,15,16
 705 0 705 0 672 0 c 24,17,18
 512 0 512 0 352 0 c 24,19,20
 319 0 319 0 319 33 c 26,21,-1
 319 96 l 26,22,23
 319 129 319 129 351 129 c 152,-1,24
 383 129 383 129 416 129 c 152,-1,25
 449 129 449 129 449 160 c 26,26,-1
 449 1120 l 26,27,28
 449 1153 449 1153 416 1153 c 152,-1,29
 383 1153 383 1153 351 1153 c 152,-1,30
 319 1153 319 1153 319 1184 c 26,31,-1
 319 1247 l 26,32,33
 319 1280 319 1280 352 1280 c 24,0,1
EndSplineSet
Validated: 1
Layer: 2
SplineSet
170 1360 m 29,0,-1
 680 1360 l 25,1,-1
 680 1190 l 25,2,-1
 510 1190 l 25,3,-1
 510 170 l 25,4,-1
 680 170 l 25,5,-1
 680 0 l 25,6,-1
 170 0 l 25,7,-1
 170 170 l 25,8,-1
 340 170 l 25,9,-1
 340 1190 l 25,10,-1
 170 1190 l 25,11,-1
 170 1360 l 29,0,-1
EndSplineSet
Validated: 1
Layer: 3
SplineSet
320 1280 m 29,0,-1
 704 1280 l 25,1,-1
 704 1152 l 25,2,-1
 576 1152 l 25,3,-1
 576 128 l 25,4,-1
 704 128 l 25,5,-1
 704 0 l 25,6,-1
 320 0 l 25,7,-1
 320 128 l 25,8,-1
 448 128 l 25,9,-1
 448 1152 l 25,10,-1
 320 1152 l 25,11,-1
 320 1280 l 29,0,-1
EndSplineSet
Validated: 3073
EndChar

StartChar: J
Encoding: 74 74 45
Width: 1024
VWidth: 0
Flags: MW
LayerCount: 4
Back
Fore
SplineSet
575 1280 m 24,0,1
 735 1280 735 1280 895 1280 c 24,2,3
 928 1280 928 1280 928 1247 c 26,4,-1
 928 1184 l 26,5,6
 928 1153 928 1153 895 1153 c 24,7,8
 864 1153 864 1153 832.5 1153 c 152,-1,9
 801 1153 801 1153 801 1120 c 26,10,-1
 801 129 l 26,11,12
 801 0 801 0 672 0 c 24,13,14
 449 0 449 0 223 0 c 24,15,16
 96 0 96 0 96 129 c 25,17,-1
 96 352 l 26,18,19
 96 385 96 385 128 385 c 152,-1,20
 160 385 160 385 191.5 385 c 152,-1,21
 223 385 223 385 223 352 c 26,22,-1
 223 193 l 26,23,24
 223 130 223 130 289 129 c 24,25,26
 449 129 449 129 608 129 c 24,27,28
 671 129 671 129 672 193 c 25,29,-1
 672 1120 l 26,30,31
 672 1153 672 1153 640 1153 c 152,-1,32
 608 1153 608 1153 576.5 1153 c 152,-1,33
 545 1153 545 1153 545 1184 c 26,34,-1
 545 1247 l 25,35,36
 544 1280 544 1280 575 1280 c 24,0,1
EndSplineSet
Validated: 1
Layer: 2
SplineSet
340 1360 m 29,0,-1
 850 1360 l 25,1,-1
 850 1190 l 25,2,-1
 680 1190 l 25,3,-1
 680 170 l 25,4,-1
 510 0 l 25,5,-1
 170 0 l 25,6,-1
 0 170 l 25,7,-1
 0 510 l 25,8,-1
 170 510 l 25,9,-1
 170 255 l 25,10,-1
 255 170 l 25,11,-1
 425 170 l 25,12,-1
 510 255 l 25,13,-1
 510 1190 l 25,14,-1
 340 1190 l 25,15,-1
 340 1360 l 29,0,-1
EndSplineSet
Validated: 1
Layer: 3
SplineSet
576 1280 m 29,0,-1
 960 1280 l 25,1,-1
 960 1152 l 25,2,-1
 832 1152 l 25,3,-1
 832 128 l 25,4,-1
 704 0 l 25,5,-1
 256 0 l 25,6,-1
 128 128 l 25,7,-1
 128 384 l 25,8,-1
 256 384 l 25,9,-1
 256 192 l 25,10,-1
 320 128 l 25,11,-1
 640 128 l 25,12,-1
 704 192 l 25,13,-1
 704 1152 l 25,14,-1
 576 1152 l 25,15,-1
 576 1280 l 29,0,-1
EndSplineSet
EndChar

StartChar: K
Encoding: 75 75 46
Width: 1024
VWidth: 0
Flags: MW
LayerCount: 4
Back
Fore
SplineSet
129 1247 m 26,0,1
 129 1280 129 1280 161 1280 c 152,-1,2
 193 1280 193 1280 224.5 1280 c 152,-1,3
 256 1280 256 1280 256 1247 c 26,4,-1
 256 801 l 26,5,6
 256 768 256 768 287.5 768 c 152,-1,7
 319 768 319 768 352 801 c 24,8,9
 575 1024 575 1024 801 1247 c 24,10,11
 834 1280 834 1280 864.5 1280 c 152,-1,12
 895 1280 895 1280 895 1247 c 26,13,-1
 895 1184 l 26,14,15
 895 1151 895 1151 864 1120 c 24,16,17
 641 897 641 897 416 672 c 24,18,19
 383 639 383 639 416 608 c 24,20,21
 639 385 639 385 864 160 c 24,22,23
 895 127 895 127 895 96 c 26,24,-1
 895 33 l 26,25,26
 895 0 895 0 863 0 c 152,-1,27
 831 0 831 0 801 33 c 24,28,29
 578 256 578 256 352 479 c 24,30,31
 319 512 319 512 287.5 512 c 152,-1,32
 256 512 256 512 256 479 c 26,33,-1
 256 33 l 26,34,35
 256 0 256 0 224.5 0 c 152,-1,36
 193 0 193 0 161 0 c 152,-1,37
 129 0 129 0 129 33 c 26,38,-1
 129 1247 l 26,0,1
EndSplineSet
Validated: 1
Layer: 2
SplineSet
0 1360 m 29,0,-1
 170 1360 l 29,1,-1
 170 850 l 29,2,-1
 680 1360 l 29,3,-1
 935 1360 l 29,4,-1
 255 680 l 29,5,-1
 935 0 l 29,6,-1
 680 0 l 29,7,-1
 170 510 l 29,8,-1
 170 0 l 29,9,-1
 0 0 l 29,10,-1
 0 1360 l 29,0,-1
EndSplineSet
Validated: 1
Layer: 3
SplineSet
128 1280 m 25,0,-1
 256 1280 l 25,1,-1
 256 704 l 25,2,-1
 736 1280 l 29,3,-1
 896 1280 l 17,4,-1
 384 640 l 9,5,-1
 896 0 l 25,6,-1
 736 0 l 29,7,-1
 256 576 l 25,8,-1
 256 0 l 25,9,-1
 128 0 l 25,10,-1
 128 1280 l 25,0,-1
EndSplineSet
Comment: "* My OCD is getting to me.  I don't like how the right side is +ACIA-Flush+ACIA vertically and the lowercase 'k' is +ACIA-Flushed' horizontally.+AAoA* The central(?) area of the 'K' is to fat..  I managed to work around this on the '+AH4A' and the results came out pleasantly.  I'm not able to exactly explain what I did, but what I did there should probably be done here as well.."
EndChar

StartChar: L
Encoding: 76 76 47
Width: 1024
VWidth: 0
Flags: MW
LayerCount: 4
Back
Fore
SplineSet
161 1280 m 152,-1,1
 193 1280 193 1280 224.5 1280 c 152,-1,2
 256 1280 256 1280 256 1247 c 26,3,-1
 256 160 l 26,4,5
 256 129 256 129 289 129 c 24,6,7
 578 129 578 129 864 129 c 24,8,9
 895 129 895 129 895 96 c 26,10,-1
 895 33 l 26,11,12
 895 0 895 0 864 0 c 24,13,14
 512 0 512 0 160 0 c 24,15,16
 129 0 129 0 129 33 c 26,17,-1
 129 1247 l 26,18,0
 129 1280 129 1280 161 1280 c 152,-1,1
EndSplineSet
Validated: 1
Layer: 2
SplineSet
0 1360 m 29,0,-1
 170 1360 l 25,1,-1
 170 170 l 25,2,-1
 850 170 l 25,3,-1
 850 0 l 25,4,-1
 0 0 l 25,5,-1
 0 1360 l 29,0,-1
EndSplineSet
Validated: 1
Layer: 3
SplineSet
128 1280 m 29,0,-1
 256 1280 l 25,1,-1
 256 128 l 25,2,-1
 896 128 l 25,3,-1
 896 0 l 25,4,-1
 128 0 l 25,5,-1
 128 1280 l 29,0,-1
EndSplineSet
EndChar

StartChar: M
Encoding: 77 77 48
Width: 1024
VWidth: 0
Flags: MW
LayerCount: 4
Back
Fore
SplineSet
63 1247 m 26,0,1
 63 1280 63 1280 96 1280 c 152,-1,2
 129 1280 129 1280 161 1280 c 152,-1,3
 193 1280 193 1280 193 1247 c 26,4,-1
 193 1184 l 26,5,6
 193 1153 193 1153 223 1120 c 24,7,8
 416 927 416 927 416 928 c 24,9,10
 449 897 449 897 480.5 897 c 152,-1,11
 512 897 512 897 545 928 c 24,12,13
 580 961 580 961 735 1120 c 24,14,15
 768 1153 768 1153 768 1184 c 26,16,-1
 768 1247 l 26,17,18
 768 1280 768 1280 799.5 1280 c 152,-1,19
 831 1280 831 1280 863 1280 c 152,-1,20
 895 1280 895 1280 895 1247 c 26,21,-1
 895 33 l 26,22,23
 895 0 895 0 863 0 c 152,-1,24
 831 0 831 0 799.5 0 c 152,-1,25
 768 0 768 0 768 33 c 26,26,-1
 768 928 l 26,27,28
 768 961 768 961 735 928 c 24,29,30
 622 815 622 815 512 705 c 16,31,32
 496 689 496 689 479 688 c 0,33,-1
 449 705 l 8,34,35
 336 818 336 818 223 928 c 24,36,37
 192 961 192 961 193 928 c 25,38,-1
 193 33 l 26,39,40
 193 0 193 0 161 0 c 152,-1,41
 129 0 129 0 96 0 c 152,-1,42
 63 0 63 0 63 33 c 26,43,-1
 63 1247 l 26,0,1
EndSplineSet
Validated: 33
Layer: 2
SplineSet
0 1360 m 29,0,-1
 170 1360 l 29,1,-1
 170 1275 l 29,2,-1
 425 1020 l 29,3,-1
 680 1275 l 29,4,-1
 680 1360 l 29,5,-1
 850 1360 l 29,6,-1
 850 0 l 29,7,-1
 680 0 l 29,8,-1
 680 1020 l 29,9,-1
 425 765 l 29,10,-1
 170 1020 l 29,11,-1
 170 0 l 29,12,-1
 0 0 l 29,13,-1
 0 1360 l 29,0,-1
EndSplineSet
Validated: 1
Layer: 3
SplineSet
64 0 m 29,0,-1
 192 0 l 29,1,-1
 192 1056 l 21,2,-1
 480 672 l 5,3,-1
 768 1056 l 13,4,-1
 768 0 l 29,5,-1
 896 0 l 29,6,-1
 896 1280 l 29,7,-1
 768 1280 l 29,8,-1
 480 896 l 29,9,-1
 192 1280 l 29,10,-1
 64 1280 l 29,11,-1
 64 0 l 29,0,-1
EndSplineSet
Comment: "* I have mixed feelings about this 'M'..  Specifically the central(?) area.."
EndChar

StartChar: N
Encoding: 78 78 49
Width: 1024
VWidth: 0
Flags: MW
LayerCount: 4
Back
Fore
SplineSet
161 1280 m 152,-1,1
 193 1280 193 1280 224.5 1280 c 152,-1,2
 256 1280 256 1280 256 1247 c 26,3,-1
 256 991 l 26,4,5
 256 958 256 958 289 928 c 24,6,7
 496 721 496 721 705 512 c 16,8,9
 738 479 738 479 753 479 c 128,-1,10
 768 479 768 479 768 512 c 10,11,-1
 768 1247 l 26,12,13
 768 1280 768 1280 799.5 1280 c 152,-1,14
 831 1280 831 1280 863 1280 c 152,-1,15
 895 1280 895 1280 895 1247 c 26,16,-1
 895 33 l 26,17,18
 895 0 895 0 863 0 c 152,-1,19
 831 0 831 0 799.5 0 c 152,-1,20
 768 0 768 0 768 33 c 26,21,-1
 768 223 l 26,22,23
 768 256 768 256 735 289 c 24,24,25
 512 512 512 512 289 735 c 24,26,27
 256 768 256 768 256 735 c 26,28,-1
 256 33 l 26,29,30
 256 0 256 0 224.5 0 c 152,-1,31
 193 0 193 0 161 0 c 152,-1,32
 129 0 129 0 129 33 c 26,33,-1
 129 1247 l 26,34,0
 129 1280 129 1280 161 1280 c 152,-1,1
EndSplineSet
Validated: 1
Layer: 2
SplineSet
0 0 m 25,0,-1
 0 1360 l 25,1,-1
 170 1360 l 25,2,-1
 170 1190 l 29,3,-1
 680 680 l 29,4,-1
 680 1360 l 25,5,-1
 850 1360 l 25,6,-1
 850 0 l 25,7,-1
 680 0 l 25,8,-1
 680 425 l 25,9,-1
 170 935 l 25,10,-1
 170 0 l 25,11,-1
 0 0 l 25,0,-1
EndSplineSet
Validated: 1
Layer: 3
SplineSet
128 1280 m 25,0,-1
 256 1280 l 25,1,-1
 256 992 l 29,2,-1
 768 480 l 29,3,-1
 768 1280 l 25,4,-1
 896 1280 l 25,5,-1
 896 0 l 25,6,-1
 768 0 l 25,7,-1
 768 288 l 29,8,-1
 256 800 l 29,9,-1
 256 0 l 25,10,-1
 128 0 l 25,11,-1
 128 1280 l 25,0,-1
EndSplineSet
Comment: "* I think I'm happy with the outcome of this 'N'.."
EndChar

StartChar: O
Encoding: 79 79 50
Width: 1024
VWidth: 0
Flags: MW
LayerCount: 4
Back
Fore
SplineSet
256 1087 m 26,0,1
 256 193 l 26,2,3
 256 130 256 130 319 129 c 0,4,-1
 705 129 l 0,5,6
 768 129 768 129 768 193 c 10,7,8
 768 1087 l 26,9,10
 768 1153 768 1153 705 1153 c 0,11,12
 512 1153 512 1153 319 1153 c 0,13,14
 256 1153 256 1153 256 1087 c 26,0,1
129 1153 m 26,15,16
 129 1280 129 1280 256 1280 c 0,17,18
 512 1280 512 1280 768 1280 c 0,19,20
 895 1280 895 1280 895 1153 c 26,21,-1
 895 129 l 18,22,23
 895 0 895 0 768 0 c 0,24,25
 512 0 512 0 256 0 c 0,26,27
 129 0 129 0 129 129 c 26,28,-1
 129 1153 l 26,15,16
EndSplineSet
Validated: 1
Layer: 2
SplineSet
170 1111 m 21,0,-1
 170 261 l 5,1,-1
 255 176 l 13,2,-1
 595 176 l 21,3,-1
 680 261 l 5,4,-1
 680 1111 l 13,5,-1
 595 1196 l 29,6,-1
 255 1196 l 29,7,-1
 170 1111 l 21,0,-1
0 1196 m 29,8,-1
 170 1366 l 29,9,-1
 680 1366 l 29,10,-1
 850 1196 l 29,11,-1
 850 176 l 29,12,-1
 680 6 l 29,13,-1
 170 6 l 29,14,-1
 0 176 l 29,15,-1
 0 1196 l 29,8,-1
EndSplineSet
Validated: 1
Layer: 3
SplineSet
256 1088 m 29,0,-1
 256 192 l 29,1,-1
 320 128 l 29,2,-1
 704 128 l 29,3,-1
 768 192 l 29,4,-1
 768 1088 l 29,5,-1
 704 1152 l 29,6,-1
 320 1152 l 29,7,-1
 256 1088 l 29,0,-1
128 1152 m 29,8,-1
 256 1280 l 29,9,-1
 768 1280 l 29,10,-1
 896 1152 l 29,11,-1
 896 128 l 29,12,-1
 768 0 l 29,13,-1
 256 0 l 29,14,-1
 128 128 l 29,15,-1
 128 1152 l 29,8,-1
EndSplineSet
EndChar

StartChar: P
Encoding: 80 80 51
Width: 1024
VWidth: 0
Flags: MW
LayerCount: 4
Back
Fore
SplineSet
256 1120 m 10,0,-1
 256 672 l 18,1,2
 256 641 256 641 289 641 c 0,3,4
 512 641 512 641 705 641 c 24,5,6
 768 641 768 641 768 705 c 26,7,-1
 768 1087 l 26,8,9
 768 1153 768 1153 705 1153 c 0,10,11
 322 1153 322 1153 289 1153 c 152,-1,12
 256 1153 256 1153 256 1120 c 10,0,-1
160 1280 m 0,13,14
 449 1280 449 1280 768 1280 c 0,15,16
 895 1280 895 1280 895 1153 c 26,17,-1
 895 641 l 18,18,19
 895 512 895 512 768 512 c 24,20,21
 289 512 l 24,22,23
 256 512 256 512 256 479 c 26,24,-1
 256 33 l 18,25,26
 256 0 256 0 224.5 0 c 128,-1,27
 193 0 193 0 161 0 c 128,-1,28
 129 0 129 0 129 33 c 26,29,-1
 129 1247 l 26,30,31
 129 1280 129 1280 160 1280 c 0,13,14
EndSplineSet
Validated: 1
Layer: 2
SplineSet
170 1190 m 29,0,-1
 170 680 l 29,1,-1
 595 680 l 29,2,-1
 680 765 l 29,3,-1
 680 1105 l 29,4,-1
 595 1190 l 29,5,-1
 170 1190 l 29,0,-1
0 0 m 29,6,-1
 0 1360 l 29,7,-1
 680 1360 l 29,8,-1
 850 1190 l 29,9,-1
 850 680 l 29,10,-1
 680 510 l 29,11,-1
 170 510 l 29,12,-1
 170 0 l 29,13,-1
 0 0 l 29,6,-1
EndSplineSet
Validated: 1
Layer: 3
SplineSet
256 1152 m 29,0,-1
 704 1152 l 29,1,-1
 768 1088 l 29,2,-1
 768 704 l 29,3,-1
 704 640 l 29,4,-1
 256 640 l 29,5,-1
 256 1152 l 29,0,-1
128 0 m 29,6,-1
 256 0 l 29,7,-1
 256 512 l 29,8,-1
 768 512 l 29,9,-1
 896 640 l 29,10,-1
 896 1152 l 29,11,-1
 768 1280 l 29,12,-1
 128 1280 l 29,13,-1
 128 0 l 29,6,-1
EndSplineSet
Validated: 3081
EndChar

StartChar: Q
Encoding: 81 81 52
Width: 1024
VWidth: 0
Flags: MW
LayerCount: 4
Back
Fore
SplineSet
256 1087 m 26,0,-1
 256 193 l 26,1,2
 256 130 256 130 319 129 c 24,3,4
 399 129 399 129 479 129 c 24,5,6
 512 129 512 129 512 161 c 152,-1,7
 512 193 512 193 480.5 193 c 152,-1,8
 449 193 449 193 449 224.5 c 152,-1,9
 449 256 449 256 479 256 c 24,10,11
 542 256 542 256 608 256 c 24,12,13
 641 256 641 256 641 224.5 c 152,-1,14
 641 193 641 193 673 193 c 152,-1,15
 705 193 705 193 736.5 193 c 152,-1,16
 768 193 768 193 768 223 c 26,17,-1
 768 1087 l 26,18,19
 768 1153 768 1153 705 1153 c 24,20,21
 512 1153 512 1153 319 1153 c 24,22,23
 256 1153 256 1153 256 1087 c 26,0,-1
129 1153 m 26,24,25
 129 1280 129 1280 256 1280 c 24,26,27
 512 1280 512 1280 768 1280 c 24,28,29
 895 1280 895 1280 895 1153 c 26,30,-1
 895 160 l 26,31,32
 895 128 895 128 863 128 c 152,-1,33
 831 128 831 128 831 95.5 c 152,-1,34
 831 63 831 63 863 31.5 c 152,-1,35
 895 0 895 0 928 -31.5 c 152,-1,36
 961 -63 961 -63 961 -95 c 152,-1,37
 961 -127 961 -127 928 -127 c 152,-1,38
 895 -127 895 -127 863 -127 c 152,-1,39
 831 -127 831 -127 799.5 -95 c 152,-1,40
 768 -63 768 -63 736.5 -31.5 c 152,-1,41
 705 0 705 0 672 0 c 24,42,43
 465 0 465 0 256 0 c 24,44,45
 129 0 129 0 129 129 c 26,46,-1
 129 1153 l 26,24,25
EndSplineSet
Validated: 1
Layer: 2
SplineSet
680 255 m 25,0,-1
 680 1105 l 25,1,-1
 595 1190 l 25,2,-1
 255 1190 l 25,3,-1
 170 1105 l 25,4,-1
 170 255 l 25,5,-1
 255 170 l 25,6,-1
 340 170 l 25,7,-1
 340 340 l 25,8,-1
 510 340 l 25,9,-1
 510 170 l 25,10,-1
 595 170 l 25,11,-1
 680 255 l 25,0,-1
0 1190 m 25,12,-1
 170 1360 l 25,13,-1
 680 1360 l 25,14,-1
 850 1190 l 25,15,-1
 850 170 l 17,16,-1
 680 0 l 9,17,-1
 575 0 l 25,18,-1
 745 -170 l 25,19,-1
 530 -170 l 21,20,-1
 360 0 l 13,21,-1
 170 0 l 25,22,-1
 0 170 l 25,23,-1
 0 1190 l 25,12,-1
EndSplineSet
Validated: 1
Layer: 3
SplineSet
256 1088 m 25,0,-1
 256 192 l 25,1,-1
 320 128 l 25,2,-1
 576 128 l 25,3,-1
 512 192 l 25,4,-1
 448 256 l 25,5,-1
 640 256 l 25,6,-1
 704 192 l 25,7,-1
 736 160 l 21,8,-1
 768 192 l 1,9,-1
 768 1088 l 9,10,-1
 704 1152 l 25,11,-1
 320 1152 l 25,12,-1
 256 1088 l 25,0,-1
128 1152 m 25,13,-1
 256 1280 l 25,14,-1
 768 1280 l 25,15,-1
 896 1152 l 25,16,-1
 896 128 l 25,17,-1
 832 64 l 25,18,-1
 960 -64 l 25,19,-1
 768 -64 l 25,20,-1
 704 0 l 25,21,-1
 256 0 l 25,22,-1
 128 128 l 25,23,-1
 128 1152 l 25,13,-1
EndSplineSet
Comment: "* Maybe have the bottom right (Corner) actually look more like a corner, instead of how it looking like it's been +ACIA-raised+ACIA."
EndChar

StartChar: R
Encoding: 82 82 53
Width: 1024
VWidth: 0
Flags: MW
LayerCount: 4
Back
Fore
SplineSet
256 1120 m 26,0,-1
 256 672 l 26,1,2
 256 641 256 641 289 641 c 24,3,4
 496 641 496 641 705 641 c 24,5,6
 768 641 768 641 768 705 c 26,7,-1
 768 1087 l 26,8,9
 768 1153 768 1153 705 1153 c 24,10,11
 498 1153 498 1153 289 1153 c 24,12,13
 256 1153 256 1153 256 1120 c 26,0,-1
160 1280 m 24,14,15
 465 1280 465 1280 768 1280 c 24,16,17
 895 1280 895 1280 895 1153 c 26,18,-1
 895 641 l 26,19,20
 895 512 895 512 768 512 c 24,21,22
 655 512 655 512 545 512 c 24,23,24
 512 512 512 512 545 479 c 24,25,26
 705 319 705 319 864 160 c 24,27,28
 895 127 895 127 895 96 c 26,29,-1
 895 33 l 26,30,31
 895 0 895 0 863 0 c 152,-1,32
 831 0 831 0 801 33 c 24,33,34
 578 256 578 256 352 479 c 24,35,36
 319 512 319 512 287.5 512 c 152,-1,37
 256 512 256 512 256 479 c 26,38,-1
 256 33 l 26,39,40
 256 0 256 0 224.5 0 c 152,-1,41
 193 0 193 0 161 0 c 152,-1,42
 129 0 129 0 129 33 c 26,43,-1
 129 1247 l 26,44,45
 129 1280 129 1280 160 1280 c 24,14,15
EndSplineSet
Validated: 1
Layer: 2
SplineSet
170 1190 m 25,0,-1
 170 680 l 25,1,-1
 595 680 l 25,2,-1
 680 765 l 25,3,-1
 680 1105 l 25,4,-1
 595 1190 l 25,5,-1
 170 1190 l 25,0,-1
0 0 m 25,6,-1
 0 1360 l 25,7,-1
 680 1360 l 25,8,-1
 850 1190 l 25,9,-1
 850 680 l 25,10,-1
 680 510 l 17,11,-1
 340 510 l 5,12,-1
 850 0 l 1,13,-1
 595 0 l 1,14,-1
 170 425 l 9,15,-1
 170 0 l 25,16,-1
 0 0 l 25,6,-1
EndSplineSet
Validated: 1
Layer: 3
SplineSet
256 1152 m 25,0,-1
 256 640 l 25,1,-1
 704 640 l 25,2,-1
 768 704 l 25,3,-1
 768 1088 l 25,4,-1
 704 1152 l 25,5,-1
 256 1152 l 25,0,-1
128 1280 m 25,6,-1
 768 1280 l 25,7,-1
 896 1152 l 25,8,-1
 896 640 l 25,9,-1
 768 512 l 25,10,-1
 432 512 l 17,11,-1
 896 0 l 9,12,-1
 720 0 l 29,13,-1
 256 512 l 25,14,-1
 256 0 l 25,15,-1
 128 0 l 25,16,-1
 128 1280 l 25,6,-1
EndSplineSet
Comment: "* Refer to 'K'"
EndChar

StartChar: S
Encoding: 83 83 54
Width: 1024
VWidth: 0
Flags: MW
LayerCount: 4
Back
Fore
SplineSet
129 1153 m 26,0,1
 129 1280 129 1280 256 1280 c 24,2,3
 512 1280 512 1280 768 1280 c 24,4,5
 895 1280 895 1280 895 1153 c 26,6,-1
 895 991 l 26,7,8
 895 959 895 959 863 959.5 c 152,-1,9
 831 960 831 960 799.5 960 c 152,-1,10
 768 960 768 960 768 991 c 26,11,-1
 768 1087 l 26,12,13
 768 1153 768 1153 705 1153 c 24,14,15
 512 1153 512 1153 319 1153 c 24,16,17
 256 1153 256 1153 256 1087 c 26,18,-1
 256 768 l 26,19,20
 256 705 256 705 319 705 c 24,21,22
 542 705 542 705 768 705 c 24,23,24
 895 705 895 705 895 575 c 26,25,-1
 895 129 l 26,26,27
 895 0 895 0 768 0 c 24,28,29
 512 0 512 0 256 0 c 24,30,31
 129 0 129 0 129 129 c 26,32,-1
 129 289 l 26,33,34
 129 321 129 321 161 320.5 c 152,-1,35
 193 320 193 320 224.5 320 c 152,-1,36
 256 320 256 320 256 289 c 26,37,-1
 256 193 l 26,38,39
 256 130 256 130 319 129 c 24,40,41
 512 129 512 129 705 129 c 24,42,43
 768 129 768 129 768 193 c 26,44,-1
 768 512 l 26,45,46
 768 575 768 575 705 575 c 24,47,48
 482 575 482 575 256 575 c 24,49,50
 129 575 129 575 129 705 c 26,51,-1
 129 1153 l 26,0,1
EndSplineSet
Validated: 1
Layer: 2
SplineSet
0 1190 m 29,0,-1
 170 1360 l 25,1,-1
 680 1360 l 25,2,-1
 850 1190 l 25,3,-1
 850 1020 l 25,4,-1
 680 1020 l 25,5,-1
 680 1105 l 25,6,-1
 595 1190 l 25,7,-1
 255 1190 l 25,8,-1
 170 1105 l 25,9,-1
 170 935 l 25,10,-1
 255 850 l 25,11,-1
 680 850 l 25,12,-1
 850 680 l 25,13,-1
 850 170 l 25,14,-1
 680 0 l 25,15,-1
 170 0 l 25,16,-1
 0 170 l 25,17,-1
 0 340 l 25,18,-1
 170 340 l 25,19,-1
 170 255 l 25,20,-1
 255 170 l 25,21,-1
 595 170 l 25,22,-1
 680 255 l 25,23,-1
 680 595 l 25,24,-1
 595 680 l 25,25,-1
 170 680 l 25,26,-1
 0 850 l 25,27,-1
 0 1190 l 29,0,-1
EndSplineSet
Validated: 1
Layer: 3
SplineSet
768 960 m 29,0,-1
 768 1088 l 25,1,-1
 704 1152 l 25,2,-1
 320 1152 l 25,3,-1
 256 1088 l 25,4,-1
 256 768 l 25,5,-1
 320 704 l 25,6,-1
 768 704 l 25,7,-1
 896 576 l 25,8,-1
 896 128 l 25,9,-1
 768 0 l 25,10,-1
 256 0 l 25,11,-1
 128 128 l 25,12,-1
 128 320 l 25,13,-1
 256 320 l 25,14,-1
 256 192 l 25,15,-1
 320 128 l 25,16,-1
 704 128 l 25,17,-1
 768 192 l 25,18,-1
 768 512 l 25,19,-1
 704 576 l 25,20,-1
 256 576 l 25,21,-1
 128 704 l 25,22,-1
 128 1152 l 25,23,-1
 256 1280 l 25,24,-1
 768 1280 l 25,25,-1
 896 1152 l 25,26,-1
 896 960 l 25,27,-1
 768 960 l 29,0,-1
EndSplineSet
EndChar

StartChar: T
Encoding: 84 84 55
Width: 1024
VWidth: 0
Flags: MW
LayerCount: 4
Back
Fore
SplineSet
160 1280 m 24,0,1
 512 1280 512 1280 864 1280 c 24,2,3
 895 1280 895 1280 895 1247 c 26,4,-1
 895 1184 l 26,5,6
 895 1153 895 1153 864 1153 c 24,7,8
 735 1153 735 1153 608 1153 c 24,9,10
 575 1153 575 1153 575 1120 c 26,11,-1
 575 33 l 26,12,13
 575 0 575 0 543.5 0 c 152,-1,14
 512 0 512 0 480.5 0 c 152,-1,15
 449 0 449 0 449 33 c 26,16,-1
 449 1120 l 26,17,18
 449 1153 449 1153 416 1153 c 24,19,20
 287 1153 287 1153 160 1153 c 24,21,22
 129 1153 129 1153 129 1184 c 26,23,-1
 129 1247 l 26,24,25
 129 1280 129 1280 160 1280 c 24,0,1
EndSplineSet
Validated: 1
Layer: 2
SplineSet
0 1360 m 29,0,-1
 850 1360 l 25,1,-1
 850 1190 l 25,2,-1
 510 1190 l 25,3,-1
 510 0 l 25,4,-1
 340 0 l 25,5,-1
 340 1190 l 25,6,-1
 0 1190 l 25,7,-1
 0 1360 l 29,0,-1
EndSplineSet
Validated: 1
Layer: 3
SplineSet
128 1280 m 29,0,-1
 896 1280 l 25,1,-1
 896 1152 l 25,2,-1
 576 1152 l 25,3,-1
 576 0 l 25,4,-1
 448 0 l 25,5,-1
 448 1152 l 25,6,-1
 128 1152 l 25,7,-1
 128 1280 l 29,0,-1
EndSplineSet
EndChar

StartChar: U
Encoding: 85 85 56
Width: 1024
VWidth: 0
Flags: MW
LayerCount: 4
Back
Fore
SplineSet
161 1280 m 152,-1,1
 193 1280 193 1280 224.5 1280 c 152,-1,2
 256 1280 256 1280 256 1247 c 26,3,-1
 256 193 l 26,4,5
 256 130 256 130 319 129 c 24,6,7
 512 129 512 129 705 129 c 24,8,9
 768 129 768 129 768 193 c 26,10,-1
 768 1247 l 26,11,12
 768 1280 768 1280 799.5 1280 c 152,-1,13
 831 1280 831 1280 863 1280 c 152,-1,14
 895 1280 895 1280 895 1247 c 26,15,-1
 895 129 l 26,16,17
 895 0 895 0 768 0 c 24,18,19
 512 0 512 0 256 0 c 24,20,21
 129 0 129 0 129 129 c 26,22,-1
 129 1247 l 26,23,0
 129 1280 129 1280 161 1280 c 152,-1,1
EndSplineSet
Validated: 1
Layer: 2
SplineSet
0 1360 m 29,0,-1
 170 1360 l 25,1,-1
 170 255 l 25,2,-1
 255 170 l 25,3,-1
 595 170 l 25,4,-1
 680 255 l 25,5,-1
 680 1360 l 25,6,-1
 850 1360 l 25,7,-1
 850 170 l 25,8,-1
 680 0 l 25,9,-1
 170 0 l 25,10,-1
 0 170 l 25,11,-1
 0 1360 l 29,0,-1
EndSplineSet
Validated: 1
Layer: 3
SplineSet
128 1280 m 29,0,-1
 256 1280 l 25,1,-1
 256 192 l 25,2,-1
 320 128 l 25,3,-1
 704 128 l 25,4,-1
 768 192 l 25,5,-1
 768 1280 l 25,6,-1
 896 1280 l 25,7,-1
 896 128 l 25,8,-1
 768 0 l 25,9,-1
 256 0 l 25,10,-1
 128 128 l 25,11,-1
 128 1280 l 29,0,-1
EndSplineSet
EndChar

StartChar: V
Encoding: 86 86 57
Width: 1024
VWidth: 0
Flags: MW
LayerCount: 4
Back
Fore
SplineSet
161 1280 m 152,-1,1
 193 1280 193 1280 224.5 1280 c 152,-1,2
 256 1280 256 1280 262 1247 c 24,3,4
 416 475 416 475 502 223 c 24,5,6
 512 190 512 190 522 223 c 24,7,8
 606 475 606 475 762 1247 c 24,9,10
 768 1280 768 1280 799.5 1280 c 152,-1,11
 831 1280 831 1280 863 1280 c 152,-1,12
 895 1280 895 1280 891 1247 c 24,13,14
 737 479 737 479 588 33 c 24,15,16
 578 0 578 0 545 0 c 24,17,18
 529 0 529 0 512.5 0 c 152,-1,19
 496 0 496 0 479 0 c 24,20,21
 446 0 446 0 436 33 c 24,22,23
 282 502 282 502 133 1247 c 24,24,0
 129 1280 129 1280 161 1280 c 152,-1,1
EndSplineSet
Validated: 1
Layer: 2
SplineSet
170 1360 m 25,0,-1
 425 340 l 25,1,-1
 680 1360 l 25,2,-1
 850 1360 l 25,3,-1
 510 0 l 21,4,-1
 340 0 l 1,5,-1
 0 1360 l 9,6,-1
 170 1360 l 25,0,-1
EndSplineSet
Validated: 1
Layer: 3
SplineSet
256 1280 m 17,0,-1
 384 640 l 1,1,-1
 448 384 l 1,2,-1
 512 192 l 1,3,-1
 576 384 l 1,4,-1
 640 640 l 1,5,-1
 768 1280 l 9,6,-1
 896 1280 l 1,7,-1
 768 640 l 1,8,-1
 704 384 l 1,9,-1
 640 192 l 1,10,-1
 544 0 l 5,11,-1
 480 0 l 1,12,-1
 384 192 l 1,13,-1
 320 384 l 1,14,-1
 256 640 l 1,15,-1
 128 1280 l 9,16,-1
 256 1280 l 17,0,-1
EndSplineSet
Comment: "* This 'V' is a slut..  Not to be dirty or anything..  Just not sure if I like it.."
EndChar

StartChar: W
Encoding: 87 87 58
Width: 1024
VWidth: 0
Flags: MW
LayerCount: 4
Back
Fore
SplineSet
895 33 m 26,0,1
 895 0 895 0 863 0 c 152,-1,2
 831 0 831 0 799.5 0 c 152,-1,3
 768 0 768 0 768 33 c 26,4,-1
 768 96 l 26,5,6
 768 129 768 129 735 160 c 24,7,8
 639 256 639 256 545 352 c 24,9,10
 512 385 512 385 480.5 385 c 152,-1,11
 449 385 449 385 416 352 c 24,12,13
 223 159 223 159 223 160 c 24,14,15
 192 127 192 127 193 96 c 25,16,-1
 193 33 l 26,17,18
 193 0 193 0 161 0 c 152,-1,19
 129 0 129 0 96 0 c 152,-1,20
 63 0 63 0 63 33 c 26,21,-1
 63 1247 l 26,22,23
 63 1280 63 1280 96 1280 c 152,-1,24
 129 1280 129 1280 161 1280 c 152,-1,25
 193 1280 193 1280 193 1247 c 26,26,-1
 193 352 l 26,27,28
 193 319 193 319 223 352 c 24,29,30
 336 465 336 465 449 575 c 16,31,32
 465 591 465 591 479 592 c 0,33,-1
 512 575 l 8,34,35
 625 462 625 462 735 352 c 24,36,37
 768 319 768 319 768 352 c 26,38,-1
 768 1247 l 26,39,40
 768 1280 768 1280 799.5 1280 c 152,-1,41
 831 1280 831 1280 863 1280 c 152,-1,42
 895 1280 895 1280 895 1247 c 26,43,-1
 895 33 l 26,0,1
EndSplineSet
Validated: 33
Layer: 2
SplineSet
850 0 m 29,0,-1
 680 0 l 29,1,-1
 680 85 l 29,2,-1
 425 340 l 29,3,-1
 170 85 l 29,4,-1
 170 0 l 29,5,-1
 0 0 l 29,6,-1
 0 1360 l 29,7,-1
 170 1360 l 29,8,-1
 170 340 l 29,9,-1
 425 595 l 29,10,-1
 680 340 l 29,11,-1
 680 1360 l 29,12,-1
 850 1360 l 29,13,-1
 850 0 l 29,0,-1
EndSplineSet
Validated: 1
Layer: 3
SplineSet
64 1280 m 29,0,-1
 192 1280 l 29,1,-1
 192 224 l 21,2,-1
 480 608 l 5,3,-1
 768 224 l 13,4,-1
 768 1280 l 29,5,-1
 896 1280 l 29,6,-1
 896 0 l 29,7,-1
 768 0 l 29,8,-1
 480 384 l 29,9,-1
 192 0 l 29,10,-1
 64 0 l 29,11,-1
 64 1280 l 29,0,-1
EndSplineSet
Comment: "* Refer to 'M'+AAoA-NOTE: Upside down 'M'"
EndChar

StartChar: X
Encoding: 88 88 59
Width: 1024
VWidth: 0
Flags: MW
LayerCount: 4
Back
Fore
SplineSet
161 1280 m 152,-1,1
 193 1280 193 1280 224.5 1280 c 152,-1,2
 256 1280 256 1280 272 1247 c 24,3,4
 385 1024 385 1024 496 801 c 24,5,6
 512 768 512 768 528 801 c 24,7,8
 641 1024 641 1024 752 1247 c 24,9,10
 768 1280 768 1280 799.5 1280 c 152,-1,11
 831 1280 831 1280 863 1280 c 152,-1,12
 895 1280 895 1280 881 1247 c 26,13,-1
 655 801 l 26,14,15
 641 768 641 768 641 735 c 26,16,-1
 641 545 l 26,17,18
 641 512 641 512 655 479 c 24,19,20
 768 256 768 256 881 33 c 24,21,22
 897 0 897 0 864 0 c 152,-1,23
 831 0 831 0 799.5 0 c 152,-1,24
 768 0 768 0 752 33 c 24,25,26
 639 256 639 256 528 479 c 24,27,28
 512 512 512 512 496 479 c 24,29,30
 383 256 383 256 272 33 c 24,31,32
 256 0 256 0 224.5 0 c 152,-1,33
 193 0 193 0 161 0 c 152,-1,34
 129 0 129 0 143 33 c 24,35,36
 256 256 256 256 369 479 c 24,37,38
 383 512 383 512 383 545 c 26,39,-1
 383 735 l 26,40,41
 383 768 383 768 369 801 c 24,42,43
 256 1024 256 1024 143 1247 c 24,44,0
 129 1280 129 1280 161 1280 c 152,-1,1
EndSplineSet
Validated: 1
Layer: 2
SplineSet
170 1360 m 29,0,-1
 425 850 l 25,1,-1
 680 1360 l 25,2,-1
 850 1360 l 25,3,-1
 510 680 l 25,4,-1
 850 0 l 25,5,-1
 680 0 l 25,6,-1
 425 510 l 25,7,-1
 170 0 l 25,8,-1
 0 0 l 25,9,-1
 340 680 l 25,10,-1
 0 1360 l 25,11,-1
 170 1360 l 29,0,-1
EndSplineSet
Validated: 1
Layer: 3
SplineSet
256 1280 m 29,0,-1
 512 768 l 25,1,-1
 768 1280 l 25,2,-1
 896 1280 l 25,3,-1
 640 640 l 25,4,-1
 896 0 l 25,5,-1
 768 0 l 25,6,-1
 512 512 l 25,7,-1
 256 0 l 25,8,-1
 128 0 l 25,9,-1
 384 640 l 25,10,-1
 128 1280 l 25,11,-1
 256 1280 l 29,0,-1
EndSplineSet
Validated: 3073
Comment: "This fucker looks like it has aids..+AAoA* Refer to '*'"
EndChar

StartChar: Y
Encoding: 89 89 60
Width: 1024
VWidth: 0
Flags: MW
LayerCount: 4
Back
Fore
SplineSet
161 1280 m 152,-1,1
 193 1280 193 1280 224.5 1280 c 152,-1,2
 256 1280 256 1280 270 1247 c 24,3,4
 385 991 385 991 498 735 c 24,5,6
 512 702 512 702 526 735 c 24,7,8
 641 991 641 991 754 1247 c 24,9,10
 768 1280 768 1280 799.5 1280 c 152,-1,11
 831 1280 831 1280 863 1280 c 152,-1,12
 895 1280 895 1280 881 1247 c 24,13,14
 736 928 736 928 592 608 c 24,15,16
 576 575 576 575 575 545 c 25,17,-1
 575 33 l 26,18,19
 575 0 575 0 543.5 0 c 152,-1,20
 512 0 512 0 480.5 0 c 152,-1,21
 449 0 449 0 449 33 c 26,22,-1
 449 545 l 26,23,24
 449 578 449 578 432 608 c 24,25,26
 287 927 287 927 143 1247 c 24,27,0
 129 1280 129 1280 161 1280 c 152,-1,1
EndSplineSet
Validated: 1
Layer: 2
SplineSet
172 1364 m 29,0,-1
 427 682 l 29,1,-1
 682 1364 l 29,2,-1
 852 1364 l 29,3,-1
 512 530 l 29,4,-1
 512 0 l 29,5,-1
 342 0 l 29,6,-1
 342 531 l 29,7,-1
 2 1364 l 29,8,-1
 172 1364 l 29,0,-1
EndSplineSet
Validated: 1
Layer: 3
SplineSet
256 1280 m 29,0,-1
 512 704 l 25,1,-1
 768 1280 l 25,2,-1
 896 1280 l 25,3,-1
 576 576 l 25,4,-1
 576 0 l 25,5,-1
 448 0 l 25,6,-1
 448 576 l 25,7,-1
 128 1280 l 25,8,-1
 256 1280 l 29,0,-1
EndSplineSet
Validated: 3073
EndChar

StartChar: Z
Encoding: 90 90 61
Width: 1024
VWidth: 0
Flags: MW
LayerCount: 4
Back
Fore
SplineSet
160 1280 m 24,0,1
 512 1280 512 1280 864 1280 c 24,2,3
 895 1280 895 1280 895 1247 c 26,4,-1
 895 928 l 26,5,6
 895 895 895 895 864 864 c 24,7,8
 575 575 575 575 289 289 c 24,9,10
 256 256 256 256 256 223 c 26,11,-1
 256 160 l 26,12,13
 256 129 256 129 289 129 c 24,14,15
 578 129 578 129 864 129 c 24,16,17
 895 129 895 129 895 96 c 26,18,-1
 895 33 l 26,19,20
 895 0 895 0 864 0 c 24,21,22
 512 0 512 0 160 0 c 24,23,24
 129 0 129 0 129 33 c 26,25,-1
 129 289 l 26,26,27
 129 322 129 322 160 352 c 24,28,29
 449 641 449 641 735 928 c 24,30,31
 768 961 768 961 768 991 c 26,32,-1
 768 1120 l 26,33,34
 768 1153 768 1153 735 1153 c 24,35,36
 446 1153 446 1153 160 1153 c 24,37,38
 129 1153 129 1153 129 1184 c 26,39,-1
 129 1247 l 26,40,41
 129 1280 129 1280 160 1280 c 24,0,1
EndSplineSet
Validated: 1
Layer: 2
SplineSet
0 1364 m 29,0,-1
 853 1364 l 29,1,-1
 853 938 l 21,2,-1
 170 340 l 5,3,-1
 170 170 l 13,4,-1
 853 170 l 29,5,-1
 853 0 l 29,6,-1
 0 0 l 29,7,-1
 0 425 l 21,8,-1
 683 1023 l 5,9,-1
 683 1194 l 13,10,-1
 0 1194 l 29,11,-1
 0 1364 l 29,0,-1
EndSplineSet
Validated: 1
Layer: 3
SplineSet
128 1280 m 25,0,-1
 896 1280 l 25,1,-1
 896 927 l 29,2,-1
 256 287 l 29,3,-1
 256 128 l 25,4,-1
 896 128 l 25,5,-1
 896 0 l 25,6,-1
 128 0 l 25,7,-1
 128 351 l 29,8,-1
 768 991 l 29,9,-1
 768 1152 l 25,10,-1
 128 1152 l 25,11,-1
 128 1280 l 25,0,-1
EndSplineSet
Validated: 3073
Comment: "* What I did with the '+AH4A'..  Do it here too.  I don't like how everything isn't even...  (Look at bitmap if unsure what I mean)"
EndChar

StartChar: bracketleft
Encoding: 91 91 62
Width: 1024
VWidth: 0
Flags: MW
LayerCount: 4
Back
Fore
SplineSet
289 1280 m 24,0,1
 482 1280 482 1280 672 1280 c 24,2,3
 705 1280 705 1280 705 1247 c 26,4,-1
 705 1184 l 26,5,6
 705 1153 705 1153 672 1153 c 24,7,8
 543 1153 543 1153 416 1153 c 24,9,10
 383 1153 383 1153 383 1120 c 26,11,-1
 383 160 l 26,12,13
 383 129 383 129 416 129 c 24,14,15
 545 129 545 129 672 129 c 24,16,17
 705 129 705 129 705 96 c 26,18,-1
 705 33 l 26,19,20
 705 0 705 0 672 0 c 24,21,22
 479 0 479 0 289 0 c 24,23,24
 256 0 256 0 256 33 c 26,25,-1
 256 1247 l 26,26,27
 256 1280 256 1280 289 1280 c 24,0,1
EndSplineSet
Validated: 1
Layer: 2
SplineSet
170 1360 m 29,0,-1
 680 1360 l 29,1,-1
 680 1190 l 29,2,-1
 340 1190 l 29,3,-1
 340 170 l 29,4,-1
 680 170 l 29,5,-1
 680 0 l 29,6,-1
 170 0 l 29,7,-1
 170 1360 l 29,0,-1
EndSplineSet
Validated: 1
Layer: 3
SplineSet
384 1152 m 29,0,-1
 704 1152 l 29,1,-1
 704 1280 l 29,2,-1
 256 1280 l 29,3,-1
 256 0 l 29,4,-1
 704 0 l 29,5,-1
 704 128 l 29,6,-1
 384 128 l 29,7,-1
 384 1152 l 29,0,-1
EndSplineSet
Validated: 3081
EndChar

StartChar: backslash
Encoding: 92 92 63
Width: 1024
VWidth: 0
Flags: MW
LayerCount: 4
Back
Fore
SplineSet
161 1280 m 152,-1,1
 193 1280 193 1280 224.5 1280 c 152,-1,2
 256 1280 256 1280 270 1247 c 26,3,-1
 819 33 l 26,4,5
 833 0 833 0 800.5 0 c 152,-1,6
 768 0 768 0 736.5 0 c 152,-1,7
 705 0 705 0 690 33 c 26,8,-1
 141 1247 l 26,9,0
 129 1280 129 1280 161 1280 c 152,-1,1
EndSplineSet
Validated: 1
Layer: 2
SplineSet
340 1360 m 29,0,-1
 170 1360 l 29,1,-1
 680 0 l 29,2,-1
 850 0 l 29,3,-1
 340 1360 l 29,0,-1
EndSplineSet
Validated: 9
Layer: 3
SplineSet
704 0 m 29,0,-1
 128 1280 l 29,1,-1
 256 1280 l 29,2,-1
 832 0 l 29,3,-1
 704 0 l 29,0,-1
EndSplineSet
Validated: 3073
EndChar

StartChar: bracketright
Encoding: 93 93 64
Width: 1024
VWidth: 0
Flags: MW
LayerCount: 4
Back
Fore
SplineSet
672 0 m 24,0,1
 479 0 479 0 289 0 c 24,2,3
 256 0 256 0 256 33 c 26,4,-1
 256 96 l 26,5,6
 256 129 256 129 289 129 c 24,7,8
 418 129 418 129 545 129 c 24,9,10
 576 129 576 129 575 160 c 25,11,-1
 575 1120 l 26,12,13
 575 1153 575 1153 545 1153 c 24,14,15
 416 1153 416 1153 289 1153 c 24,16,17
 256 1153 256 1153 256 1184 c 26,18,-1
 256 1247 l 26,19,20
 256 1280 256 1280 289 1280 c 24,21,22
 482 1280 482 1280 672 1280 c 24,23,24
 705 1280 705 1280 705 1247 c 26,25,-1
 705 33 l 26,26,27
 705 0 705 0 672 0 c 24,0,1
EndSplineSet
Validated: 1
Layer: 2
SplineSet
680 0 m 29,0,-1
 170 0 l 29,1,-1
 170 170 l 29,2,-1
 510 170 l 29,3,-1
 510 1190 l 29,4,-1
 170 1190 l 29,5,-1
 170 1360 l 29,6,-1
 680 1360 l 29,7,-1
 680 0 l 29,0,-1
EndSplineSet
Validated: 1
Layer: 3
SplineSet
576 128 m 29,0,-1
 256 128 l 29,1,-1
 256 0 l 29,2,-1
 704 0 l 29,3,-1
 704 1280 l 29,4,-1
 256 1280 l 29,5,-1
 256 1152 l 29,6,-1
 576 1152 l 29,7,-1
 576 128 l 29,0,-1
EndSplineSet
Validated: 3081
EndChar

StartChar: asciicircum
Encoding: 94 94 65
Width: 1024
VWidth: 0
Flags: MW
LayerCount: 4
Back
Fore
SplineSet
545 1378 m 8,0,1
 705 1218 705 1218 864 1057 c 24,2,3
 897 1024 897 1024 864 1024 c 24,4,5
 801 1024 801 1024 735 1024 c 24,6,7
 702 1024 702 1024 672 1057 c 24,8,9
 609 1120 609 1120 545 1184 c 16,10,11
 529 1200 529 1200 512 1200 c 0,12,-1
 479 1184 l 8,13,14
 416 1121 416 1121 352 1057 c 24,15,16
 319 1024 319 1024 289 1024 c 24,17,18
 226 1024 226 1024 160 1024 c 24,19,20
 127 1024 127 1024 160 1057 c 24,21,22
 320 1217 320 1217 479 1378 c 16,23,24
 495 1394 495 1394 512 1393 c 0,25,-1
 545 1378 l 8,0,1
EndSplineSet
Validated: 1
Layer: 2
SplineSet
180 1020 m 25,0,-1
 425 1320 l 25,1,-1
 670 1020 l 29,2,-1
 850 1020 l 25,3,-1
 425 1530 l 25,4,-1
 0 1020 l 25,5,-1
 180 1020 l 25,0,-1
EndSplineSet
Validated: 9
Layer: 3
SplineSet
512 1408 m 29,0,-1
 128 1024 l 25,1,-1
 320 1024 l 25,2,-1
 512 1216 l 25,3,-1
 704 1024 l 25,4,-1
 896 1024 l 25,5,-1
 512 1408 l 29,0,-1
EndSplineSet
Validated: 3081
Comment: "There is something I wanted to say about this.. I'm sure of it."
EndChar

StartChar: underscore
Encoding: 95 95 66
Width: 1024
VWidth: 0
Flags: MW
LayerCount: 4
Back
Fore
SplineSet
129 -128 m 152,-1,1
 129 -63 129 -63 193 -63 c 24,2,3
 512 -63 512 -63 831 -63 c 24,4,5
 896 -63 896 -63 896 -128 c 152,-1,6
 896 -193 896 -193 831 -193 c 24,7,8
 512 -193 512 -193 193 -193 c 24,9,0
 129 -193 129 -193 129 -128 c 152,-1,1
EndSplineSet
Validated: 1
Layer: 2
SplineSet
0 0 m 29,0,-1
 850 0 l 25,1,-1
 850 -170 l 25,2,-1
 0 -170 l 25,3,-1
 0 0 l 29,0,-1
EndSplineSet
Validated: 1
Layer: 3
SplineSet
128 -64 m 29,0,-1
 896 -64 l 29,1,-1
 896 -192 l 29,2,-1
 128 -192 l 29,3,-1
 128 -64 l 29,0,-1
EndSplineSet
Validated: 3073
EndChar

StartChar: grave
Encoding: 96 96 67
Width: 1024
VWidth: 0
Flags: MW
LayerCount: 4
Back
Fore
SplineSet
319 1536 m 16,0,1
 287 1569 287 1569 287.5 1584 c 128,-1,2
 288 1599 288 1599 319 1599 c 136,-1,3
 350 1599 350 1599 383 1599 c 24,4,5
 446 1599 446 1599 510.5 1536 c 152,-1,6
 575 1473 575 1473 640 1408 c 16,7,8
 673 1375 673 1375 673 1359 c 128,-1,9
 673 1343 673 1343 641 1343 c 8,10,11
 608 1343 608 1343 575 1343 c 24,12,13
 512 1343 512 1343 447 1408 c 152,-1,14
 382 1473 382 1473 319 1536 c 16,0,1
EndSplineSet
Validated: 1
Layer: 2
SplineSet
360 1700 m 25,0,-1
 700 1360 l 25,1,-1
 490 1360 l 29,2,-1
 150 1700 l 29,3,-1
 360 1700 l 25,0,-1
EndSplineSet
Validated: 1
Layer: 3
SplineSet
256 1600 m 29,0,-1
 448 1344 l 29,1,-1
 640 1344 l 29,2,-1
 448 1600 l 29,3,-1
 256 1600 l 29,0,-1
EndSplineSet
Validated: 3081
Comment: "* Do what I did with the '+AH4A'"
EndChar

StartChar: a
Encoding: 97 97 68
Width: 1024
VWidth: 0
Flags: MW
LayerCount: 4
Back
Fore
SplineSet
735 449 m 24,0,1
 528 449 528 449 319 449 c 24,2,3
 256 449 256 449 256 385 c 26,4,-1
 256 193 l 26,5,6
 256 130 256 130 319 129 c 24,7,8
 526 129 526 129 735 129 c 24,9,10
 768 129 768 129 768 160 c 26,11,-1
 768 416 l 26,12,13
 768 449 768 449 735 449 c 24,0,1
223 897 m 24,14,15
 495 897 495 897 768 897 c 24,16,17
 895 897 895 897 895 768 c 26,18,-1
 895 33 l 26,19,20
 895 0 895 0 864 0 c 24,21,22
 559 0 559 0 256 0 c 24,23,24
 129 0 129 0 129 129 c 26,25,-1
 129 449 l 26,26,27
 129 576 129 576 256 575 c 24,28,29
 496 575 496 575 735 575 c 24,30,31
 768 575 768 575 768 608 c 26,32,-1
 768 705 l 26,33,34
 768 768 768 768 705 768 c 24,35,36
 463 768 463 768 223 768 c 24,37,38
 192 768 192 768 193 801 c 25,39,-1
 193 864 l 25,40,41
 192 897 192 897 223 897 c 24,14,15
EndSplineSet
Validated: 33
Layer: 2
Validated: 1
Layer: 3
SplineSet
768 448 m 29,0,-1
 320 448 l 29,1,-1
 256 384 l 29,2,-1
 256 192 l 29,3,-1
 320 128 l 29,4,-1
 768 128 l 29,5,-1
 768 448 l 29,0,-1
192 896 m 29,6,-1
 768 896 l 29,7,-1
 896 768 l 29,8,-1
 896 0 l 29,9,-1
 256 0 l 29,10,-1
 128 128 l 29,11,-1
 128 448 l 29,12,-1
 256 576 l 29,13,-1
 768 576 l 29,14,-1
 768 704 l 29,15,-1
 704 768 l 29,16,-1
 192 768 l 29,17,-1
 192 896 l 29,6,-1
EndSplineSet
Validated: 3073
EndChar

StartChar: b
Encoding: 98 98 69
Width: 1024
VWidth: 0
Flags: MW
LayerCount: 4
Back
Fore
SplineSet
256 160 m 26,0,1
 256 129 256 129 289 129 c 24,2,3
 496 129 496 129 705 129 c 24,4,5
 768 129 768 129 768 193 c 26,6,-1
 768 705 l 26,7,8
 768 768 768 768 705 768 c 24,9,10
 498 768 498 768 289 768 c 24,11,12
 256 768 256 768 256 735 c 26,13,-1
 256 160 l 26,0,1
160 0 m 0,14,15
 129 0 129 0 129 33 c 26,16,-1
 129 1247 l 2,17,18
 129 1280 129 1280 160 1280 c 0,19,-1
 223 1280 l 24,20,21
 256 1280 256 1280 256 1247 c 10,22,-1
 256 928 l 2,23,24
 256 897 256 897 289 897 c 0,25,-1
 768 897 l 24,26,27
 895 897 895 897 895 768 c 10,28,-1
 895 129 l 26,29,30
 895 0 895 0 768 0 c 0,31,32
 479 0 479 0 160 0 c 0,14,15
EndSplineSet
Validated: 1
Layer: 2
Validated: 1
Layer: 3
SplineSet
256 128 m 25,0,-1
 704 128 l 25,1,-1
 768 192 l 25,2,-1
 768 704 l 25,3,-1
 704 768 l 25,4,-1
 256 768 l 25,5,-1
 256 128 l 25,0,-1
128 1280 m 29,6,-1
 256 1280 l 29,7,-1
 256 896 l 25,8,-1
 768 896 l 25,9,-1
 896 768 l 25,10,-1
 896 128 l 25,11,-1
 768 0 l 25,12,-1
 128 0 l 25,13,-1
 128 1280 l 29,6,-1
EndSplineSet
Validated: 3073
EndChar

StartChar: c
Encoding: 99 99 70
Width: 1024
VWidth: 0
Flags: MW
LayerCount: 4
Back
Fore
SplineSet
129 768 m 18,0,1
 129 897 129 897 256 897 c 0,2,3
 512 897 512 897 768 897 c 0,4,5
 895 897 895 897 895 768 c 26,6,-1
 895 672 l 26,7,8
 895 641 895 641 863 641 c 128,-1,9
 831 641 831 641 799.5 641 c 128,-1,10
 768 641 768 641 768 672 c 26,11,-1
 768 705 l 26,12,13
 768 768 768 768 705 768 c 0,14,15
 512 768 512 768 319 768 c 0,16,17
 256 768 256 768 256 705 c 26,18,-1
 256 193 l 26,19,20
 256 130 256 130 319 129 c 0,21,22
 512 129 512 129 705 129 c 24,23,24
 768 129 768 129 768 193 c 26,25,-1
 768 223 l 26,26,27
 768 256 768 256 799.5 256 c 128,-1,28
 831 256 831 256 864 256 c 24,29,30
 895 256 895 256 895 223 c 26,31,-1
 895 129 l 26,32,33
 895 0 895 0 768 0 c 0,34,35
 512 0 512 0 256 0 c 0,36,37
 129 0 129 0 129 129 c 26,38,-1
 129 768 l 18,0,1
EndSplineSet
Validated: 1
Layer: 2
Validated: 1
Layer: 3
SplineSet
256 896 m 29,0,-1
 768 896 l 29,1,-1
 896 768 l 29,2,-1
 896 640 l 29,3,-1
 768 640 l 29,4,-1
 768 704 l 29,5,-1
 704 768 l 29,6,-1
 320 768 l 29,7,-1
 256 704 l 29,8,-1
 256 192 l 29,9,-1
 320 128 l 29,10,-1
 704 128 l 29,11,-1
 768 192 l 29,12,-1
 768 256 l 29,13,-1
 896 256 l 29,14,-1
 896 128 l 29,15,-1
 768 0 l 29,16,-1
 256 0 l 29,17,-1
 128 128 l 29,18,-1
 128 768 l 29,19,-1
 256 896 l 29,0,-1
EndSplineSet
Validated: 3073
EndChar

StartChar: d
Encoding: 100 100 71
Width: 1024
VWidth: 0
Flags: MW
LayerCount: 4
Back
Fore
SplineSet
768 160 m 26,0,-1
 768 735 l 26,1,2
 768 768 768 768 735 768 c 24,3,4
 528 768 528 768 319 768 c 24,5,6
 256 768 256 768 256 705 c 26,7,-1
 256 193 l 26,8,9
 256 130 256 130 319 129 c 24,10,11
 526 129 526 129 735 129 c 24,12,13
 768 129 768 129 768 160 c 26,0,-1
864 0 m 0,14,15
 545 0 545 0 256 0 c 0,16,17
 129 0 129 0 129 129 c 26,18,-1
 129 768 l 18,19,20
 129 897 129 897 256 897 c 24,21,22
 735 897 l 0,23,24
 768 897 768 897 768 928 c 2,25,-1
 768 1247 l 18,26,27
 768 1280 768 1280 801 1280 c 24,28,29
 864 1280 l 0,30,31
 895 1280 895 1280 895 1247 c 2,32,-1
 895 33 l 26,33,34
 895 0 895 0 864 0 c 0,14,15
EndSplineSet
Validated: 1
Layer: 2
Validated: 1
Layer: 3
SplineSet
768 128 m 25,0,-1
 320 128 l 25,1,-1
 256 192 l 25,2,-1
 256 704 l 25,3,-1
 320 768 l 25,4,-1
 768 768 l 25,5,-1
 768 128 l 25,0,-1
896 1280 m 29,6,-1
 768 1280 l 29,7,-1
 768 896 l 25,8,-1
 256 896 l 25,9,-1
 128 768 l 25,10,-1
 128 128 l 25,11,-1
 256 0 l 25,12,-1
 896 0 l 25,13,-1
 896 1280 l 29,6,-1
EndSplineSet
Validated: 3081
EndChar

StartChar: e
Encoding: 101 101 72
Width: 1024
VWidth: 0
Flags: MW
LayerCount: 4
Back
Fore
SplineSet
256 705 m 26,0,-1
 256 545 l 26,1,2
 256 512 256 512 289 512 c 24,3,4
 512 512 512 512 735 512 c 24,5,6
 768 512 768 512 768 545 c 26,7,-1
 768 705 l 26,8,9
 768 768 768 768 705 768 c 24,10,11
 512 768 512 768 319 768 c 24,12,13
 256 768 256 768 256 705 c 26,0,-1
129 768 m 26,14,15
 129 897 129 897 256 897 c 24,16,17
 512 897 512 897 768 897 c 24,18,19
 895 897 895 897 895 768 c 26,20,-1
 895 416 l 26,21,22
 895 385 895 385 864 385 c 24,23,24
 575 385 575 385 289 385 c 24,25,26
 256 385 256 385 256 352 c 26,27,-1
 256 193 l 26,28,29
 256 130 256 130 319 129 c 24,30,31
 526 129 526 129 735 129 c 24,32,33
 768 129 768 129 768 161 c 152,-1,34
 768 193 768 193 799.5 193 c 152,-1,35
 831 193 831 193 863 193 c 152,-1,36
 895 193 895 193 895 160 c 26,37,-1
 895 63 l 26,38,39
 895 0 895 0 831 0 c 24,40,41
 542 0 542 0 256 0 c 24,42,43
 129 0 129 0 129 129 c 26,44,-1
 129 768 l 26,14,15
EndSplineSet
Validated: 1
Layer: 2
Validated: 1
Layer: 3
SplineSet
256 704 m 29,0,-1
 256 512 l 29,1,-1
 768 512 l 29,2,-1
 768 704 l 29,3,-1
 704 768 l 29,4,-1
 320 768 l 29,5,-1
 256 704 l 29,0,-1
256 896 m 29,6,-1
 768 896 l 29,7,-1
 896 768 l 29,8,-1
 896 384 l 29,9,-1
 256 384 l 29,10,-1
 256 192 l 29,11,-1
 320 128 l 29,12,-1
 768 128 l 29,13,-1
 768 192 l 29,14,-1
 896 192 l 29,15,-1
 896 64 l 29,16,-1
 832 0 l 29,17,-1
 256 0 l 29,18,-1
 128 128 l 29,19,-1
 128 768 l 29,20,-1
 256 896 l 29,6,-1
EndSplineSet
Validated: 3073
EndChar

StartChar: f
Encoding: 102 102 73
Width: 1024
VWidth: 0
Flags: MW
LayerCount: 4
Back
Fore
SplineSet
449 1153 m 26,0,1
 449 1280 449 1280 575 1280 c 24,2,3
 751 1280 751 1280 928 1280 c 24,4,5
 961 1280 961 1280 961 1247 c 26,6,-1
 961 1184 l 26,7,8
 961 1153 961 1153 928 1153 c 24,9,10
 785 1153 785 1153 641 1153 c 24,11,12
 575 1153 575 1153 575 1087 c 25,13,-1
 575 928 l 26,14,15
 575 897 575 897 608 897 c 24,16,17
 704 897 704 897 801 897 c 24,18,19
 832 897 832 897 831 864 c 25,20,-1
 831 801 l 26,21,22
 831 768 831 768 801 768 c 24,23,24
 705 768 705 768 608 768 c 24,25,26
 575 768 575 768 575 735 c 26,27,-1
 575 33 l 26,28,29
 575 0 575 0 543.5 0 c 152,-1,30
 512 0 512 0 480.5 0 c 152,-1,31
 449 0 449 0 449 33 c 26,32,-1
 449 735 l 26,33,34
 449 768 449 768 416 768 c 24,35,36
 320 768 320 768 223 768 c 24,37,38
 192 768 192 768 193 801 c 25,39,-1
 193 864 l 26,40,41
 193 897 193 897 223 897 c 24,42,43
 319 897 319 897 416 897 c 24,44,45
 449 897 449 897 449 928 c 26,46,-1
 449 1153 l 26,0,1
EndSplineSet
Validated: 1
Layer: 2
Validated: 1
Layer: 3
SplineSet
448 896 m 29,0,-1
 448 1152 l 25,1,-1
 576 1280 l 25,2,-1
 960 1280 l 25,3,-1
 960 1152 l 25,4,-1
 640 1152 l 25,5,-1
 576 1088 l 25,6,-1
 576 896 l 25,7,-1
 832 896 l 25,8,-1
 832 768 l 25,9,-1
 576 768 l 25,10,-1
 576 0 l 25,11,-1
 448 0 l 25,12,-1
 448 768 l 25,13,-1
 192 768 l 25,14,-1
 192 896 l 25,15,-1
 448 896 l 29,0,-1
EndSplineSet
Validated: 3073
EndChar

StartChar: g
Encoding: 103 103 74
Width: 1024
VWidth: 0
Flags: MW
LayerCount: 4
Back
Fore
SplineSet
319 768 m 24,0,1
 256 768 256 768 256 705 c 26,2,-1
 256 193 l 26,3,4
 256 130 256 130 319 129 c 24,5,6
 526 129 526 129 735 129 c 24,7,8
 768 129 768 129 768 160 c 26,9,-1
 768 735 l 26,10,11
 768 768 768 768 735 768 c 24,12,13
 526 768 526 768 319 768 c 24,0,1
129 768 m 26,14,15
 129 897 129 897 256 897 c 24,16,17
 561 897 561 897 864 897 c 24,18,19
 895 897 895 897 895 864 c 26,20,-1
 895 -193 l 26,21,22
 895 -320 895 -320 768 -321 c 16,23,24
 632 -320 632 -320 496 -320 c 0,25,-1
 223 -321 l 8,26,27
 192 -321 192 -321 193 -289 c 25,28,-1
 193 -223 l 26,29,30
 193 -192 193 -192 223 -193 c 24,31,32
 463 -193 463 -193 705 -193 c 24,33,34
 768 -193 768 -193 768 -127 c 26,35,-1
 768 -33 l 26,36,37
 768 0 768 0 735 0 c 24,38,39
 495 0 495 0 256 0 c 24,40,41
 129 0 129 0 129 129 c 26,42,-1
 129 768 l 26,14,15
EndSplineSet
Validated: 1
Layer: 2
Validated: 1
Layer: 3
SplineSet
768 768 m 25,0,-1
 320 768 l 25,1,-1
 256 704 l 25,2,-1
 256 192 l 25,3,-1
 320 128 l 25,4,-1
 768 128 l 25,5,-1
 768 768 l 25,0,-1
896 -192 m 25,6,-1
 768 -320 l 1,7,-1
 192 -320 l 5,8,-1
 192 -192 l 1,9,-1
 704 -192 l 1,10,-1
 768 -128 l 1,11,-1
 768 0 l 9,12,-1
 256 0 l 25,13,-1
 128 128 l 25,14,-1
 128 768 l 25,15,-1
 256 896 l 25,16,-1
 896 896 l 1,17,-1
 896 -192 l 25,6,-1
EndSplineSet
Validated: 3073
EndChar

StartChar: h
Encoding: 104 104 75
Width: 1024
VWidth: 0
Flags: MW
LayerCount: 4
Back
Fore
SplineSet
224.5 0 m 152,-1,1
 193 0 193 0 161 0 c 152,-1,2
 129 0 129 0 129 33 c 26,3,-1
 129 1247 l 26,4,5
 129 1280 129 1280 161 1280 c 152,-1,6
 193 1280 193 1280 224.5 1280 c 152,-1,7
 256 1280 256 1280 256 1247 c 26,8,-1
 256 928 l 26,9,10
 256 897 256 897 289 897 c 24,11,12
 529 897 529 897 768 897 c 24,13,14
 895 897 895 897 895 768 c 26,15,16
 895 33 l 26,17,18
 895 0 895 0 863 0 c 152,-1,19
 831 0 831 0 799.5 0 c 152,-1,20
 768 0 768 0 768 33 c 26,21,-1
 768 705 l 26,22,23
 768 768 768 768 705 768 c 24,24,25
 498 768 498 768 289 768 c 24,26,27
 256 768 256 768 256 735 c 26,28,-1
 256 33 l 26,29,0
 256 0 256 0 224.5 0 c 152,-1,1
EndSplineSet
Validated: 1
Layer: 2
Validated: 1
Layer: 3
SplineSet
128 0 m 1,0,-1
 128 1280 l 1,1,-1
 256 1280 l 5,2,-1
 256 896 l 1,3,-1
 768 896 l 9,4,-1
 896 768 l 25,5,-1
 896 0 l 25,6,-1
 768 0 l 25,7,-1
 768 704 l 25,8,-1
 704 768 l 25,9,-1
 256 768 l 25,10,-1
 256 0 l 25,11,-1
 128 0 l 1,0,-1
EndSplineSet
Validated: 3073
EndChar

StartChar: i
Encoding: 105 105 76
Width: 1024
VWidth: 0
Flags: MW
LayerCount: 4
Back
Fore
SplineSet
352 897 m 0,0,1
 545 897 l 0,2,3
 576 897 576 897 575 864 c 25,4,-1
 575 160 l 17,5,6
 575 129 575 129 608 129 c 24,7,8
 672 129 l 0,9,10
 705 129 705 129 705 96 c 26,11,-1
 705 33 l 18,12,13
 705 0 705 0 672 0 c 0,14,15
 512 0 512 0 352 0 c 24,16,17
 319 0 319 0 319 33 c 26,18,-1
 319 96 l 18,19,20
 319 129 319 129 351 129 c 128,-1,21
 383 129 383 129 416 129 c 128,-1,22
 449 129 449 129 449 160 c 26,23,-1
 449 735 l 18,24,25
 449 768 449 768 416 768 c 24,26,-1
 352 768 l 0,27,28
 319 768 319 768 319 801 c 26,29,-1
 319 864 l 26,30,31
 319 897 319 897 352 897 c 0,0,1
480.5 1280 m 152,-1,33
 512 1280 512 1280 543.5 1280 c 152,-1,34
 575 1280 575 1280 575 1247 c 26,35,-1
 575 1057 l 26,36,37
 575 1024 575 1024 543.5 1024 c 152,-1,38
 512 1024 512 1024 480.5 1024 c 152,-1,39
 449 1024 449 1024 449 1057 c 26,40,-1
 449 1247 l 26,41,32
 449 1280 449 1280 480.5 1280 c 152,-1,33
EndSplineSet
Validated: 1
Layer: 2
SplineSet
512 1534 m 29,0,-1
 512 1194 l 29,1,-1
 342 1194 l 29,2,-1
 342 1534 l 29,3,-1
 512 1534 l 29,0,-1
EndSplineSet
Validated: 1
Layer: 3
SplineSet
320 896 m 29,0,-1
 576 896 l 25,1,-1
 576 128 l 25,2,-1
 704 128 l 25,3,-1
 704 0 l 25,4,-1
 320 0 l 25,5,-1
 320 128 l 25,6,-1
 448 128 l 25,7,-1
 448 768 l 25,8,-1
 320 768 l 25,9,-1
 320 896 l 29,0,-1
448 1280 m 25,10,-1
 576 1280 l 25,11,-1
 576 1024 l 25,12,-1
 448 1024 l 25,13,-1
 448 1280 l 25,10,-1
EndSplineSet
Validated: 3073
EndChar

StartChar: j
Encoding: 106 106 77
Width: 1024
VWidth: 0
Flags: MW
LayerCount: 4
Back
Fore
SplineSet
736.5 1280 m 152,-1,1
 768 1280 768 1280 799.5 1280 c 152,-1,2
 831 1280 831 1280 831 1247 c 26,3,-1
 831 1057 l 26,4,5
 831 1024 831 1024 799.5 1024 c 152,-1,6
 768 1024 768 1024 736.5 1024 c 152,-1,7
 705 1024 705 1024 705 1057 c 26,8,-1
 705 1247 l 26,9,0
 705 1280 705 1280 736.5 1280 c 152,-1,1
608 897 m 24,10,11
 704 897 704 897 801 897 c 24,12,13
 832 897 832 897 831 864 c 25,14,-1
 831 -193 l 26,15,16
 831 -320 831 -320 705 -321 c 16,17,18
 609 -320 609 -320 512 -320 c 0,19,-1
 319 -321 l 8,20,21
 192 -321 192 -321 193 -193 c 25,22,-1
 193 -33 l 26,23,24
 193 0 193 0 224.5 0 c 152,-1,25
 256 0 256 0 287.5 0 c 152,-1,26
 319 0 319 0 319 -33 c 26,27,-1
 319 -127 l 25,28,29
 319 -193 319 -193 383 -193 c 24,30,31
 512 -193 512 -193 641 -193 c 24,32,33
 704 -193 704 -193 705 -127 c 25,34,-1
 705 735 l 26,35,36
 705 768 705 768 673 768 c 152,-1,37
 641 768 641 768 608 768 c 152,-1,38
 575 768 575 768 575 801 c 26,39,-1
 575 864 l 26,40,41
 575 897 575 897 608 897 c 24,10,11
EndSplineSet
Validated: 33
Layer: 2
SplineSet
853 1534 m 29,0,-1
 853 1194 l 29,1,-1
 683 1194 l 29,2,-1
 683 1534 l 29,3,-1
 853 1534 l 29,0,-1
EndSplineSet
Validated: 1
Layer: 3
SplineSet
576 896 m 29,0,-1
 832 896 l 25,1,-1
 832 -192 l 25,2,-1
 704 -320 l 25,3,-1
 320 -320 l 25,4,-1
 192 -192 l 25,5,-1
 192 0 l 25,6,-1
 320 0 l 25,7,-1
 320 -128 l 25,8,-1
 384 -192 l 25,9,-1
 640 -192 l 25,10,-1
 704 -128 l 25,11,-1
 704 768 l 25,12,-1
 576 768 l 25,13,-1
 576 896 l 29,0,-1
704 1280 m 25,14,-1
 832 1280 l 25,15,-1
 832 1024 l 25,16,-1
 704 1024 l 25,17,-1
 704 1280 l 25,14,-1
EndSplineSet
Validated: 3073
EndChar

StartChar: k
Encoding: 107 107 78
Width: 1024
VWidth: 0
Flags: MW
LayerCount: 4
Back
Fore
SplineSet
193 1247 m 26,0,1
 193 1280 193 1280 224.5 1280 c 152,-1,2
 256 1280 256 1280 287.5 1280 c 152,-1,3
 319 1280 319 1280 319 1247 c 26,4,-1
 319 545 l 26,5,6
 319 512 319 512 352 545 c 24,7,8
 512 705 512 705 672 864 c 24,9,10
 705 897 705 897 735 897 c 24,11,12
 798 897 798 897 864 897 c 24,13,14
 897 897 897 897 864 864 c 24,15,16
 671 671 671 671 479 479 c 16,17,18
 463 463 463 463 463 447.5 c 128,-1,19
 463 432 463 432 479 416 c 8,20,21
 672 223 672 223 864 33 c 24,22,23
 897 0 897 0 864 0 c 24,24,25
 801 0 801 0 735 0 c 24,26,27
 702 0 702 0 672 33 c 24,28,29
 512 193 512 193 352 352 c 24,30,31
 319 385 319 385 319 352 c 26,32,-1
 319 33 l 26,33,34
 319 0 319 0 287.5 0 c 152,-1,35
 256 0 256 0 224.5 0 c 152,-1,36
 193 0 193 0 193 33 c 26,37,-1
 193 1247 l 26,0,1
EndSplineSet
Validated: 1
Layer: 2
SplineSet
170 1360 m 25,0,-1
 340 1360 l 25,1,-1
 340 680 l 25,2,-1
 680 1020 l 29,3,-1
 935 1020 l 29,4,-1
 425 510 l 25,5,-1
 935 0 l 25,6,-1
 680 0 l 25,7,-1
 340 340 l 25,8,-1
 340 0 l 25,9,-1
 170 0 l 25,10,-1
 170 1360 l 25,0,-1
EndSplineSet
Validated: 1
Layer: 3
SplineSet
192 1280 m 29,0,-1
 320 1280 l 29,1,-1
 320 512 l 29,2,-1
 704 896 l 29,3,-1
 896 896 l 29,4,-1
 448 448 l 29,5,-1
 896 0 l 29,6,-1
 704 0 l 29,7,-1
 320 384 l 29,8,-1
 320 0 l 29,9,-1
 192 0 l 29,10,-1
 192 1280 l 29,0,-1
EndSplineSet
Validated: 3073
Comment: "I think I'm okay with this 'k'.."
EndChar

StartChar: l
Encoding: 108 108 79
Width: 1024
VWidth: 0
Flags: MW
LayerCount: 4
Back
Fore
SplineSet
352 1280 m 24,0,1
 448 1280 448 1280 545 1280 c 24,2,3
 576 1280 576 1280 575 1247 c 25,4,-1
 575 160 l 26,5,6
 575 129 575 129 608 129 c 152,-1,7
 641 129 641 129 673 129 c 152,-1,8
 705 129 705 129 705 96 c 25,9,-1
 705 33 l 26,10,11
 705 0 705 0 672 0 c 24,12,13
 512 0 512 0 352 0 c 24,14,15
 319 0 319 0 319 33 c 26,16,-1
 319 96 l 26,17,18
 319 129 319 129 351 129 c 152,-1,19
 383 129 383 129 416 129 c 152,-1,20
 449 129 449 129 449 160 c 26,21,-1
 449 1120 l 26,22,23
 449 1153 449 1153 416 1153 c 152,-1,24
 383 1153 383 1153 351 1153 c 152,-1,25
 319 1153 319 1153 319 1184 c 26,26,-1
 319 1247 l 26,27,28
 319 1280 319 1280 352 1280 c 24,0,1
EndSplineSet
Validated: 1
Layer: 2
Validated: 1
Layer: 3
SplineSet
320 1280 m 29,0,-1
 576 1280 l 25,1,-1
 576 128 l 25,2,-1
 704 128 l 25,3,-1
 704 0 l 25,4,-1
 320 0 l 25,5,-1
 320 128 l 25,6,-1
 448 128 l 25,7,-1
 448 1152 l 25,8,-1
 320 1152 l 25,9,-1
 320 1280 l 29,0,-1
EndSplineSet
Validated: 3073
EndChar

StartChar: m
Encoding: 109 109 80
Width: 1024
VWidth: 0
Flags: MW
LayerCount: 4
Back
Fore
SplineSet
161 0 m 152,-1,1
 129 0 129 0 129 33 c 26,2,-1
 129 864 l 26,3,4
 129 897 129 897 160 897 c 24,5,6
 465 897 465 897 768 897 c 24,7,8
 895 897 895 897 895 768 c 26,9,-1
 895 33 l 26,10,11
 895 0 895 0 863 0 c 152,-1,12
 831 0 831 0 799.5 0 c 152,-1,13
 768 0 768 0 768 33 c 26,14,-1
 768 705 l 26,15,16
 768 768 768 768 705 768 c 24,17,18
 656 768 656 768 608 768 c 24,19,20
 575 768 575 768 575 735 c 26,21,-1
 575 33 l 26,22,23
 575 0 575 0 543.5 0 c 152,-1,24
 512 0 512 0 480.5 0 c 152,-1,25
 449 0 449 0 449 33 c 26,26,-1
 449 735 l 26,27,28
 449 768 449 768 416 768 c 24,29,30
 353 768 353 768 289 768 c 24,31,32
 256 768 256 768 256 735 c 26,33,-1
 256 33 l 26,34,35
 256 0 256 0 224.5 0 c 152,-1,0
 193 0 193 0 161 0 c 152,-1,1
EndSplineSet
Validated: 1
Layer: 2
Validated: 1
Layer: 3
SplineSet
128 896 m 29,0,-1
 768 896 l 25,1,-1
 896 768 l 25,2,-1
 896 0 l 25,3,-1
 768 0 l 25,4,-1
 768 704 l 25,5,-1
 704 768 l 25,6,-1
 576 768 l 25,7,-1
 576 0 l 25,8,-1
 448 0 l 25,9,-1
 448 768 l 25,10,-1
 256 768 l 25,11,-1
 256 0 l 25,12,-1
 128 0 l 25,13,-1
 128 896 l 29,0,-1
EndSplineSet
Validated: 3073
EndChar

StartChar: n
Encoding: 110 110 81
Width: 1024
VWidth: 0
Flags: MW
LayerCount: 4
Back
Fore
SplineSet
161 0 m 152,-1,1
 129 0 129 0 129 33 c 26,2,-1
 129 864 l 26,3,4
 129 897 129 897 160 897 c 24,5,6
 465 897 465 897 768 897 c 24,7,8
 895 897 895 897 895 768 c 26,9,-1
 895 33 l 26,10,11
 895 0 895 0 863 0 c 152,-1,12
 831 0 831 0 799.5 0 c 152,-1,13
 768 0 768 0 768 33 c 26,14,-1
 768 705 l 26,15,16
 768 768 768 768 705 768 c 24,17,18
 498 768 498 768 289 768 c 24,19,20
 256 768 256 768 256 735 c 26,21,-1
 256 33 l 26,22,23
 256 0 256 0 224.5 0 c 152,-1,0
 193 0 193 0 161 0 c 152,-1,1
EndSplineSet
Validated: 1
Layer: 2
Validated: 1
Layer: 3
SplineSet
128 0 m 29,0,-1
 128 896 l 29,1,-1
 768 896 l 29,2,-1
 896 768 l 29,3,-1
 896 0 l 29,4,-1
 768 0 l 29,5,-1
 768 704 l 29,6,-1
 704 768 l 29,7,-1
 256 768 l 29,8,-1
 256 0 l 29,9,-1
 128 0 l 29,0,-1
EndSplineSet
Validated: 3073
EndChar

StartChar: o
Encoding: 111 111 82
Width: 1024
VWidth: 0
Flags: MW
LayerCount: 4
Back
Fore
SplineSet
256 705 m 26,0,1
 256 193 l 26,2,3
 256 130 256 130 319 129 c 0,4,-1
 705 129 l 0,5,6
 768 129 768 129 768 193 c 10,7,8
 768 705 l 26,9,10
 768 768 768 768 705 768 c 0,11,12
 512 768 512 768 319 768 c 0,13,14
 256 768 256 768 256 705 c 26,0,1
129 768 m 26,15,16
 129 897 129 897 256 897 c 0,17,18
 512 897 512 897 768 897 c 0,19,20
 895 897 895 897 895 768 c 26,21,-1
 895 129 l 18,22,23
 895 0 895 0 768 0 c 0,24,25
 512 0 512 0 256 0 c 0,26,27
 129 0 129 0 129 129 c 26,28,-1
 129 768 l 26,15,16
EndSplineSet
Validated: 1
Layer: 2
SplineSet
170 771 m 21,0,-1
 170 261 l 1,1,-1
 255 176 l 9,2,-1
 595 176 l 17,3,-1
 680 261 l 1,4,-1
 680 771 l 13,5,-1
 595 856 l 29,6,-1
 255 856 l 29,7,-1
 170 771 l 21,0,-1
0 856 m 29,8,-1
 170 1026 l 29,9,-1
 680 1026 l 29,10,-1
 850 856 l 29,11,-1
 850 176 l 25,12,-1
 680 6 l 25,13,-1
 170 6 l 25,14,-1
 0 176 l 25,15,-1
 0 856 l 29,8,-1
EndSplineSet
Validated: 1
Layer: 3
SplineSet
256 704 m 29,0,-1
 256 192 l 29,1,-1
 320 128 l 29,2,-1
 704 128 l 29,3,-1
 768 192 l 29,4,-1
 768 704 l 29,5,-1
 704 768 l 29,6,-1
 320 768 l 29,7,-1
 256 704 l 29,0,-1
128 768 m 29,8,-1
 256 896 l 29,9,-1
 768 896 l 29,10,-1
 896 768 l 29,11,-1
 896 128 l 29,12,-1
 768 0 l 29,13,-1
 256 0 l 29,14,-1
 128 128 l 29,15,-1
 128 768 l 29,8,-1
EndSplineSet
Validated: 3073
EndChar

StartChar: p
Encoding: 112 112 83
Width: 1024
VWidth: 0
Flags: MW
LayerCount: 4
Back
Fore
SplineSet
256 735 m 26,0,-1
 256 160 l 26,1,2
 256 129 256 129 289 129 c 24,3,4
 496 129 496 129 705 129 c 24,5,6
 768 129 768 129 768 193 c 26,7,-1
 768 705 l 26,8,9
 768 768 768 768 705 768 c 24,10,11
 498 768 498 768 289 768 c 24,12,13
 256 768 256 768 256 735 c 26,0,-1
160 897 m 24,14,15
 465 897 465 897 768 897 c 24,16,17
 895 897 895 897 895 768 c 26,18,-1
 895 129 l 26,19,20
 895 0 895 0 768 0 c 24,21,22
 528 0 528 0 289 0 c 24,23,24
 256 0 256 0 256 -33 c 26,25,-1
 256 -289 l 26,26,27
 256 -321 256 -321 224.5 -321 c 152,-1,28
 193 -321 193 -321 161 -321 c 152,-1,29
 129 -321 129 -321 129 -289 c 26,30,-1
 129 864 l 26,31,32
 129 897 129 897 160 897 c 24,14,15
EndSplineSet
Validated: 1
Layer: 2
Validated: 1
Layer: 3
SplineSet
256 768 m 29,0,-1
 704 768 l 29,1,-1
 768 704 l 29,2,-1
 768 192 l 29,3,-1
 704 128 l 29,4,-1
 256 128 l 29,5,-1
 256 768 l 29,0,-1
128 -320 m 29,6,-1
 256 -320 l 29,7,-1
 256 0 l 29,8,-1
 768 0 l 29,9,-1
 896 128 l 29,10,-1
 896 768 l 29,11,-1
 768 896 l 29,12,-1
 128 896 l 29,13,-1
 128 -320 l 29,6,-1
EndSplineSet
Validated: 3081
EndChar

StartChar: q
Encoding: 113 113 84
Width: 1024
VWidth: 0
Flags: MW
LayerCount: 4
Back
Fore
SplineSet
768 735 m 26,0,1
 768 768 768 768 735 768 c 24,2,3
 528 768 528 768 319 768 c 24,4,5
 256 768 256 768 256 705 c 26,6,-1
 256 193 l 26,7,8
 256 130 256 130 319 129 c 24,9,10
 526 129 526 129 735 129 c 24,11,12
 768 129 768 129 768 160 c 26,13,-1
 768 735 l 26,0,1
864 897 m 24,14,15
 895 897 895 897 895 864 c 26,16,-1
 895 -289 l 26,17,18
 895 -321 895 -321 863 -321 c 152,-1,19
 831 -321 831 -321 799.5 -321 c 152,-1,20
 768 -321 768 -321 768 -289 c 26,21,-1
 768 -33 l 26,22,23
 768 0 768 0 735 0 c 24,24,25
 495 0 495 0 256 0 c 24,26,27
 129 0 129 0 129 129 c 26,28,-1
 129 768 l 26,29,30
 129 897 129 897 256 897 c 24,31,32
 559 897 559 897 864 897 c 24,14,15
EndSplineSet
Validated: 1
Layer: 2
Validated: 1
Layer: 3
SplineSet
768 768 m 29,0,-1
 320 768 l 29,1,-1
 256 704 l 29,2,-1
 256 192 l 29,3,-1
 320 128 l 29,4,-1
 768 128 l 29,5,-1
 768 768 l 29,0,-1
896 -320 m 29,6,-1
 768 -320 l 29,7,-1
 768 0 l 29,8,-1
 256 0 l 29,9,-1
 128 128 l 29,10,-1
 128 768 l 29,11,-1
 256 896 l 29,12,-1
 896 896 l 29,13,-1
 896 -320 l 29,6,-1
EndSplineSet
Validated: 3073
EndChar

StartChar: r
Encoding: 114 114 85
Width: 1024
VWidth: 0
Flags: MW
LayerCount: 4
Back
Fore
SplineSet
161 897 m 152,-1,1
 193 897 193 897 224.5 897 c 152,-1,2
 256 897 256 897 256 864 c 26,3,-1
 256 801 l 26,4,5
 256 768 256 768 287.5 799.5 c 152,-1,6
 319 831 319 831 351 864 c 152,-1,7
 383 897 383 897 416 897 c 24,8,9
 639 897 639 897 864 897 c 24,10,11
 895 897 895 897 895 864 c 26,12,-1
 895 801 l 26,13,14
 895 768 895 768 864 768 c 24,15,16
 671 768 671 768 479 768 c 24,17,18
 446 768 446 768 416 735 c 24,19,20
 353 672 353 672 289 608 c 24,21,22
 256 575 256 575 256 545 c 26,23,-1
 256 33 l 26,24,25
 256 0 256 0 224.5 0 c 152,-1,26
 193 0 193 0 161 0 c 152,-1,27
 129 0 129 0 129 33 c 26,28,-1
 129 864 l 26,29,0
 129 897 129 897 161 897 c 152,-1,1
EndSplineSet
Validated: 1
Layer: 2
Validated: 1
Layer: 3
SplineSet
128 896 m 29,0,-1
 128 0 l 25,1,-1
 256 0 l 25,2,-1
 256 576 l 25,3,-1
 448 768 l 25,4,-1
 896 768 l 25,5,-1
 896 896 l 25,6,-1
 384 896 l 25,7,-1
 256 768 l 25,8,-1
 256 896 l 25,9,-1
 128 896 l 29,0,-1
EndSplineSet
Validated: 3081
Comment: "* For the top right of the 'r', I may decide to have it be more like an arc."
EndChar

StartChar: s
Encoding: 115 115 86
Width: 1024
VWidth: 0
Flags: MW
LayerCount: 4
Back
Fore
SplineSet
129 768 m 26,0,1
 129 897 129 897 256 897 c 24,2,3
 512 897 512 897 768 897 c 24,4,5
 895 897 895 897 895 768 c 26,6,-1
 895 735 l 26,7,8
 895 704 895 704 864 705 c 24,9,10
 798 705 798 705 735 705 c 24,11,12
 703 705 703 705 703 736.5 c 152,-1,13
 703 768 703 768 672 768 c 24,14,15
 496 768 496 768 319 768 c 24,16,17
 256 768 256 768 256 705 c 26,18,-1
 256 575 l 26,19,20
 256 512 256 512 319 512 c 24,21,22
 542 512 542 512 768 512 c 24,23,24
 895 512 895 512 895 385 c 26,25,-1
 895 129 l 26,26,27
 895 0 895 0 768 0 c 24,28,29
 512 0 512 0 256 0 c 24,30,31
 129 0 129 0 129 129 c 26,32,-1
 129 160 l 26,33,34
 129 193 129 193 160 193 c 24,35,36
 226 193 226 193 289 193 c 24,37,38
 321 193 321 193 321 161 c 152,-1,39
 321 129 321 129 352 129 c 24,40,41
 528 129 528 129 705 129 c 24,42,43
 768 129 768 129 768 193 c 26,44,-1
 768 319 l 26,45,46
 768 385 768 385 705 385 c 24,47,48
 482 385 482 385 256 385 c 24,49,50
 129 385 129 385 129 512 c 26,51,-1
 129 768 l 26,0,1
EndSplineSet
Validated: 1
Layer: 2
Validated: 1
Layer: 3
SplineSet
256 896 m 29,0,-1
 768 896 l 25,1,-1
 896 768 l 25,2,-1
 896 704 l 25,3,-1
 704 704 l 25,4,-1
 640 768 l 25,5,-1
 320 768 l 25,6,-1
 256 704 l 25,7,-1
 256 576 l 25,8,-1
 320 512 l 25,9,-1
 768 512 l 25,10,-1
 896 384 l 25,11,-1
 896 128 l 25,12,-1
 768 0 l 25,13,-1
 256 0 l 25,14,-1
 128 128 l 25,15,-1
 128 192 l 25,16,-1
 320 192 l 25,17,-1
 384 128 l 25,18,-1
 704 128 l 25,19,-1
 768 192 l 25,20,-1
 768 320 l 25,21,-1
 704 384 l 25,22,-1
 256 384 l 25,23,-1
 128 512 l 25,24,-1
 128 768 l 25,25,-1
 256 896 l 29,0,-1
EndSplineSet
Validated: 3073
EndChar

StartChar: t
Encoding: 116 116 87
Width: 1024
VWidth: 0
Flags: MW
LayerCount: 4
Back
Fore
SplineSet
416 1280 m 152,-1,1
 449 1280 449 1280 480.5 1280 c 152,-1,2
 512 1280 512 1280 512 1247 c 26,3,-1
 512 928 l 26,4,5
 512 897 512 897 545 897 c 24,6,7
 641 897 641 897 735 897 c 24,8,9
 768 897 768 897 768 864 c 26,10,-1
 768 801 l 26,11,12
 768 768 768 768 735 768 c 24,13,14
 639 768 639 768 545 768 c 24,15,16
 512 768 512 768 512 735 c 26,17,-1
 512 193 l 26,18,19
 512 130 512 130 575 129 c 24,20,21
 718 129 718 129 864 129 c 24,22,23
 895 129 895 129 895 96 c 26,24,-1
 895 33 l 26,25,26
 895 0 895 0 864 0 c 24,27,28
 688 0 688 0 512 0 c 24,29,30
 383 0 383 0 383 129 c 26,31,-1
 383 735 l 26,32,33
 383 768 383 768 352 768 c 24,34,35
 256 768 256 768 160 768 c 24,36,37
 129 768 129 768 129 801 c 26,38,-1
 129 864 l 26,39,40
 129 897 129 897 160 897 c 24,41,42
 256 897 256 897 352 897 c 24,43,44
 383 897 383 897 383 928 c 26,45,-1
 383 1247 l 26,46,0
 383 1280 383 1280 416 1280 c 152,-1,1
EndSplineSet
Validated: 1
Layer: 2
Validated: 1
Layer: 3
SplineSet
384 1280 m 29,0,-1
 512 1280 l 25,1,-1
 512 896 l 25,2,-1
 768 896 l 25,3,-1
 768 768 l 25,4,-1
 512 768 l 25,5,-1
 512 192 l 25,6,-1
 576 128 l 25,7,-1
 896 128 l 25,8,-1
 896 0 l 25,9,-1
 512 0 l 25,10,-1
 384 128 l 25,11,-1
 384 768 l 25,12,-1
 128 768 l 25,13,-1
 128 896 l 25,14,-1
 384 896 l 25,15,-1
 384 1280 l 29,0,-1
EndSplineSet
Validated: 3073
EndChar

StartChar: u
Encoding: 117 117 88
Width: 1024
VWidth: 0
Flags: MW
LayerCount: 4
Back
Fore
SplineSet
161 897 m 152,-1,1
 193 897 193 897 224.5 897 c 152,-1,2
 256 897 256 897 256 864 c 26,3,-1
 256 193 l 26,4,5
 256 130 256 130 319 129 c 24,6,7
 526 129 526 129 735 129 c 24,8,9
 768 129 768 129 768 160 c 26,10,-1
 768 864 l 26,11,12
 768 897 768 897 799.5 897 c 152,-1,13
 831 897 831 897 863 897 c 152,-1,14
 895 897 895 897 895 864 c 26,15,-1
 895 33 l 26,16,17
 895 0 895 0 864 0 c 24,18,19
 559 0 559 0 256 0 c 24,20,21
 129 0 129 0 129 129 c 26,22,-1
 129 864 l 26,23,0
 129 897 129 897 161 897 c 152,-1,1
EndSplineSet
Validated: 1
Layer: 2
Validated: 1
Layer: 3
SplineSet
896 896 m 29,0,-1
 896 0 l 29,1,-1
 256 0 l 29,2,-1
 128 128 l 29,3,-1
 128 896 l 29,4,-1
 256 896 l 29,5,-1
 256 192 l 29,6,-1
 320 128 l 29,7,-1
 768 128 l 29,8,-1
 768 896 l 29,9,-1
 896 896 l 29,0,-1
EndSplineSet
Validated: 3073
EndChar

StartChar: v
Encoding: 118 118 89
Width: 1024
VWidth: 0
Flags: MW
LayerCount: 4
Back
Fore
SplineSet
161 897 m 152,-1,1
 193 897 193 897 224.5 897 c 152,-1,2
 256 897 256 897 266 864 c 24,3,4
 444 325 444 325 496 223 c 24,5,6
 512 190 512 190 528 223 c 24,7,8
 587 344 587 344 758 864 c 24,9,10
 768 897 768 897 799.5 897 c 152,-1,11
 831 897 831 897 863 897 c 152,-1,12
 895 897 895 897 885 864 c 26,13,-1
 588 33 l 26,14,15
 578 0 578 0 545 0 c 152,-1,16
 512 0 512 0 480.5 0 c 152,-1,17
 449 0 449 0 436 33 c 26,18,-1
 139 864 l 26,19,0
 129 897 129 897 161 897 c 152,-1,1
EndSplineSet
Validated: 1
Layer: 2
Validated: 1
Layer: 3
SplineSet
256 896 m 29,0,-1
 512 192 l 25,1,-1
 768 896 l 25,2,-1
 896 896 l 25,3,-1
 544 0 l 25,4,-1
 480 0 l 25,5,-1
 128 896 l 25,6,-1
 256 896 l 29,0,-1
EndSplineSet
Validated: 3073
Comment: "* Happyish with the results..+AAoA* This 'V' is a slut..  Not to be dirty or anything..  Just not sure if I like it..+AAoACgAA-Confusing I know.."
EndChar

StartChar: w
Encoding: 119 119 90
Width: 1024
VWidth: 0
Flags: MW
LayerCount: 4
Back
Fore
SplineSet
161 897 m 152,-1,1
 193 897 193 897 224.5 897 c 152,-1,2
 256 897 256 897 256 864 c 26,3,-1
 256 193 l 26,4,5
 256 130 256 130 319 129 c 24,6,7
 368 129 368 129 416 129 c 24,8,9
 449 129 449 129 449 160 c 26,10,-1
 449 608 l 26,11,12
 449 641 449 641 480.5 641 c 152,-1,13
 512 641 512 641 543.5 641 c 152,-1,14
 575 641 575 641 575 608 c 26,15,-1
 575 160 l 26,16,17
 575 129 575 129 608 129 c 24,18,19
 657 129 657 129 705 129 c 24,20,21
 768 129 768 129 768 193 c 26,22,-1
 768 864 l 26,23,24
 768 897 768 897 799.5 897 c 152,-1,25
 831 897 831 897 863 897 c 152,-1,26
 895 897 895 897 895 864 c 26,27,-1
 895 129 l 26,28,29
 895 0 895 0 768 0 c 24,30,31
 512 0 512 0 256 0 c 24,32,33
 129 0 129 0 129 129 c 26,34,-1
 129 864 l 26,35,0
 129 897 129 897 161 897 c 152,-1,1
EndSplineSet
Validated: 1
Layer: 2
Validated: 1
Layer: 3
SplineSet
128 896 m 29,0,-1
 256 896 l 25,1,-1
 256 192 l 25,2,-1
 320 128 l 25,3,-1
 448 128 l 25,4,-1
 448 640 l 25,5,-1
 576 640 l 25,6,-1
 576 128 l 25,7,-1
 704 128 l 25,8,-1
 768 192 l 25,9,-1
 768 896 l 25,10,-1
 896 896 l 25,11,-1
 896 128 l 25,12,-1
 768 0 l 25,13,-1
 256 0 l 25,14,-1
 128 128 l 25,15,-1
 128 896 l 29,0,-1
EndSplineSet
Validated: 3073
EndChar

StartChar: x
Encoding: 120 120 91
Width: 1024
VWidth: 0
Flags: MW
LayerCount: 4
Back
Fore
SplineSet
161 897 m 152,-1,1
 193 897 193 897 224.5 897 c 152,-1,2
 256 897 256 897 256 864 c 152,-1,3
 256 831 256 831 479 608 c 16,4,5
 495 592 495 592 512 592 c 0,6,-1
 545 608 l 8,7,8
 768 831 768 831 768 864 c 152,-1,9
 768 897 768 897 799.5 897 c 152,-1,10
 831 897 831 897 863 897 c 152,-1,11
 895 897 895 897 895 864 c 26,12,-1
 895 801 l 26,13,14
 895 768 895 768 864 735 c 24,15,16
 768 639 768 639 672 545 c 24,17,18
 641 512 641 512 641 479 c 26,19,-1
 641 416 l 26,20,21
 641 383 641 383 672 352 c 24,22,23
 768 256 768 256 864 160 c 24,24,25
 895 127 895 127 895 96 c 26,26,-1
 895 33 l 26,27,28
 895 0 895 0 863 0 c 152,-1,29
 831 0 831 0 799.5 0 c 152,-1,30
 768 0 768 0 768 31.5 c 152,-1,31
 768 63 768 63 735 96 c 24,32,33
 639 192 639 192 545 289 c 16,34,35
 529 305 529 305 512 305 c 0,36,-1
 479 289 l 8,37,38
 383 193 383 193 289 96 c 24,39,40
 256 63 256 63 256 31.5 c 152,-1,41
 256 0 256 0 224.5 0 c 152,-1,42
 193 0 193 0 161 0 c 152,-1,43
 129 0 129 0 129 33 c 26,44,-1
 129 96 l 26,45,46
 129 129 129 129 160 160 c 24,47,48
 256 256 256 256 352 352 c 24,49,50
 383 385 383 385 383 416 c 26,51,-1
 383 479 l 26,52,53
 383 512 383 512 352 545 c 24,54,55
 256 641 256 641 160 735 c 24,56,57
 129 768 129 768 129 801 c 26,58,-1
 129 864 l 26,59,0
 129 897 129 897 161 897 c 152,-1,1
EndSplineSet
Validated: 1
Layer: 2
Validated: 1
Layer: 3
SplineSet
256 896 m 29,0,-1
 512 576 l 25,1,-1
 768 896 l 25,2,-1
 896 896 l 25,3,-1
 640 448 l 25,4,-1
 896 0 l 25,5,-1
 768 0 l 25,6,-1
 512 320 l 25,7,-1
 256 0 l 25,8,-1
 128 0 l 25,9,-1
 384 448 l 25,10,-1
 128 896 l 25,11,-1
 256 896 l 29,0,-1
EndSplineSet
Validated: 3073
Comment: "Meh...+AAoA* Look at the bitmap..  Doesn't look the same.  Refer to (Possiblel) 'X', but definitly '+AH4A' and '*'"
EndChar

StartChar: y
Encoding: 121 121 92
Width: 1024
VWidth: 0
Flags: MW
LayerCount: 4
Back
Fore
SplineSet
161 897 m 152,-1,1
 193 897 193 897 224.5 897 c 152,-1,2
 256 897 256 897 256 864 c 26,3,-1
 256 193 l 26,4,5
 256 130 256 130 319 129 c 24,6,7
 526 129 526 129 735 129 c 24,8,9
 768 129 768 129 768 160 c 26,10,-1
 768 864 l 26,11,12
 768 897 768 897 799.5 897 c 152,-1,13
 831 897 831 897 863 897 c 152,-1,14
 895 897 895 897 895 864 c 26,15,-1
 895 -193 l 26,16,17
 895 -320 895 -320 768 -321 c 16,18,19
 632 -320 632 -320 496 -320 c 0,20,-1
 223 -321 l 8,21,22
 192 -321 192 -321 193 -289 c 25,23,-1
 193 -223 l 26,24,25
 193 -192 193 -192 223 -193 c 24,26,27
 463 -193 463 -193 705 -193 c 24,28,29
 768 -193 768 -193 768 -127 c 26,30,-1
 768 -33 l 26,31,32
 768 0 768 0 735 0 c 24,33,34
 495 0 495 0 256 0 c 24,35,36
 129 0 129 0 129 129 c 26,37,-1
 129 864 l 26,38,0
 129 897 129 897 161 897 c 152,-1,1
EndSplineSet
Validated: 1
Layer: 2
SplineSet
0 1023 m 29,0,-1
 170 1023 l 21,1,-1
 170 259 l 1,2,-1
 255 174 l 9,3,-1
 670 174 l 1,4,-1
 670 1024 l 29,5,-1
 840 1024 l 29,6,-1
 840 -166 l 25,7,-1
 670 -336 l 25,8,-1
 170 -336 l 25,9,-1
 170 -166 l 25,10,-1
 585 -166 l 25,11,-1
 670 -81 l 25,12,-1
 670 4 l 25,13,-1
 170 4 l 25,14,-1
 0 174 l 25,15,-1
 0 1023 l 29,0,-1
EndSplineSet
Validated: 1
Layer: 3
SplineSet
128 896 m 29,0,-1
 256 896 l 25,1,-1
 256 192 l 25,2,-1
 320 128 l 25,3,-1
 768 128 l 25,4,-1
 768 896 l 25,5,-1
 896 896 l 25,6,-1
 896 -192 l 25,7,-1
 768 -320 l 25,8,-1
 192 -320 l 25,9,-1
 192 -192 l 25,10,-1
 704 -192 l 25,11,-1
 768 -128 l 25,12,-1
 768 0 l 25,13,-1
 256 0 l 25,14,-1
 128 128 l 25,15,-1
 128 896 l 29,0,-1
EndSplineSet
Validated: 3073
EndChar

StartChar: z
Encoding: 122 122 93
Width: 1024
VWidth: 0
Flags: MW
LayerCount: 4
Back
Fore
SplineSet
864 672 m 1048,0,-1
160 897 m 24,1,2
 512 897 512 897 864 897 c 24,3,4
 895 897 895 897 895 864 c 26,5,-1
 895 735 l 26,6,7
 895 684 895 684 352 160 c 24,8,9
 319 129 319 129 352 129 c 24,10,11
 608 129 608 129 864 129 c 24,12,13
 895 129 895 129 895 96 c 26,14,-1
 895 33 l 26,15,16
 895 0 895 0 864 0 c 24,17,18
 512 0 512 0 160 0 c 24,19,20
 129 0 129 0 129 33 c 26,21,-1
 129 96 l 26,22,23
 129 129 129 129 160 160 c 24,24,25
 416 416 416 416 672 672 c 24,26,27
 705 705 705 705 705 736.5 c 152,-1,28
 705 768 705 768 672 768 c 24,29,30
 416 768 416 768 160 768 c 24,31,32
 129 768 129 768 129 801 c 26,33,-1
 129 864 l 26,34,35
 129 897 129 897 160 897 c 24,1,2
EndSplineSet
Validated: 1
Layer: 2
SplineSet
0 1023 m 29,0,-1
 853 1023 l 29,1,-1
 853 853 l 21,2,-1
 171 255 l 5,3,-1
 171 170 l 13,4,-1
 853 170 l 29,5,-1
 853 0 l 29,6,-1
 0 0 l 29,7,-1
 0 342 l 21,8,-1
 512 768 l 5,9,-1
 512 853 l 13,10,-1
 0 853 l 29,11,-1
 0 1023 l 29,0,-1
EndSplineSet
Validated: 1
Layer: 3
SplineSet
128 896 m 29,0,-1
 896 896 l 29,1,-1
 896 736 l 29,2,-1
 320 160 l 29,3,-1
 320 128 l 29,4,-1
 896 128 l 29,5,-1
 896 0 l 29,6,-1
 128 0 l 29,7,-1
 128 160 l 29,8,-1
 704 736 l 29,9,-1
 704 768 l 29,10,-1
 128 768 l 29,11,-1
 128 896 l 29,0,-1
EndSplineSet
Validated: 3073
Comment: "* Looks like there is a curve missing at the top right.+AAoA* Refer to 'Z'"
EndChar

StartChar: braceleft
Encoding: 123 123 94
Width: 1024
VWidth: 0
Flags: MW
LayerCount: 4
Back
Fore
SplineSet
383 1153 m 26,0,1
 383 1280 383 1280 512 1280 c 24,2,3
 625 1280 625 1280 735 1280 c 24,4,5
 768 1280 768 1280 768 1247 c 26,6,-1
 768 1184 l 26,7,8
 768 1153 768 1153 735 1153 c 24,9,10
 655 1153 655 1153 575 1153 c 24,11,12
 512 1153 512 1153 512 1087 c 26,13,-1
 512 735 l 26,14,15
 512 703 512 703 480.5 703 c 152,-1,16
 449 703 449 703 449 672 c 26,17,-1
 449 608 l 26,18,19
 449 575 449 575 480.5 575 c 152,-1,20
 512 575 512 575 512 545 c 26,21,-1
 512 193 l 26,22,23
 512 130 512 130 575 129 c 24,24,25
 655 129 655 129 735 129 c 24,26,27
 768 129 768 129 768 96 c 26,28,-1
 768 33 l 26,29,30
 768 0 768 0 735 0 c 24,31,32
 622 0 622 0 512 0 c 24,33,34
 383 0 383 0 383 129 c 26,35,-1
 383 545 l 26,36,37
 383 576 383 576 352 575 c 24,38,39
 286 575 286 575 223 575 c 24,40,41
 192 575 192 575 193 608 c 25,42,-1
 193 672 l 26,43,44
 193 705 193 705 223 705 c 24,45,46
 286 705 286 705 352 705 c 24,47,48
 383 705 383 705 383 735 c 26,49,-1
 383 1153 l 26,0,1
EndSplineSet
Validated: 1
Layer: 2
SplineSet
850 1360 m 29,0,-1
 510 1360 l 29,1,-1
 340 1190 l 29,2,-1
 340 765 l 29,3,-1
 170 765 l 29,4,-1
 170 595 l 29,5,-1
 340 595 l 29,6,-1
 340 170 l 29,7,-1
 510 0 l 29,8,-1
 850 0 l 29,9,-1
 850 170 l 21,10,-1
 595 170 l 5,11,-1
 510 255 l 5,12,-1
 510 595 l 5,13,-1
 425 638 l 5,14,-1
 425 730 l 5,15,-1
 510 765 l 13,16,-1
 510 1105 l 29,17,-1
 595 1190 l 29,18,-1
 850 1190 l 29,19,-1
 850 1360 l 29,0,-1
EndSplineSet
Validated: 9
Layer: 3
SplineSet
768 0 m 29,0,-1
 512 0 l 29,1,-1
 384 128 l 29,2,-1
 384 576 l 29,3,-1
 192 576 l 29,4,-1
 192 704 l 29,5,-1
 384 704 l 29,6,-1
 384 1152 l 29,7,-1
 512 1280 l 29,8,-1
 768 1280 l 29,9,-1
 768 1152 l 29,10,-1
 576 1152 l 29,11,-1
 512 1088 l 29,12,-1
 512 736 l 29,13,-1
 448 672 l 29,14,-1
 448 608 l 29,15,-1
 512 544 l 29,16,-1
 512 192 l 29,17,-1
 576 128 l 29,18,-1
 768 128 l 29,19,-1
 768 0 l 29,0,-1
EndSplineSet
Validated: 3073
EndChar

StartChar: bar
Encoding: 124 124 95
Width: 1024
VWidth: 0
Flags: MW
LayerCount: 4
Back
Fore
SplineSet
480.5 1280 m 152,-1,1
 512 1280 512 1280 543.5 1280 c 152,-1,2
 575 1280 575 1280 575 1247 c 26,3,-1
 575 33 l 26,4,5
 575 0 575 0 543.5 0 c 152,-1,6
 512 0 512 0 480.5 0 c 152,-1,7
 449 0 449 0 449 33 c 26,8,-1
 449 1247 l 26,9,0
 449 1280 449 1280 480.5 1280 c 152,-1,1
EndSplineSet
Validated: 1
Layer: 2
SplineSet
510 1360 m 29,0,-1
 510 0 l 25,1,-1
 340 0 l 25,2,-1
 340 1360 l 25,3,-1
 510 1360 l 29,0,-1
EndSplineSet
Validated: 1
Layer: 3
SplineSet
448 1280 m 25,0,-1
 576 1280 l 25,1,-1
 576 0 l 25,2,-1
 448 0 l 25,3,-1
 448 1280 l 25,0,-1
EndSplineSet
Validated: 3073
EndChar

StartChar: braceright
Encoding: 125 125 96
Width: 1024
VWidth: 0
Flags: MW
LayerCount: 4
Back
Fore
SplineSet
575 129 m 26,0,1
 575 0 575 0 449 0 c 24,2,3
 336 0 336 0 223 0 c 24,4,5
 192 0 192 0 193 33 c 25,6,-1
 193 96 l 26,7,8
 193 129 193 129 223 129 c 24,9,10
 303 129 303 129 383 129 c 24,11,12
 449 129 449 129 449 193 c 25,13,-1
 449 545 l 26,14,15
 449 577 449 577 480.5 577 c 152,-1,16
 512 577 512 577 512 608 c 26,17,-1
 512 672 l 26,18,19
 512 705 512 705 480.5 705 c 152,-1,20
 449 705 449 705 449 735 c 26,21,-1
 449 1087 l 26,22,23
 449 1153 449 1153 383 1153 c 24,24,25
 303 1153 303 1153 223 1153 c 24,26,27
 192 1153 192 1153 193 1184 c 25,28,-1
 193 1247 l 26,29,30
 193 1280 193 1280 223 1280 c 24,31,32
 336 1280 336 1280 449 1280 c 24,33,34
 576 1280 576 1280 575 1153 c 25,35,-1
 575 735 l 26,36,37
 575 704 575 704 608 705 c 24,38,39
 671 705 671 705 735 705 c 24,40,41
 768 705 768 705 768 672 c 26,42,-1
 768 608 l 26,43,44
 768 575 768 575 735 575 c 24,45,46
 672 575 672 575 608 575 c 24,47,48
 575 575 575 575 575 545 c 26,49,-1
 575 129 l 26,0,1
EndSplineSet
Validated: 33
Layer: 2
SplineSet
170 0 m 29,0,-1
 510 0 l 29,1,-1
 680 170 l 29,2,-1
 680 595 l 29,3,-1
 850 595 l 29,4,-1
 850 765 l 29,5,-1
 680 765 l 29,6,-1
 680 1190 l 29,7,-1
 510 1360 l 29,8,-1
 170 1360 l 29,9,-1
 170 1190 l 21,10,-1
 425 1190 l 5,11,-1
 510 1105 l 5,12,-1
 510 765 l 5,13,-1
 595 722 l 5,14,-1
 595 630 l 5,15,-1
 510 595 l 13,16,-1
 510 255 l 29,17,-1
 425 170 l 29,18,-1
 170 170 l 29,19,-1
 170 0 l 29,0,-1
EndSplineSet
Validated: 9
Layer: 3
SplineSet
192 1280 m 29,0,-1
 448 1280 l 29,1,-1
 576 1152 l 29,2,-1
 576 704 l 29,3,-1
 768 704 l 29,4,-1
 768 576 l 29,5,-1
 576 576 l 29,6,-1
 576 128 l 29,7,-1
 448 0 l 29,8,-1
 192 0 l 29,9,-1
 192 128 l 29,10,-1
 384 128 l 29,11,-1
 448 192 l 29,12,-1
 448 544 l 29,13,-1
 512 608 l 29,14,-1
 512 672 l 29,15,-1
 448 736 l 29,16,-1
 448 1088 l 29,17,-1
 384 1152 l 29,18,-1
 192 1152 l 29,19,-1
 192 1280 l 29,0,-1
EndSplineSet
Validated: 3073
EndChar

StartChar: asciitilde
Encoding: 126 126 97
Width: 1024
VWidth: 0
Flags: MW
LayerCount: 4
Back
Fore
SplineSet
129 1280 m 26,0,1
 129 1409 129 1409 256 1409 c 24,2,3
 449 1409 l 24,4,5
 576 1409 576 1409 575 1280 c 25,6,-1
 575 1217 l 26,7,8
 575 1154 575 1154 641 1153 c 24,9,10
 674 1153 674 1153 705 1153 c 24,11,12
 768 1153 768 1153 768 1217 c 26,13,-1
 768 1378 l 26,14,15
 768 1410 768 1410 799.5 1410 c 152,-1,16
 831 1410 831 1410 863 1410 c 152,-1,17
 895 1410 895 1410 895 1378 c 26,18,-1
 895 1153 l 26,19,20
 895 1024 895 1024 768 1024 c 24,21,22
 672 1024 672 1024 575 1024 c 24,23,24
 448 1024 448 1024 449 1153 c 25,25,-1
 449 1217 l 26,26,27
 449 1280 449 1280 383 1280 c 24,28,29
 350 1280 350 1280 319 1280 c 24,30,31
 256 1280 256 1280 256 1217 c 26,32,-1
 256 1057 l 26,33,34
 256 1024 256 1024 224.5 1024 c 152,-1,35
 193 1024 193 1024 161 1024 c 152,-1,36
 129 1024 129 1024 129 1057 c 26,37,-1
 129 1280 l 26,0,1
EndSplineSet
Validated: 33
Layer: 2
SplineSet
510 1360 m 25,0,-1
 340 1530 l 25,1,-1
 170 1530 l 25,2,-1
 0 1360 l 25,3,-1
 0 1020 l 25,4,-1
 170 1020 l 25,5,-1
 170 1275 l 25,6,-1
 255 1360 l 25,7,-1
 340 1275 l 25,8,-1
 340 1190 l 25,9,-1
 510 1020 l 25,10,-1
 680 1020 l 25,11,-1
 850 1190 l 17,12,-1
 850 1200 l 4,13,-1
 850 1530 l 9,14,-1
 680 1530 l 25,15,-1
 680 1275 l 25,16,-1
 595 1190 l 25,17,-1
 510 1275 l 25,18,-1
 510 1360 l 25,0,-1
EndSplineSet
Validated: 9
Layer: 3
SplineSet
128 1024 m 25,0,-1
 256 1024 l 25,1,-1
 256 1184 l 25,2,-1
 352 1280 l 25,3,-1
 608 1024 l 25,4,-1
 736 1024 l 25,5,-1
 896 1184 l 25,6,-1
 896 1408 l 25,7,-1
 768 1408 l 25,8,-1
 768 1248 l 25,9,-1
 672 1152 l 25,10,-1
 416 1408 l 25,11,-1
 288 1408 l 29,12,-1
 128 1248 l 25,13,-1
 128 1024 l 25,0,-1
EndSplineSet
Validated: 3081
Comment: "This was a lot harder than it should have been..."
EndChar

